<?xml version="1.0" standalone="no"?>
<!DOCTYPE svg PUBLIC "-//W3C//DTD SVG 1.1//EN" "http://www.w3.org/Graphics/SVG/1.1/DTD/svg11.dtd" >
<svg xmlns="http://www.w3.org/2000/svg">
<metadata></metadata>
<defs>
<font id="vinqueregular" horiz-adv-x="571" >
<font-face units-per-em="1000" ascent="800" descent="-200" />
<missing-glyph horiz-adv-x="300" />
<glyph unicode="&#x28;C&#x29;" horiz-adv-x="861" d="M357 492q-4 -23 -6 -42t-2 -37q0 -43 12 -73t30.5 -49t41 -27.5t43.5 -8.5q35 0 70 20l16 -17q-18 -35 -51.5 -63t-87.5 -44q-30 13 -57 33.5t-48 46t-33 56t-12 64.5q0 37 15.5 73.5t48.5 70.5q32 32 57 55t44 36q67 -41 98 -88l-70 -63q-43 40 -109 57zM113 372 q0 -66 25 -124t68.5 -101.5t101.5 -68.5t124 -25q65 0 123.5 25t102.5 68.5t69.5 101.5t25.5 124t-25.5 125t-69.5 103.5t-102.5 70.5t-123.5 26q-66 0 -124 -26t-101.5 -70.5t-68.5 -103.5t-25 -125zM60 372q0 77 29 145t79.5 118.5t118.5 79.5t145 29q76 0 143.5 -29 t118.5 -79.5t80.5 -118.5t29.5 -145t-29.5 -144.5t-80.5 -118t-118.5 -80t-143.5 -29.5q-77 0 -145 29.5t-118.5 80t-79.5 118t-29 144.5z" />
<glyph unicode="&#x28;R&#x29;" horiz-adv-x="794" d="M359 436q104 56 104 99q0 42 -47 42q-32 0 -47 -18.5t-15 -66.5q0 -12 1.5 -26t3.5 -30zM360 387q-1 -7 -1.5 -13t-0.5 -11q0 -52 41 -64v-40q-35 9 -63 9q-43 0 -74 -18l-21 30q49 31 49 146q0 106 -38 106h-5v32q41 0 97 29q37 19 81 19q54 0 83 -17t29 -48 q0 -69 -108 -121q33 -99 145 -99h11.5t11.5 1l-74 -80q-87 47 -134 161zM139 420q0 -54 21 -102t56.5 -84t83.5 -56.5t102 -20.5t102 20.5t84 56.5t57 84t21 102t-21 102t-57 84t-84 56.5t-102 20.5t-102 -20.5t-83.5 -56.5t-56.5 -84t-21 -102zM81 420q0 66 25 125t69 103 t102.5 70t126.5 26q67 0 126 -26t103 -70t69.5 -103t25.5 -125q0 -68 -25.5 -126.5t-69.5 -102.5t-103 -69t-126 -25q-68 0 -126.5 25t-102.5 69t-69 102.5t-25 126.5z" />
<glyph unicode="&#xd;" horiz-adv-x="363" />
<glyph unicode=" "  horiz-adv-x="300" />
<glyph unicode="&#x09;" horiz-adv-x="300" />
<glyph unicode="&#xa0;" horiz-adv-x="300" />
<glyph unicode="!" horiz-adv-x="269" d="M216 90l-86 -103l-78 92l83 95zM217 745q-19 -138 -34 -274t-26 -286h-46q-8 150 -23 286t-36 274h165z" />
<glyph unicode="&#x22;" horiz-adv-x="333" d="M248 474l-33 11l-5 147q-2 39 -35 40v11l70 61l61 -55zM100 474l-33 11l-5 147q-2 39 -35 40v11l70 61l61 -55z" />
<glyph unicode="#" horiz-adv-x="569" d="M198 298h131l33 124h-131zM13 253l12 45h96l34 124h-97l14 52h97l27 102q1 5 1.5 8.5t0.5 6.5q0 18 -21 21l3 11l119 55l-54 -204h131l27 102q1 5 1.5 8.5t0.5 6.5q0 18 -21 21l3 11l119 55l-55 -204h90l-14 -52h-89l-34 -124h90l-12 -45h-90l-30 -113q-2 -6 -2 -10 q0 -13 5.5 -19.5t22.5 -6.5l-4 -14l-61 -33l-46 44l40 152h-131l-30 -113q-2 -6 -2 -10q0 -13 5.5 -19.5t22.5 -6.5l-4 -14l-61 -33l-48 44l41 152h-97z" />
<glyph unicode="$" horiz-adv-x="509" d="M328 281v-134q6 0 13 0.5t13.5 2t11 5t4.5 9.5q0 34 -5.5 60.5t-27.5 49.5zM162 568q-18 -42 -18 -73q0 -34 19 -57.5t48 -36.5v171h-13q-25 0 -36 -4zM236 165q14 -8 32.5 -12.5t37.5 -5.5v150q-31 17 -70 22v-154zM276 388q2 -1 14 -1h7.5t8.5 1v149q-14 11 -34.5 19 t-35.5 12v-175q9 -2 19 -3t21 -2zM328 0h-22v93q-20 -7 -37 -12t-33 -8v-73h-25v80q-22 8 -47.5 19.5t-50 25.5t-45.5 30.5t-34 33.5q62 22 115 72q14 -27 29.5 -47t32.5 -33v140q-77 0 -122 -19q-50 83 -50 148q0 30 9.5 52.5t29 42t47.5 37.5t66 39l20 12v103h25v-89 l47 26l23 -12v75h22v-87q36 -21 67.5 -45t59.5 -50q-48 -15 -108 -75q-6 25 -19 38v-127q56 8 108 32q14 -43 24.5 -84.5t10.5 -86.5t-37 -83t-106 -66v-102z" />
<glyph unicode="%" horiz-adv-x="760" d="M210 746q84 -49 117 -102t33 -116q0 -31 -14 -59t-37.5 -50t-53 -37t-60.5 -20q-32 11 -60 28.5t-50 40t-34.5 49t-12.5 55.5q0 36 10.5 63t32 51t53.5 47t76 50zM111 642q-10 -21 -10 -48q0 -34 16.5 -63t41 -50t53.5 -33t55 -12q18 0 29 4q9 22 9 46q0 30 -13 59 t-35.5 51.5t-51.5 36.5t-60 14q-9 0 -17 -1.5t-17 -3.5zM573 378q84 -48 116.5 -101.5t32.5 -115.5q0 -31 -14 -59t-37 -50t-53 -37t-61 -20q-32 11 -60.5 28.5t-50 40.5t-34 50t-12.5 57q0 35 11 62t32.5 50.5t54 46t75.5 48.5zM473 275q-10 -21 -10 -48q0 -33 16.5 -62.5 t41 -51t53.5 -34t55 -12.5q16 0 30 6q9 22 9 46q0 30 -13.5 58.5t-36 51.5t-51 37t-59.5 14q-9 0 -17.5 -1.5t-17.5 -3.5zM674 768l-480 -768h-72l487 768h65z" />
<glyph unicode="&#x26;" horiz-adv-x="754" d="M695 5q-59 30 -131 30q-94 0 -212 -48q-48 4 -99.5 29t-96 64t-77 87.5t-43.5 99.5q15 29 39.5 58.5t52.5 55t55.5 45.5t49.5 30q-18 9 -38 21.5t-36.5 29.5t-27.5 37.5t-11 45.5q0 34 18.5 65t50.5 54.5t75 37t93 13.5q128 -92 295 -92h16.5t16.5 1l-110 -113 q-173 45 -268 146q-55 -46 -55 -92q0 -31 23 -63.5t61 -58.5q33 -23 59 -38.5t45 -25.5l-11 -38l-53 -6q-29 -12 -57 -27t-50 -33.5t-35 -42t-13 -53.5t14 -57.5t36.5 -49.5t52 -35t60.5 -13q44 0 68 16t35.5 37.5t13.5 44.5t2 38v90h147v-83q0 -106 78 -161z" />
<glyph unicode="'" horiz-adv-x="187" d="M100 474l-33 11l-5 147q-2 39 -35 40v11l70 61l61 -55z" />
<glyph unicode="(" horiz-adv-x="428" d="M377 821q-205 -97 -205 -368q0 -32 3 -68q28 -323 194 -424l-12 -39q-158 54 -236 164t-78 285q0 177 78 291t244 175z" />
<glyph unicode=")" horiz-adv-x="428" d="M40 -62q204 96 204 363q0 33 -3 71q-29 326 -194 425l13 40q156 -54 234.5 -164t78.5 -287q0 -176 -78.5 -290.5t-243.5 -173.5z" />
<glyph unicode="*" horiz-adv-x="495" d="M412 415l-133 75l32 -149h-127l30 151l-133 -77l-40 121l154 18l-114 104l103 74l66 -143l61 143l101 -74l-112 -111l153 -11z" />
<glyph unicode="+" horiz-adv-x="477" d="M73 353q33 -16 97 -16h30v114l85 52v-166h86q35 0 71 27l21 -12l-48 -129q-32 15 -55 15h-75v-170h-85v170h-84q-44 0 -72 -36l-18 9z" />
<glyph unicode="," horiz-adv-x="233" d="M67 -77l-20 13l54 82l-59 67l88 97l76 -86z" />
<glyph unicode="-" horiz-adv-x="368" d="M77 353q33 -16 97 -16h74q33 0 71 27l21 -12l-49 -129q-32 15 -55 15h-116q-44 0 -72 -36l-18 9z" />
<glyph unicode="." horiz-adv-x="235" d="M112 -8l-77 91l87 96l77 -84z" />
<glyph unicode="/" horiz-adv-x="422" d="M410 827l-332 -947h-71l339 947h64z" />
<glyph unicode="0" horiz-adv-x="659" d="M163 576q-29 -52 -29 -114q0 -43 12.5 -86t34 -83t50.5 -75t62.5 -61t69.5 -41t72 -15q40 0 74 19q11 24 15 52.5t4 60.5q0 62 -18 128.5t-51.5 121t-81 89.5t-105.5 35q-53 0 -109 -31zM351 764q130 -81 193.5 -185t63.5 -248q0 -61 -22.5 -117t-61.5 -102t-91 -78 t-110 -45q-53 24 -102 60t-87 82t-60.5 102t-22.5 119q0 72 20 127t58 102.5t94 91t128 91.5z" />
<glyph unicode="1" horiz-adv-x="290" d="M88 0v577q0 59 -49 63v18l180 95v-753h-131z" />
<glyph unicode="2" horiz-adv-x="713" d="M666 249q-9 -71 -30.5 -120.5t-50.5 -80t-63.5 -44.5t-69.5 -14q-73 0 -123 10q-28 4 -48 7t-39 5t-39 4t-48 4h-11q-47 0 -98 -33l-34 32q48 126 102.5 228.5t117.5 192.5q61 -66 142 -66q52 0 80 32t28 95q0 65 -44 139q-12 2 -23.5 3.5t-22.5 1.5q-30 0 -57 -8.5 t-50.5 -23t-41 -35t-27.5 -44.5q-68 56 -139 75q51 46 111.5 85.5t135.5 72.5q74 -35 127.5 -67.5t88 -66.5t51 -72.5t16.5 -86.5q0 -86 -68 -178q-62 42 -133 42q-36 0 -68 -11.5t-62 -38t-58.5 -71t-58.5 -110.5q79 47 141 47q35 0 75 -8t82 -19q21 -6 40 -6q28 0 51.5 16 t41.5 38t29.5 44.5t14.5 36.5z" />
<glyph unicode="3" horiz-adv-x="676" d="M385 32q19 11 37 28.5t31.5 38.5t22 44.5t8.5 46.5q0 33 -9.5 61.5t-31.5 50t-58 36t-89 20.5l1 67q78 24 108 60.5t30 91.5q0 72 -26.5 99.5t-89.5 27.5q-42 0 -72.5 -23.5t-51.5 -84.5q-12 -3 -29 -3q-42 0 -116 20v38q25 7 43 15t28 15q8 6 29 18t52.5 24.5t71.5 21.5 t87 9q102 0 154 -37t52 -107q0 -93 -134 -161q43 -4 80.5 -17t65 -35t43 -52.5t15.5 -69.5q0 -43 -12.5 -82t-44 -75.5t-84.5 -72t-133 -71.5q-249 25 -318 168q71 12 145 33q15 -105 195 -143z" />
<glyph unicode="4" horiz-adv-x="665" d="M24 218q164 129 204 361q5 0 45 -43q39 -42 49 -141q-108 -28 -154 -161l207 7v221q-1 93 -42 140l248 150q-33 -66 -48 -111t-15 -77v-316l147 7l-79 -143h-18q-4 53 -50 53q0 -244 -184 -349v28q41 50 41 199v120h-337z" />
<glyph unicode="5" horiz-adv-x="722" d="M212 669q-28 -52 -28 -99q0 -69 47 -109t134 -40q61 0 117.5 10t116.5 33q43 -93 71 -257q-13 -47 -47 -87t-80.5 -70.5t-102 -51t-112.5 -29.5q-42 12 -85.5 30.5t-82 39.5t-70 42.5t-49.5 40.5q91 32 157 76q48 -81 99 -114t114 -33q52 0 111 24q19 48 19 98 q0 43 -16.5 79t-47 61.5t-73.5 39.5t-95 14q-72 0 -124 -5t-90 -18q-14 45 -20 86.5t-6 83.5q0 120 55 226q82 -6 175 -6q145 0 318 15q-38 -146 -111 -188q-38 57 -110 82.5t-184 25.5z" />
<glyph unicode="6" horiz-adv-x="628" d="M480 115q1 10 1.5 21.5t0.5 22.5q0 49 -10 91t-31.5 73t-54.5 48t-78 17q-53 0 -110 -22q-20 -45 -20 -86t17.5 -74.5t47 -57.5t68 -37t79.5 -13q45 0 90 17zM202 411q80 16 133 95q62 0 108 -20t76.5 -52.5t45.5 -75t15 -87.5q0 -50 -17 -99t-50 -89.5t-82 -68 t-112 -34.5q-45 60 -105.5 94.5t-141.5 37.5q-18 88 -18 168q0 358 364 479l18 -30q-219 -137 -234 -318z" />
<glyph unicode="7" horiz-adv-x="615" d="M349 0h-190q-2 22 -3 42.5t-1 40.5q0 103 25.5 184.5t80.5 144.5q66 75 105.5 117.5t57.5 56.5q-48 -15 -85 -15q-18 0 -34.5 4.5t-33 9.5t-33 9.5t-35.5 4.5q-17 0 -31.5 -2t-30.5 -11.5t-35.5 -29.5t-46.5 -55l-30 21q14 33 26.5 61t36.5 69q9 15 26 30.5t39 28.5 t47.5 21t49.5 8q32 0 60.5 -5.5t55 -12t51.5 -12t51 -5.5q23 0 43 9.5t40 33.5l41 -36q-296 -296 -296 -570q0 -60 10 -91t39 -31v-20z" />
<glyph unicode="8" horiz-adv-x="612" d="M173 646q-13 -25 -13 -52q0 -39 24 -71t61 -55.5t81 -36t83 -12.5q25 0 45 6q15 24 15 50q0 46 -28 79t-69.5 53t-88.5 29.5t-85 9.5h-25zM160 350q-7 -16 -10.5 -30.5t-3.5 -29.5q0 -44 26 -82t66 -65.5t87 -43.5t89 -16q22 0 49 8q16 28 16 59q0 37 -22 74.5 t-58.5 66.5t-83.5 47.5t-98 18.5q-33 0 -57 -7zM325 753q63 -27 106.5 -54.5t69.5 -56.5t37.5 -59t11.5 -63q0 -67 -97 -131q18 -6 38.5 -20t37 -37.5t27.5 -55.5t11 -74q0 -40 -22.5 -76.5t-59.5 -65t-86 -48t-101 -25.5q-49 15 -95 37.5t-81 52t-56.5 65t-21.5 77.5 q0 89 50 125q44 33 83 48q-15 5 -32 16.5t-40 28.5q-21 16 -31.5 37t-10.5 51q0 40 17 69.5t50 55t82 50t113 53.5z" />
<glyph unicode="9" horiz-adv-x="621" d="M144 624q-1 -11 -1.5 -22t-0.5 -22q0 -50 10.5 -92t32 -72.5t54.5 -47.5t78 -17q50 0 110 21q18 43 18 86q0 41 -17 75t-46.5 58t-67.5 37t-80 13q-41 0 -90 -17zM422 328q-80 -16 -133 -95q-62 0 -108 20t-76.5 52.5t-45.5 75t-15 87.5q0 49 17 97.5t50 89t81.5 68.5 t112.5 36q45 -60 105.5 -94.5t141.5 -37.5q8 -45 12.5 -86.5t4.5 -81.5q0 -361 -363 -479l-17 30q218 137 233 318z" />
<glyph unicode=":" horiz-adv-x="235" d="M112 -8l-77 91l87 96l77 -84zM112 328l-77 91l87 96l77 -84z" />
<glyph unicode=";" horiz-adv-x="235" d="M112 328l-77 91l87 96l77 -84zM57 -77l-19 13l53 82l-58 67l87 97l77 -86z" />
<glyph unicode="&#x3c;" horiz-adv-x="530" d="M411 506l79 -59l-20 -15q-24 9 -52 9q-16 0 -31 -2.5t-28 -10.5l-176 -95l292 -168l-66 -106l-379 232z" />
<glyph unicode="=" horiz-adv-x="444" d="M67 264q33 -16 97 -16h139q36 0 71 28l21 -13l-48 -129q-32 15 -56 15h-181q-44 0 -71 -35l-19 8zM97 441q34 -15 97 -15h139q33 0 71 27l21 -13l-49 -128q-32 15 -55 15h-182q-43 0 -71 -36l-19 9z" />
<glyph unicode="&#x3e;" horiz-adv-x="530" d="M109 59l-79 59l19 15q23 -10 53 -10q15 0 29.5 3t29.5 11l176 95l-293 168l67 106l379 -232z" />
<glyph unicode="?" horiz-adv-x="590" d="M378 640q-12 2 -23 3.5t-22 1.5q-30 0 -57.5 -8.5t-50.5 -23t-40.5 -35t-27.5 -44.5q-68 56 -139 75q51 46 111.5 85.5t135.5 72.5q74 -35 127.5 -67.5t88 -67t51 -73t16.5 -85.5q0 -86 -68 -178q-87 35 -134 35q-37 0 -57 -16t-20 -42q0 -25 15 -58h-104q-50 59 -50 112 q0 50 44 100q56 -53 141 -53q51 0 79.5 31t28.5 97q0 64 -45 138zM228 -8l-77 91l88 96l76 -84z" />
<glyph unicode="@" horiz-adv-x="881" d="M353 489q-13 -40 -13 -84q0 -38 9 -65t22.5 -47t30.5 -35t32 -27q38 8 53 8v138q-2 20 -9.5 40.5t-21 37t-33 26.5t-46.5 10q-6 0 -11.5 -0.5t-12.5 -1.5zM503 204q-62 -7 -114 -50q-63 23 -102 72t-39 121q0 47 10.5 79.5t31 57.5t50 46.5t68.5 47.5q21 -7 44 -26.5 t35 -49.5l107 62v-308q84 54 84 160q0 65 -17.5 116.5t-49 87t-75.5 54t-98 18.5q-62 0 -113 -29t-87 -76.5t-56 -107t-20 -119.5q0 -69 22 -126t63 -97t98.5 -62t128.5 -22q60 0 99 14t66 37l7 -14q-51 -42 -125.5 -68.5t-155.5 -26.5q-33 0 -71.5 10.5t-80.5 33.5 q-87 47 -127 123t-42 178q2 84 30.5 155.5t81 124.5t126.5 83t167 30q152 0 233.5 -79t81.5 -241q0 -182 -196 -257z" />
<glyph unicode="A" horiz-adv-x="750" d="M293 699q0 -182 -23 -268h204l-21 191q0 42 -19 59.5t-61 17.5h-80zM-17 120q10 -6 21 -6q23 0 59.5 34t72.5 105.5t65 182t37 263.5h-196l10 47h579v-44q-41 0 -42 -82l50 -464q12 -113 72 -113v-43h-388v41q181 1 181 95q0 3 -0.5 6t-0.5 7l-17 158h-238 q-51 -186 -162 -319q-28 26 -58.5 53.5t-64.5 57.5z" />
<glyph unicode="B" horiz-adv-x="751" d="M252 349l147 102q55 40 76.5 76.5t21.5 76.5q0 54 -28.5 78.5t-66.5 24.5q-20 0 -43.5 -6t-45.5 -22.5t-39 -45.5t-22 -76v-208zM449 32q19 11 37 28.5t31.5 38.5t22 44.5t8.5 46.5q0 65 -39 112.5t-133 65.5l-123 -87v-82q0 -128 196 -167zM40 651q54 0 131 31 q33 15 61.5 28.5t57 23t59 15t67.5 5.5q108 0 161.5 -37.5t53.5 -106.5q0 -93 -134 -161q45 -5 82.5 -18.5t64.5 -35.5t42 -52.5t15 -70.5q0 -43 -13.5 -81.5t-45 -74.5t-84 -71t-130.5 -71q-57 25 -117.5 40.5t-111.5 15.5q-48 0 -84 -15t-54 -28l-27 41q68 45 68 104v397 q0 81 -62 84v38z" />
<glyph unicode="C" horiz-adv-x="795" d="M752 213q-34 -45 -70 -86.5t-78.5 -72.5t-94 -49.5t-116.5 -18.5q-45 0 -89 15.5t-91 42.5q-38 24 -67 59t-49.5 77.5t-31 91t-10.5 98.5q0 80 30.5 150t83.5 122t124.5 82t154.5 30t144 -27.5t116 -80.5l-130 -110l-24 30q1 4 1.5 7t0.5 7q0 16 -9 31.5t-26 28.5t-41 21 t-55 8q-47 0 -88 -18t-71 -51.5t-47.5 -81t-17.5 -105.5q0 -77 22.5 -136.5t58 -100.5t80.5 -62t90 -21q60 0 101.5 15t71.5 38.5t51.5 50.5t42.5 51z" />
<glyph unicode="D" horiz-adv-x="792" d="M257 199q0 -123 93 -123q61 0 126 64q85 84 85 261q0 79 -21.5 134.5t-51.5 90.5t-63 51t-57 16q-48 0 -78 -27.5t-32 -81.5zM748 380q-45 -141 -140.5 -242t-253.5 -153q-20 6 -44.5 12t-50 10.5t-49.5 7.5t-43 3q-29 0 -52 -8.5t-46 -25.5l-29 38q72 66 72 154v335 q0 66 -75 134l18 34q66 0 142 21.5t169 69.5q151 -34 259 -162q109 -129 123 -228z" />
<glyph unicode="E" horiz-adv-x="775" d="M731 213q-34 -45 -70 -86.5t-78.5 -72.5t-94 -49.5t-116.5 -18.5q-45 0 -89 15t-90 43q-39 23 -68.5 58.5t-49.5 78t-30 91t-10 98.5q0 81 28.5 148t73.5 112q35 35 67 58.5t66 38t72.5 21t85.5 6.5q81 0 143 -27t116 -81l-130 -110l-24 30q1 4 1.5 7t0.5 7 q0 16 -8.5 31.5t-25.5 28.5t-41.5 21t-55.5 8q-49 0 -90 -19t-71 -53.5t-46.5 -83.5t-16.5 -109l496 58l-95 -181h-18q-4 48 -63 50l-313 10q10 -62 35 -108.5t58.5 -77.5t73 -46.5t78.5 -15.5q55 0 96.5 15t73 38t55 50t41.5 52z" />
<glyph unicode="F" horiz-adv-x="580" d="M35 404l85 7v15q0 92 -42 140l315 196q51 -121 173 -177l-130 -89q-75 41 -103 157q-38 -32 -54 -63t-16 -63v-103l250 22l-84 -165h-18q-5 47 -63 50l-85 3v-177q0 -236 -184 -341v28q41 50 41 199v295l-85 3v63z" />
<glyph unicode="G" horiz-adv-x="823" d="M539 564q5 5 5 15q0 15 -8.5 31t-25 29t-40.5 21.5t-56 8.5q-47 0 -88 -18t-71 -51.5t-47 -81t-17 -105.5q0 -77 22 -136.5t57.5 -100.5t80.5 -62t90 -21q44 0 86.5 15t76 43.5t54 70.5t20.5 96h-280q-68 0 -103 -35l-14 21zM767 395q-12 -104 -50.5 -180.5t-92 -127 t-116 -75.5t-122.5 -26q-75 0 -137.5 31.5t-108 85t-71 123t-25.5 144.5q0 80 30.5 150t83.5 122t125 82t155 30q81 0 143 -27t116 -81l-224 -211h238q41 0 71 30l21 -25q-14 -35 -36 -45z" />
<glyph unicode="H" horiz-adv-x="711" d="M40 33q58 36 58 97v486q0 22 -46 55l16 21q12 -3 28 -3q75 0 137 57h350v-44h-163q-178 0 -178 -86v-54q116 18 191 81q53 -8 94.5 -33t70 -63.5t43.5 -87t15 -102.5q0 -62 -26.5 -121t-71 -110.5t-101.5 -94t-118 -71.5l-26 24q42 25 79 59.5t65 75.5t44.5 87t16.5 94 q0 49 -11.5 89.5t-32 68.5t-48 43.5t-58.5 15.5q-56 0 -126 -45v-308q0 -103 33 -131v-33h-235v33z" />
<glyph unicode="I" horiz-adv-x="535" d="M185 625q0 73 -132 91q-63 0 -63 45q0 39 60 39q57 0 72 -54h316v-42q-109 0 -109 -67v-516q0 -74 131 -91q63 0 63 -46q0 -38 -60 -38q-56 0 -72 54h-315v41q109 0 109 69v515z" />
<glyph unicode="J" horiz-adv-x="547" d="M392 640q-42 -22 -75.5 -32t-72.5 -10q-36 0 -68 8.5t-66 8.5q-35 0 -64.5 -7.5t-52.5 -24.5l-24 17q24 39 46 66.5t43.5 45.5t43.5 29t46 18q77 -58 194 -58q90 0 140 45l21 -18q-39 -68 -39 -153v-409q-44 -247 -309 -350v40q28 11 58.5 40.5t55.5 72t41 95t16 109.5 q0 50 -11 100.5t-27.5 95t-37 81t-39.5 59.5q113 21 181 131z" />
<glyph unicode="K" horiz-adv-x="735" d="M299 746v-40q-56 -11 -56 -82v-188q123 68 312 323l115 -91l-84 -89q-23 26 -49 26q-51 0 -121 -97q49 -45 96 -98.5t85 -117t63.5 -136.5t31.5 -156h-216v32q14 12 20 27.5t6 33.5q0 25 -7.5 55t-21 60t-32.5 59t-43 53q-41 42 -66.5 57t-42.5 15q-29 0 -47 -25v-255 q0 -66 53 -80v-32h-253v32q54 15 54 82v526q0 65 -46 66v40h249z" />
<glyph unicode="L" horiz-adv-x="667" d="M632 185q-17 -37 -35.5 -72t-43.5 -62t-58.5 -43t-80.5 -16q-45 0 -95.5 6t-101.5 6q-41 0 -75 -3.5t-79 -13.5l-23 38q33 31 48.5 66.5t15.5 80.5v301q0 78 -50 104l4 28q44 11 83.5 30t78.5 45q24 16 48 29.5t46.5 23.5t43.5 16t39 6q31 0 61.5 -16.5t56.5 -41.5 t45.5 -55t27.5 -58q-37 -7 -72.5 -21t-70.5 -34q0 38 -17 63t-44 39.5t-59.5 20.5t-63.5 6q-5 -32 -8 -65.5t-3 -68.5v-297q0 -44 -55 -117q61 35 117 35q15 0 32.5 -4t36.5 -8.5t39 -8.5t38 -4q62 0 145 87z" />
<glyph unicode="M" horiz-adv-x="871" d="M175 120q0 -177 -126 -306l-21 13q64 106 64 280v489q0 83 -43 95v55h209l182 -387l136 276q9 19 9 32q0 17 -15 23.5t-38 6.5v49h291v-44q-55 -1 -55 -68v-479q0 -115 70 -116v-39h-277v46q60 0 60 100v422l-220 -482l-226 459v-425z" />
<glyph unicode="N" horiz-adv-x="776" d="M102 619q0 63 -67 75v30l176 38l387 -478v372q0 50 -68 50v40h210v-40q-35 -1 -50 -10.5t-15 -28.5v-667h-77v49l-415 520v-451q0 -143 -124 -304l-21 13q64 141 64 280v512z" />
<glyph unicode="O" horiz-adv-x="760" d="M188 569q-40 -65 -40 -125q0 -49 16.5 -93t44.5 -82t64.5 -68.5t76 -52.5t80 -33.5t75.5 -11.5q49 0 87 24q15 30 24 67.5t9 85.5q0 57 -17 107.5t-52 95.5q-21 26 -46 49.5t-54 41.5t-62.5 28.5t-70.5 10.5q-61 0 -135 -44zM407 764q87 -46 145.5 -96t94 -104t51 -112.5 t15.5 -120.5t-27.5 -119t-74.5 -102.5t-108.5 -77t-128.5 -43.5q-63 23 -121 58.5t-102.5 82t-71.5 102.5t-27 119q0 69 22 124t66 103t111 92.5t156 93.5z" />
<glyph unicode="P" horiz-adv-x="780" d="M255 199q0 -123 93 -123q61 0 126 64q85 84 85 261q0 78 -21 133.5t-51 91t-63 51.5t-57 16q-21 0 -40.5 -6.5t-34.5 -20t-25 -34t-11 -48.5zM746 380q-45 -141 -140.5 -242t-253.5 -153q-17 4 -38 9.5t-43 9.5l-18 3v-98q0 -18 6 -30t14 -20t17.5 -12t16.5 -6v-25h-197 v695q0 66 -75 134l18 34q66 0 142 21.5t169 69.5q151 -34 259 -162q109 -129 123 -228z" />
<glyph unicode="Q" horiz-adv-x="768" d="M179 576q-41 -71 -41 -129q0 -50 17 -95.5t45 -84.5t65 -71t77.5 -54.5t81.5 -34.5t77 -12q24 0 46.5 6t41.5 19q16 31 25 70.5t9 84.5q0 120 -70 212q-18 23 -42 47t-54 43.5t-65.5 31.5t-75.5 12q-61 0 -137 -45zM401 763q85 -42 144.5 -86t101.5 -95q71 -86 71 -216 q0 -176 -120 -264q-2 -13 -3 -25.5t-1 -23.5q0 -41 14 -75.5t37.5 -61.5t53 -44.5t59.5 -24.5l-13 -31q-15 -3 -30 -3q-35 0 -72.5 14.5t-71.5 41.5t-61.5 65t-43.5 84q-23 -10 -47.5 -17t-50.5 -12q-63 23 -121 58.5t-102.5 82t-71.5 102.5t-27 119q0 70 22.5 125.5t67 103 t111 91.5t154.5 92z" />
<glyph unicode="R" horiz-adv-x="745" d="M408 451q56 39 77 76.5t21 76.5q0 54 -28.5 78.5t-66.5 24.5q-20 0 -44 -6t-46 -22.5t-38.5 -46t-21.5 -75.5v-208zM48 651q51 0 132 31q34 16 62.5 29.5t57 23t58.5 14.5t68 5q108 0 161 -37t53 -106q-1 -46 -37.5 -83.5t-96.5 -78.5l-86 -59q34 -69 77 -123t91 -99 q16 -17 32.5 -26.5t36.5 -9.5q33 0 74 33l21 -24q-31 -25 -74.5 -67t-100.5 -100q-72 106 -137.5 190t-125.5 153l-52 -36v-82q0 -43 20.5 -76t66.5 -56v-61q-35 10 -72 17t-69 7q-48 0 -83.5 -14.5t-54.5 -28.5l-28 41q36 22 52.5 48t16.5 56v397q0 81 -63 84v38z" />
<glyph unicode="S" horiz-adv-x="709" d="M221 628q-27 -56 -27 -105q0 -72 50 -110.5t138 -38.5q66 0 123 10t111 33q22 -49 36 -100.5t14 -109.5q0 -88 -114 -154q-113 -65 -228 -84q-36 10 -76.5 25.5t-80 35.5t-73.5 43.5t-56 48.5q90 32 156 76q48 -82 100.5 -114t116.5 -32q50 0 108 23q10 41 10 72 q0 46 -21 79t-56 53t-80.5 29.5t-94.5 9.5q-104 0 -164 -22q-70 98 -70 179q0 96 107 161q51 31 113 64t134 67q75 -33 135.5 -72.5t111.5 -85.5q-71 -19 -139 -75q-9 20 -27 40.5t-42.5 37t-54.5 26.5t-63 10q-45 0 -97 -20z" />
<glyph unicode="T" horiz-adv-x="786" d="M745 189q-24 -38 -51.5 -74t-63.5 -65t-81.5 -46.5t-104.5 -17.5q-55 0 -111.5 28t-102 79.5t-74 123t-28.5 158.5q0 85 30.5 149.5t84.5 109.5q-35 0 -61.5 -0.5t-48 -6.5t-41 -20t-41.5 -41l-28 18q26 48 60.5 79.5t78.5 50.5t100 27t125 8q116 0 284 -18l-76 -156 q-152 49 -269 56q-81 -72 -81 -208q0 -89 39 -161q26 -49 56.5 -81t63.5 -51t67 -27t66 -8q30 0 52.5 5.5t42 19t38.5 35.5t42 56z" />
<glyph unicode="U" horiz-adv-x="773" d="M524 647q0 33 -20.5 48t-48.5 15v36h274v-36q-63 -3 -63 -74v-464q0 -63 66 -78l-1 -28l-110 -81q-15 6 -31.5 16.5t-30 25.5t-22.5 33.5t-11 38.5q-24 -51 -69 -77.5t-120 -26.5q-39 0 -86.5 19t-89 59t-70 102t-28.5 148q0 104 35 194.5t94 179.5h-122v49h319v-41 q-52 -14 -86.5 -45.5t-55.5 -74.5t-29.5 -93.5t-8.5 -101.5q0 -59 15 -109.5t41 -87.5t62.5 -57.5t79.5 -20.5q28 0 50 10t37 27t22.5 40t7.5 50v405z" />
<glyph unicode="V" horiz-adv-x="760" d="M190 746q45 -40 69.5 -113t29.5 -176q10 -201 168 -347q80 68 116 136t36 145q0 43 -13 83.5t-37.5 72t-60 51t-80.5 19.5q-37 0 -70 -10l-4 20q85 50 119 119q5 0 11 0.5t11 0.5q47 0 89 -15t73.5 -45t50 -74.5t18.5 -103.5q0 -156 -81 -279q-35 -54 -96.5 -116 t-152.5 -131h-14q-229 226 -229 436q0 105 -28 180t-85 117v30h160z" />
<glyph unicode="W" horiz-adv-x="1133" d="M192 746q45 -40 73 -113t33 -176q10 -201 168 -347q131 110 131 240q0 55 -15 103.5t-42.5 85t-67.5 57.5t-89 21q-40 0 -76 -10l-4 20q85 50 120 119q5 0 11 0.5t10 0.5q52 0 96 -18.5t76.5 -49.5t52.5 -71.5t25 -83.5q4 -33 5.5 -60t1.5 -47q0 -11 -0.5 -19t-1.5 -15 q31 -155 159 -273q131 110 131 240q0 55 -15 103.5t-42.5 85t-67.5 57.5t-89 21q-40 0 -76 -10l-4 20q85 50 120 119q6 0 12 0.5t12 0.5q55 0 101.5 -20.5t80.5 -61t53.5 -100t19.5 -138.5q0 -114 -58 -197q-37 -54 -97.5 -116t-151.5 -131h-14q-117 119 -156 211 q-73 -96 -222 -211h-14q-229 226 -229 436q0 105 -31.5 180t-88.5 117v30h160z" />
<glyph unicode="X" horiz-adv-x="754" d="M41 24q135 51 267 340l-119 180q-35 69 -128 73l-11 20l90 110l159 -95l84 -140q117 178 243 237q20 -54 54 -110q-159 -63 -247 -238l164 -277q34 -45 107 -46l14 -28l-106 -64l-161 87l-105 205q-134 -248 -292 -278z" />
<glyph unicode="Y" horiz-adv-x="758" d="M186 746q45 -40 69.5 -113t29.5 -176q10 -201 168 -347q80 68 116 136t36 145q0 43 -13 83.5t-37.5 72t-60 51t-80.5 19.5q-37 0 -70 -10l-4 20q85 50 119 119q5 0 11 0.5t11 0.5q47 0 89 -15t73.5 -45t50 -74.5t18.5 -103.5q0 -74 -17 -137.5t-52 -122.5t-89 -115.5 t-128 -115.5q-10 -13 -10 -32q0 -26 14.5 -38t48.5 -12q50 0 132 67l28 -17q-42 -75 -100 -118t-130 -43q-24 0 -43.5 9.5t-33 24.5t-21 33t-7.5 35q0 42 41 80q-206 215 -206 412q0 105 -28 180t-85 117v30h160z" />
<glyph unicode="Z" horiz-adv-x="739" d="M700 249q-9 -71 -30 -120.5t-50 -80t-63.5 -44.5t-69.5 -14q-38 0 -74.5 4.5t-73 10t-73.5 10t-75 4.5q-64 0 -110 -32l-35 32q52 85 92 149.5t73.5 115t62.5 90t59 73.5t63 65.5t74 66.5q-36 -10 -77 -10q-21 0 -41.5 4.5t-41.5 10t-42.5 10t-43.5 4.5q-20 0 -35.5 -2 t-31 -12t-34 -29.5t-43.5 -53.5l-31 21q16 40 35 79t45.5 69.5t62 49t84.5 18.5q28 0 55 -5.5t55 -11.5t56 -11.5t58 -5.5q62 0 112 44l41 -36q-288 -294 -406 -540l2 1q22 6 49 6q22 0 49.5 -6t58 -13t62.5 -13t62 -6t54 12.5t42 30t29 37.5t14 35z" />
<glyph unicode="[" horiz-adv-x="428" d="M377 821q-51 -26 -96 -38.5t-84 -12.5h-10.5t-10.5 1v-790q13 2 24 3.5t22 1.5q70 0 145 -42l-10 -22q-49 25 -118 25q-33 0 -69.5 -5.5t-78.5 -17.5v919q77 -28 149 -28q68 0 125 22z" />
<glyph unicode="\" horiz-adv-x="422" d="M76 827l339 -947h-71l-332 947h64z" />
<glyph unicode="]" horiz-adv-x="428" d="M71 -56q103 50 181 50q5 0 10.5 -0.5t10.5 -0.5v790q-12 -2 -23.5 -3.5t-23.5 -1.5q-74 0 -145 43l11 21q49 -25 117 -25q65 0 149 23v-919q-79 29 -150 29q-65 0 -125 -22z" />
<glyph unicode="^" horiz-adv-x="360" d="M327 428l-18 -22l-98 192l-111 -195l-70 44l154 252z" />
<glyph unicode="_" horiz-adv-x="435" d="M20 -123h395v-57h-395v57z" />
<glyph unicode="`" horiz-adv-x="280" d="M81 683l153 -114l-27 -25l-180 78z" />
<glyph unicode="a" horiz-adv-x="526" d="M247 238q-64 -43 -64 -98q0 -52 62 -60l62 26v159zM307 339q-8 45 -49 63q-66 -42 -165 -60l-25 36q124 49 189 137q45 -37 89.5 -67t92.5 -53v-259q0 -65 61 -65v-24l-91 -56l-101 75l-138 -87q-115 24 -115 136q0 73 66 121l186 71v32z" />
<glyph unicode="b" horiz-adv-x="556" d="M418 122q17 40 17 77q0 35 -13.5 67t-37 56t-55 38.5t-67.5 14.5q-28 0 -56 -9q0 -13 -2 -34t-2 -44q0 -29 6 -58.5t25.5 -54t54.5 -40t94 -15.5q9 0 17.5 0.5t18.5 1.5zM210 411q22 9 38.5 18t30 20.5t26 25t28.5 31.5q48 0 82.5 -15.5t57.5 -42.5t34 -63.5t11 -78.5 q0 -53 -17 -107t-48.5 -100t-76 -78.5t-100.5 -41.5q-19 27 -38.5 48.5t-42.5 38.5t-51.5 28.5t-64.5 17.5v465q0 59 -49 63v18l180 95v-342z" />
<glyph unicode="c" horiz-adv-x="430" d="M141 402q-5 -27 -7.5 -50.5t-2.5 -45.5q0 -51 15 -88t37.5 -60t50 -34t52.5 -11q41 0 86 24l19 -19q-22 -43 -62.5 -77t-106.5 -54q-36 16 -69 40.5t-58.5 56t-40.5 69t-15 79.5q0 48 13.5 85t39 69.5t63 63.5t85.5 67q84 -50 120 -108l-85 -77q-55 51 -134 70z" />
<glyph unicode="d" horiz-adv-x="553" d="M167 405q-8 -29 -12.5 -54.5t-4.5 -51.5q0 -46 11.5 -80t29 -59t38.5 -43.5t41 -33.5q30 11 64 12v171q-2 24 -11 49.5t-26 46t-41 33.5t-56 13q-17 0 -33 -3zM354 51q-79 -14 -141 -64q-39 15 -71 38t-55.5 53.5t-36.5 68t-13 82.5q0 59 14 99t39.5 71t62 58t82.5 60 q27 -10 56 -34t43 -63v157q0 58 -50 63v18l181 95v-617q2 -65 61 -65v-24l-90 -56z" />
<glyph unicode="e" horiz-adv-x="441" d="M153 399q-27 -68 -27 -122q0 -40 17 -80l116 115q-21 80 -106 87zM166 164q30 -33 62 -47.5t68 -14.5q47 0 90 22l13 -6q-67 -114 -169 -131q-36 16 -69.5 40.5t-59 56t-40.5 69t-15 79.5q0 48 13.5 85t39 69t63.5 63.5t86 67.5q80 -49 136 -135z" />
<glyph unicode="f" horiz-adv-x="394" d="M34 438q55 31 55 64q0 44 -55 47v18q149 142 273 182q24 -55 88 -67l-96 -79l-5 2q-12 27 -38 27q-19 0 -50 -14q9 -17 14.5 -38.5t5.5 -48.5v-22h120l-40 -89h-80v-420h-131v420h-61v18z" />
<glyph unicode="g" horiz-adv-x="538" d="M144 371q-17 -39 -17 -76q0 -35 13.5 -67t36.5 -56t54.5 -38.5t67.5 -14.5q27 0 57 8q0 14 2 35t2 43q0 29 -6.5 58.5t-26 53.5t-56.5 39.5t-97 15.5h-15t-15 -1zM40 -167q77 98 149 98q48 0 101 -50q30 37 46 80.5t16 97.5v24q-23 -9 -39 -18t-29.5 -20.5t-26 -25 t-28.5 -31.5q-48 0 -83 15.5t-58 42.5t-34 63t-11 77q0 52 17 106.5t48.5 101t76.5 79.5t101 42q19 -27 38.5 -49t42.5 -38.5t51.5 -28t64.5 -17.5v-295q0 -224 -241 -285q-35 65 -84 65q-43 0 -105 -53z" />
<glyph unicode="h" horiz-adv-x="551" d="M75 577q0 59 -49 63v18l180 95v-309q49 23 83 67q114 -11 167 -70.5t53 -160.5q0 -50 -18.5 -97t-50 -88.5t-72.5 -75.5t-85 -56l-18 19q63 45 98.5 102t35.5 132q0 81 -32 127.5t-89 46.5q-34 0 -72 -23v-367h-131v577z" />
<glyph unicode="i" horiz-adv-x="300" d="M208 634l-145 -75v103l145 73v-101zM179 -9l-102 76v272q0 59 -49 63v18l96 95l84 -86v-293q0 -65 62 -65v-24z" />
<glyph unicode="j" horiz-adv-x="279" d="M19 -156q69 31 69 178v317q0 59 -49 63v18l180 95v-333q0 -349 -200 -366v28zM219 634l-145 -75v103l145 73v-101z" />
<glyph unicode="k" horiz-adv-x="536" d="M267 413q-32 -35 -63 -60v-61q25 5 42 5q18 0 39.5 -2.5t46.5 -7.5q3 15 3 30q0 69 -68 96zM73 577q0 59 -49 63v18l180 95v-350q26 26 50.5 55t47.5 61q5 1 10.5 1h10.5q33 0 61 -13t48.5 -36t32.5 -53.5t12 -66.5q0 -21 -3 -46q-44 -20 -111 -30q63 -29 97 -95t39 -180 h-136q0 70 -13.5 116t-36 72.5t-51 37t-58.5 10.5v-236h-131v577z" />
<glyph unicode="l" horiz-adv-x="295" d="M176 -9l-102 76v510q0 59 -49 63v18l180 95v-617q0 -65 62 -65v-24z" />
<glyph unicode="m" horiz-adv-x="874" d="M76 335q0 59 -49 63v18l110 95q59 -16 70 -67q104 21 168 67q77 -20 112 -73q51 10 98 28.5t92 44.5q81 -20 113 -75.5t32 -152.5q0 -57 -8.5 -126t-26.5 -157h-170q81 198 81 292q0 60 -34 75q-44 19 -85 19q-38 0 -64 -16q2 -20 3.5 -42.5t1.5 -47.5q0 -116 -34 -280 h-170q84 199 84 290q0 60 -38 77q-42 19 -85 19q-39 0 -70 -19v-367h-131v335z" />
<glyph unicode="n" d="M74 335q0 59 -49 63v18l110 95q59 -16 70 -67q104 21 168 67q81 -20 113.5 -75.5t32.5 -152.5q0 -57 -8.5 -126t-26.5 -157h-170q84 195 84 289q0 61 -38 78q-42 19 -85 19q-39 0 -70 -19v-367h-131v335z" />
<glyph unicode="o" horiz-adv-x="516" d="M133 373q-13 -27 -13 -64q0 -46 22.5 -86t56.5 -70t74.5 -47.5t76.5 -17.5q18 0 40 8q14 33 14 63q0 41 -19 81t-50 71t-71 50t-82 19q-12 0 -24.5 -1.5t-24.5 -5.5zM272 517q57 -34 96.5 -69t63.5 -71.5t35 -76t11 -83.5q0 -41 -18.5 -79t-49.5 -69t-72.5 -52.5 t-87.5 -29.5q-45 16 -84.5 40.5t-69 56t-46.5 68.5t-17 78q0 48 14.5 85.5t44.5 70t75 64t105 67.5z" />
<glyph unicode="p" horiz-adv-x="545" d="M375 95q16 49 16 104q0 46 -11.5 80t-29 59.5t-38 44.5t-39.5 34q-32 -11 -65 -12v-171q0 -25 9 -50t26.5 -45.5t42.5 -33.5t58 -13q14 0 31 3zM208 452q66 17 121 61q78 -30 127.5 -91t49.5 -151q0 -60 -13 -101t-38.5 -72.5t-62.5 -58t-85 -56.5q-27 10 -56 33.5 t-43 63.5v-268h-131v519q0 59 -49 63v18l180 95v-55z" />
<glyph unicode="q" horiz-adv-x="541" d="M140 371q-17 -39 -17 -76q0 -35 13.5 -67t37 -56t54.5 -38.5t67 -14.5q27 0 57 8q0 14 2 35t2 43q0 29 -6.5 58.5t-26 53.5t-56.5 39.5t-97 15.5h-15t-15 -1zM348 83q-23 -9 -39 -18t-29.5 -20.5t-26 -25t-28.5 -31.5q-48 0 -83 15.5t-57.5 42.5t-33.5 63t-11 77 q0 52 16.5 106.5t48 101t76.5 79.5t101 42q19 -27 38.5 -49t42.5 -38.5t51.5 -28t64.5 -17.5v-570h-131v271z" />
<glyph unicode="r" horiz-adv-x="415" d="M74 335q0 59 -49 63v18l110 95q59 -16 70 -67q29 51 96 67q24 -55 88 -67l-96 -79l-5 2q-9 28 -31 28q-21 0 -52 -28v-367h-131v335z" />
<glyph unicode="s" horiz-adv-x="540" d="M177 412q-19 -34 -19 -62q0 -21 10.5 -38t28.5 -29t43 -18.5t55 -6.5q46 0 87 6.5t79 21.5q17 -34 27.5 -70.5t10.5 -74.5q0 -26 -22 -50.5t-57.5 -45t-80 -35.5t-89.5 -21q-26 7 -55 17t-57.5 22.5t-53 27.5t-41.5 32q65 19 121 61q37 -55 78 -76t95 -21q14 0 27.5 1 t27.5 4q2 6 2 15q0 55 -39.5 91.5t-120.5 36.5q-45 0 -77 -3t-55 -12q-54 70 -54 127q0 31 19.5 56.5t53.5 48t80.5 43t101.5 41.5q54 -22 99 -47t80 -54q-51 -13 -113 -64q-6 17 -21.5 31.5t-37 25t-47 16.5t-50.5 6q-18 0 -36 -3z" />
<glyph unicode="t" horiz-adv-x="331" d="M69 67v289q0 59 -49 63v18l180 176v-119h100v-79h-100v-279q0 -65 62 -65v-24l-91 -56z" />
<glyph unicode="u" d="M502 170q0 -59 49 -63v-18l-111 -95q-60 17 -67 84q-89 -26 -171 -84q-86 22 -120.5 77.5t-34.5 146.5q0 27 4.5 54t10.5 53t10.5 50.5t4.5 45.5q0 46 -20 84h140q20 -26 20 -72q0 -26 -5.5 -59t-18.5 -71q-11 -32 -16.5 -55.5t-5.5 -44.5q0 -24 8.5 -41t23 -27 t34.5 -14.5t43 -4.5q51 0 90 30v359h132v-335z" />
<glyph unicode="v" horiz-adv-x="545" d="M162 505q32 -28 47.5 -74.5t17.5 -121.5q3 -146 105 -220q82 76 82 178q0 27 -8.5 54.5t-24 49.5t-37 36t-48.5 14q-17 0 -47 -8l-8 22q58 31 84 82q5 0 8.5 0.5t8.5 0.5q33 0 62 -11t50.5 -32t34.5 -52.5t13 -72.5q0 -54 -11.5 -99t-38.5 -87.5t-71.5 -86t-109.5 -94.5 h-9q-160 157 -160 305q0 75 -19 117.5t-61 61.5v38h140z" />
<glyph unicode="w" horiz-adv-x="825" d="M536 -17q-78 76 -112 137q-26 -32 -63.5 -66t-85.5 -71h-9q-160 157 -160 305q0 75 -19 117.5t-61 61.5v38h140q30 -28 46.5 -74.5t18.5 -121.5q3 -146 105 -220q82 76 82 178q0 27 -8.5 54.5t-24 49.5t-37 36t-48.5 14q-17 0 -47 -8l-8 22q58 34 83 82h15q28 0 57.5 -12 t53.5 -34t39.5 -53t15.5 -69t-10 -69q29 -135 107 -191q82 76 82 178q0 27 -8 54.5t-23.5 49.5t-37 36t-48.5 14q-18 0 -48 -8l-7 22q28 16 49.5 36.5t34.5 45.5q4 0 7.5 0.5t8.5 0.5q33 0 62 -11t51 -32t34.5 -52.5t12.5 -72.5q0 -54 -11.5 -99t-38.5 -87.5t-71 -86 t-110 -94.5h-9z" />
<glyph unicode="x" horiz-adv-x="556" d="M34 14q116 45 183 220l-64 105q-32 59 -112 63l-8 18l78 95l138 -82l33 -72q95 125 172 154q8 -22 19.5 -46t27.5 -49q-114 -58 -175 -154l92 -154q29 -40 94 -41l11 -24l-91 -56l-141 76l-41 91q-68 -140 -206 -165z" />
<glyph unicode="y" horiz-adv-x="548" d="M243 9q-137 143 -137 279q0 75 -19 117.5t-61 61.5v38h140q32 -28 47.5 -74.5t17.5 -121.5q3 -146 105 -220q82 76 82 178q0 27 -8.5 54.5t-24 49.5t-37 36t-48.5 14q-17 0 -47 -8l-8 22q58 31 84 82q5 0 8.5 0.5t8.5 0.5q33 0 62 -11t50.5 -32t34.5 -52.5t13 -72.5 q0 -102 -49 -183t-132 -146q-38 -30 -63.5 -56.5t-41.5 -51t-22.5 -49.5t-6.5 -52h-121q21 72 62.5 122.5t110.5 74.5z" />
<glyph unicode="z" horiz-adv-x="514" d="M466 474l-260 -354h112q91 0 150 55l16 -20l-65 -156h-379v43l281 353h-118q-61 0 -141 -44l-13 13l31 145h386v-35z" />
<glyph unicode="{" horiz-adv-x="382" d="M320 -74q-4 -2 -12 -2q-41 0 -71 8.5t-50 28t-29.5 52t-9.5 79.5q0 15 1 31.5t1 30.5q0 178 -105 190v67q105 19 105 192q0 15 -1 31.5t-1 31.5q0 46 10 77t29.5 50t49 27t69.5 8q9 0 14 -2l-2 -31q-104 -12 -104 -156q0 -21 2 -45t2 -45q0 -130 -57 -170q57 -35 57 -166 q0 -19 -2 -43.5t-2 -46.5q0 -145 104 -166l2 -20v-11z" />
<glyph unicode="|" horiz-adv-x="221" d="M78 790h67v-977h-67v977z" />
<glyph unicode="}" horiz-adv-x="382" d="M45 827q4 2 12 2q79 0 119.5 -37.5t40.5 -131.5q0 -15 -1 -31.5t-1 -30.5q0 -177 105 -189v-67q-105 -21 -105 -193q0 -15 1 -31t1 -31q0 -163 -136 -163q-18 0 -36 3l2 31q102 10 102 154q0 21 -1.5 45t-1.5 43q0 133 58 173q-58 37 -58 168q0 20 1.5 44t1.5 45 q0 143 -102 166z" />
<glyph unicode="~" horiz-adv-x="760" d="M383 235h3v121h32v-187h-58l-8 120h-3v-120h-32v187h55zM535 594l11 -20v-54l-8 -14v-3l8 -14v-61l-11 -21h-78v187h78zM224 356h67l11 -20v-146l-12 -21h-66l-10 21v146zM329 594l11 -20v-49l-15 -19v-3l15 -21v-75h-41v82h-11v-82h-37v187h78zM568 322h-10v-33l35 -8 l12 -20v-71l-10 -21h-65l-10 21v42h38v-28h10v38l-37 9l-11 20v65l10 20h66l9 -20v-38h-37v24zM197 407v35h-13v-35h-37v68l23 119h40l26 -119v-68h-39zM404 407v35h-12v-35h-37v68l22 119h41l23 -119v-68h-37zM653 448h26v-41h-64v187h64v-40h-26v-34h26v-33h-26v-39z M175 169h-39v187h63v-40h-24v-37h24v-33h-24v-77zM429 316v40h80v-40h-21v-147h-39v147h-20zM132 407h-59v187h38v-146h21v-41zM562 407v187h38v-187h-38zM263 204v118h-11v-118h11zM197 470v19l-5 49h-2l-6 -49v-19h13zM404 470v19l-4 49h-3l-5 -49v-19h12zM496 442h11v47 h-11v-47zM507 520v40h-11v-40h11zM299 520v40h-11v-40h11z" />
<glyph unicode="&#xa1;" horiz-adv-x="269" d="M50 466l86 103l78 -92l-83 -95zM49 -189q20 138 35 274t26 286h46q8 -150 23 -286t35 -274h-165z" />
<glyph unicode="&#xa2;" horiz-adv-x="441" d="M225 110q-35 16 -67.5 40.5t-57 55.5t-39 68t-14.5 78q0 43 12 78.5t35 67t56 60.5t75 60v128h28v-113q80 -47 116 -105l-86 -77q-7 7 -14.5 13.5t-15.5 11.5v-237q17 -7 42 -7q42 0 86 25l19 -20q-20 -38 -55 -70.5t-92 -52.5v-114h-28v110zM150 521q-5 -26 -7.5 -50 t-2.5 -45q0 -69 25.5 -111.5t59.5 -62.5v241q-17 10 -36 17t-39 11z" />
<glyph unicode="&#xa3;" horiz-adv-x="637" d="M609 185q-27 -63 -54.5 -100t-58.5 -56t-67 -24.5t-80 -5.5q-36 0 -78.5 5t-81.5 5q-82 0 -149 -22l-22 38q93 33 157 388h-74v29h27q27 0 42.5 15t15.5 47q0 42 -45 45l4 18q178 142 350 182q13 -55 74 -67l-81 -89q-36 45 -112 45q-12 0 -24 -1t-26 -3q6 -24 6 -54 q0 -27 -5 -61t-15 -77h122l2 -29h-130q-39 -197 -108 -300q52 29 110 29q29 0 58.5 -8.5t58.5 -8.5q77 0 156 82z" />
<glyph unicode="&#xa5;" horiz-adv-x="558" d="M144 277q30 -6 87 -9v46q-112 130 -112 243t-80 151v38h140q60 -56 65 -180q3 -125 97 -200q48 42 68.5 80t20.5 76q0 22 -8 45.5t-23 43t-36 32.5t-48 13q-24 0 -49 -9l-8 22q28 16 49.5 36.5t34.5 45.5q5 0 8.5 0.5t8.5 0.5q32 0 61 -11.5t51 -31.5t35 -47.5t13 -58.5 q0 -78 -44 -146.5t-113 -131.5v-57h52q31 0 76 16l22 -7l-52 -78q-17 4 -31.5 6t-26.5 2h-40v-47h40q31 0 76 17l22 -8l-52 -78q-35 9 -58 9h-28v-100h-131v100h-53q-48 0 -76 -21l-20 5l50 85q40 -9 99 -9v47h-42q-48 0 -75 -21l-20 6z" />
<glyph unicode="&#xa6;" horiz-adv-x="173" d="M119 481h-68v309h68v-309zM51 133h68v-320h-68v320z" />
<glyph unicode="&#xa7;" horiz-adv-x="540" d="M173 423q-14 -36 -14 -57q0 -26 11.5 -44.5t30.5 -30t43.5 -16.5t50.5 -5q59 0 86 7q1 4 1 9v10q0 31 -13 55t-35 40t-51 24.5t-60 8.5h-29t-21 -1zM131 426q-79 64 -79 123q0 62 56 97q26 16 49.5 29t45.5 25t44.5 23t47.5 23q102 -50 171 -108q-50 -15 -107 -69 q-5 18 -19.5 33.5t-35 27t-45 18.5t-48.5 7q-20 0 -36 -4q-18 -38 -18 -67q0 -48 40.5 -73t106.5 -25q78 0 141 31q16 -38 25 -71t9 -63q0 -61 -45 -102q23 -28 36.5 -59.5t13.5 -65.5q0 -40 -24.5 -69t-61 -48.5t-77.5 -31.5t-74 -18q-38 12 -73 28t-62 31t-44.5 27 t-20.5 17q63 21 117 63q19 -31 38.5 -50.5t40.5 -31t44 -15.5t49 -4q12 0 24 1.5t24 3.5q1 7 1.5 13t0.5 12q0 29 -11.5 52t-32.5 39.5t-49.5 25t-62.5 8.5q-45 0 -75.5 -3.5t-51.5 -12.5q-52 74 -52 130q0 53 80 103z" />
<glyph unicode="&#xa8;" horiz-adv-x="349" d="M87 551l-64 68l72 76l63 -64zM255 551l-64 68l72 76l63 -64z" />
<glyph unicode="&#xaa;" horiz-adv-x="445" d="M256 403v110l-72 -28q-50 -23 -50 -58q0 -30 15 -45.5t33 -17.5zM256 573v19q-4 28 -35 51q-76 -55 -134 -61l-33 48q110 43 168 122q40 -45 138 -108v-221q0 -46 50 -46v-34l-53 -54l-92 64l-110 -72q-116 21 -116 115q0 73 71 120z" />
<glyph unicode="&#xab;" horiz-adv-x="474" d="M273 533v-42l-180 -180l180 -180v-84l-243 244zM431 533v-42l-180 -180l180 -180v-84l-243 244z" />
<glyph unicode="&#xaf;" horiz-adv-x="309" d="M50 628h226l-20 -53h-225z" />
<glyph unicode="&#xb0;" horiz-adv-x="465" d="M87 550q0 -29 11 -54.5t30 -44t44 -29.5t54 -11t54.5 11t44.5 29.5t30 44t11 54.5t-11 54.5t-30 45t-44.5 30.5t-54.5 11t-54 -11t-44 -30.5t-30 -45t-11 -54.5zM35 550q0 40 15 75.5t41.5 61.5t61.5 41.5t75 15.5t75 -15.5t61.5 -41.5t42 -61.5t15.5 -75.5t-15.5 -75 t-42 -61.5t-61.5 -41.5t-75 -15t-75 15t-61.5 41.5t-41.5 61.5t-15 75z" />
<glyph unicode="&#xb1;" horiz-adv-x="514" d="M86 518q33 -16 97 -16h30v114l85 52v-166h86q35 0 71 27l21 -12l-48 -129q-32 15 -55 15h-75v-170h-85v170h-84q-44 0 -72 -36l-18 9zM149 168q33 -16 97 -16h74q33 0 71 27l21 -12l-49 -129q-32 15 -55 15h-116q-44 0 -72 -36l-18 9z" />
<glyph unicode="&#xb2;" horiz-adv-x="484" d="M449 447q-3 -25 -11.5 -53t-24 -51.5t-40.5 -39t-61 -15.5q-20 0 -45.5 3t-51.5 6t-50 6t-39 3q-27 0 -58 -22l-32 29q29 75 64.5 139t78.5 124q20 -19 37 -30t44 -11q28 0 44 14t16 56q0 37 -19 74q-27 -1 -47.5 -8t-35.5 -17.5t-25.5 -24.5t-17.5 -29q-51 38 -108 56 q38 31 79.5 57.5t86.5 47.5q88 -38 134.5 -79.5t46.5 -99.5q0 -60 -49 -119q-27 18 -46 23t-37 5q-15 0 -30.5 -4t-31 -15t-31.5 -32t-32 -54q25 13 65 13q37 0 65.5 -6t49.5 -6q15 0 28 10t23 23t16.5 25.5t8.5 18.5z" />
<glyph unicode="&#xb3;" horiz-adv-x="492" d="M175 414q9 -61 105 -83q26 10 42 32.5t16 52.5q0 34 -25 57t-93 29v56q22 7 38 14.5t25.5 17.5t14 24t4.5 34q0 32 -12.5 44t-46.5 12q-22 0 -37.5 -13.5t-28.5 -46.5l-104 10v36q32 11 56.5 22.5t40.5 23.5q26 20 79 20q45 0 76 -7.5t49.5 -20.5t27 -29.5t8.5 -34.5 q0 -24 -17 -48.5t-52 -44.5q19 -4 36 -14t30.5 -25.5t21.5 -36.5t8 -46q0 -60 -38.5 -106t-124.5 -64q-161 17 -210 115z" />
<glyph unicode="&#xb4;" horiz-adv-x="280" d="M251 622l-181 -78l-27 25l154 114z" />
<glyph unicode="&#xb6;" horiz-adv-x="579" d="M301 0h-144v41q79 0 79 69v483q0 46 -18 46q-8 0 -27 -17q-49 -43 -80 -43q-35 0 -58.5 23.5t-23.5 58.5q0 17 5.5 32t18 26.5t33.5 18t53 6.5h397v-42q-79 0 -79 -78v-503q0 -75 78 -81v-40h-143v637h-91v-637z" />
<glyph unicode="&#xb7;" horiz-adv-x="241" d="M122 192l-77 91l87 96l77 -84z" />
<glyph unicode="&#xb8;" horiz-adv-x="207" d="M133 -150q4 15 4 36q0 34 -18.5 49.5t-63.5 17.5q0 36 24 57h24q-10 -10 -10 -25v-4h9q34 0 54.5 -21t20.5 -50q0 -16 -8.5 -32.5t-21.5 -31t-28 -25t-28 -14.5q-37 10 -51 40l36 28q19 -23 57 -25z" />
<glyph unicode="&#xb9;" horiz-adv-x="259" d="M90 294v347q0 23 -31 26v24l129 67v-464h-98z" />
<glyph unicode="&#xba;" horiz-adv-x="436" d="M123 632q-10 -30 -10 -68q0 -33 16 -67t40.5 -61.5t53 -45.5t53.5 -18q23 0 41 6q3 8 6 27t3 44q0 34 -10.5 70t-29 65t-45 47.5t-58.5 18.5q-24 0 -60 -18zM235 759q81 -51 121 -112t40 -145q0 -42 -14.5 -77.5t-39.5 -63.5t-58.5 -47t-71.5 -27q-20 8 -49 25.5 t-56 43.5t-46 61t-19 79q0 58 14 93t36 61q23 27 56 54t87 55z" />
<glyph unicode="&#xbb;" horiz-adv-x="474" d="M198 47v43l179 180l-179 179v84l242 -244zM40 47v43l179 180l-179 179v84l242 -244z" />
<glyph unicode="&#xbc;" horiz-adv-x="985" d="M132 641q0 23 -30 26v24l128 67v-464h-98v347zM506 199q51 42 72.5 94t21.5 124q73 -19 92 -88q-66 -57 -73 -115l101 4v120q-1 25 -8 46t-24 38l188 110q-52 -92 -52 -131v-179l96 4q-45 -34 -68.5 -53.5t-27.5 -21.5q-6 -136 -129 -205v35q12 15 18.5 40t6.5 64v68 h-201zM228 0h-71l487 768h64z" />
<glyph unicode="&#xbd;" horiz-adv-x="871" d="M63 641q0 23 -30 26v24l128 67v-464h-98v347zM811 141q-3 -25 -11.5 -53t-24.5 -51.5t-41 -39t-60 -15.5q-20 0 -46 2t-51.5 5t-48 6t-35.5 5h-5q-29 0 -58 -22q0 54 6.5 93.5t25.5 73.5q18 33 37.5 64t40.5 61q19 -19 38 -30t45 -11q29 0 43.5 16.5t14.5 53.5t-18 73 q-56 -2 -84.5 -24.5t-42.5 -53.5q-51 39 -107 56q37 31 78.5 57.5t87.5 47.5q91 -38 135.5 -80t44.5 -99q0 -59 -48 -119q-28 18 -46.5 23t-36.5 5q-15 0 -30.5 -4t-31.5 -15t-31.5 -32t-31.5 -54q25 13 65 13q36 0 65 -6t49 -6q16 0 29 10.5t23 23.5t16 25.5t8 17.5zM153 0 h-71l487 768h64z" />
<glyph unicode="&#xbe;" horiz-adv-x="1004" d="M158 414q9 -61 106 -83q26 10 41.5 33t15.5 53q0 34 -25 56.5t-93 28.5v56q22 7 38 14.5t25.5 17.5t14 24t4.5 34q0 32 -12.5 44t-46.5 12q-22 0 -37.5 -13.5t-28.5 -46.5l-104 10v36q34 11 54.5 23t38 21.5t35.5 15.5t48 6q45 0 75.5 -7.5t49 -20t27 -29t8.5 -34.5 q0 -55 -68 -94q19 -4 36 -14t30.5 -25.5t21.5 -36.5t8 -46q0 -60 -38.5 -106t-124.5 -64q-161 15 -210 115zM537 183q51 42 72.5 94t21.5 124q74 -20 93 -88q-66 -56 -73 -114l101 3v120q0 26 -7.5 46.5t-24.5 37.5l188 111q-53 -95 -53 -132v-179l96 4q-45 -34 -68.5 -53.5 t-27.5 -21.5q-6 -136 -128 -205v35q12 15 18.5 40.5t6.5 63.5v68h-202zM308 0h-71l487 768h64z" />
<glyph unicode="&#xbf;" horiz-adv-x="590" d="M200 -65q25 -5 45 -5q30 0 57.5 8.5t50 23t40 34.5t28.5 44q68 -56 139 -75q-51 -45 -111.5 -84.5t-135.5 -73.5q-75 36 -128.5 68.5t-88 66.5t-50.5 72t-16 86q0 87 68 179q87 -35 134 -35q36 0 56 16t20 42q0 23 -15 58h105q49 -58 49 -112q0 -51 -43 -100 q-55 52 -141 52q-51 0 -79.5 -30.5t-28.5 -96.5q0 -68 45 -138zM350 583l77 -91l-88 -96l-76 84z" />
<glyph unicode="&#xc0;" horiz-adv-x="750" d="M293 699q0 -182 -23 -268h204l-21 191q0 42 -19 59.5t-61 17.5h-80zM-17 120q10 -6 21 -6q23 0 59.5 34t72.5 105.5t65 182t37 263.5h-196l10 47h579v-44q-41 0 -42 -82l50 -464q12 -113 72 -113v-43h-388v41q181 1 181 95q0 3 -0.5 6t-0.5 7l-17 158h-238 q-51 -186 -162 -319q-28 26 -58.5 53.5t-64.5 57.5zM285 976l153 -114l-27 -25l-180 78z" />
<glyph unicode="&#xc1;" horiz-adv-x="750" d="M293 699q0 -182 -23 -268h204l-21 191q0 42 -19 59.5t-61 17.5h-80zM-17 120q10 -6 21 -6q23 0 59.5 34t72.5 105.5t65 182t37 263.5h-196l10 47h579v-44q-41 0 -42 -82l50 -464q12 -113 72 -113v-43h-388v41q181 1 181 95q0 3 -0.5 6t-0.5 7l-17 158h-238 q-51 -186 -162 -319q-28 26 -58.5 53.5t-64.5 57.5zM518 915l-181 -78l-27 25l154 114z" />
<glyph unicode="&#xc2;" horiz-adv-x="750" d="M293 699q0 -182 -23 -268h204l-21 191q0 42 -19 59.5t-61 17.5h-80zM-17 120q10 -6 21 -6q23 0 59.5 34t72.5 105.5t65 182t37 263.5h-196l10 47h579v-44q-41 0 -42 -82l50 -464q12 -113 72 -113v-43h-388v41q181 1 181 95q0 3 -0.5 6t-0.5 7l-17 158h-238 q-51 -186 -162 -319q-28 26 -58.5 53.5t-64.5 57.5zM350 976h52l108 -139h-60l-73 109l-70 -109h-68z" />
<glyph unicode="&#xc3;" horiz-adv-x="750" d="M293 699q0 -182 -23 -268h204l-21 191q0 42 -19 59.5t-61 17.5h-80zM-17 120q10 -6 21 -6q23 0 59.5 34t72.5 105.5t65 182t37 263.5h-196l10 47h579v-44q-41 0 -42 -82l50 -464q12 -113 72 -113v-43h-388v41q181 1 181 95q0 3 -0.5 6t-0.5 7l-17 158h-238 q-51 -186 -162 -319q-28 26 -58.5 53.5t-64.5 57.5zM215 908q36 81 98 84q20 -2 42 -10.5t43 -27.5q13 -11 22.5 -18t18.5 -6q30 0 42 65l52 -17q-29 -87 -107 -87q-15 0 -34 10.5t-48 35.5q-20 15 -34 15q-32 0 -55 -59z" />
<glyph unicode="&#xc4;" horiz-adv-x="750" d="M293 699q0 -182 -23 -268h204l-21 191q0 42 -19 59.5t-61 17.5h-80zM-17 120q10 -6 21 -6q23 0 59.5 34t72.5 105.5t65 182t37 263.5h-196l10 47h579v-44q-41 0 -42 -82l50 -464q12 -113 72 -113v-43h-388v41q181 1 181 95q0 3 -0.5 6t-0.5 7l-17 158h-238 q-51 -186 -162 -319q-28 26 -58.5 53.5t-64.5 57.5zM287 844l-64 68l72 76l63 -64zM455 844l-64 68l72 76l63 -64z" />
<glyph unicode="&#xc5;" horiz-adv-x="750" d="M293 699q0 -182 -23 -268h204l-21 191q0 42 -19 59.5t-61 17.5h-80zM-17 120q10 -6 21 -6q23 0 59.5 34t72.5 105.5t65 182t37 263.5h-196l10 47h579v-44q-41 0 -42 -82l50 -464q12 -113 72 -113v-43h-388v41q181 1 181 95q0 3 -0.5 6t-0.5 7l-17 158h-238 q-51 -186 -162 -319q-28 26 -58.5 53.5t-64.5 57.5zM323 909q0 -21 14.5 -35.5t36.5 -14.5q21 0 35.5 14.5t14.5 35.5q0 22 -14.5 36.5t-35.5 14.5q-22 0 -36.5 -14.5t-14.5 -36.5zM283 909q0 19 7 36t19 29.5t28.5 20t36.5 7.5q18 0 35 -7.5t30 -20t20.5 -29.5t7.5 -36 t-7.5 -35.5t-20.5 -29t-30 -19.5t-35 -7q-39 0 -65 26.5t-26 64.5z" />
<glyph unicode="&#xc6;" horiz-adv-x="1225" d="M1180 213q-33 -45 -68.5 -85.5t-77.5 -71.5t-93 -50t-115 -20q-67 0 -124 24.5t-101 67t-73 100.5t-40 125l-2 4h-238q-51 -186 -162 -319q-28 26 -58.5 53.5t-64.5 57.5l20 21q10 -6 21 -6q23 0 59.5 34t72.5 105.5t65 182t37 263.5h-196l10 47h579v-44q-38 0 -42 -70 q34 34 65.5 57.5t65.5 37.5t72 20.5t85 6.5q83 0 144 -27.5t116 -80.5l-131 -110l-23 30q1 4 1.5 7t0.5 7q0 16 -9 31.5t-26 28.5t-41.5 21t-55.5 8q-49 0 -90 -19t-71 -53.5t-46.5 -83.5t-16.5 -109l496 58l-95 -181h-18q-4 48 -63 50l-313 10q10 -62 35 -108.5t58.5 -77.5 t73 -46.5t78.5 -15.5q54 0 96 15t74 38t55.5 50t41.5 52zM293 699q0 -182 -23 -268h204l-21 191q0 42 -19 59.5t-61 17.5h-80z" />
<glyph unicode="&#xc7;" horiz-adv-x="795" d="M446 -150q4 15 4 36q0 34 -18.5 49.5t-63.5 17.5q0 19 6 34q-39 2 -79 16.5t-82 40.5q-38 23 -67.5 58.5t-49.5 78.5t-30.5 91t-10.5 98q0 80 30.5 150t83.5 122t124.5 82t154.5 30t144 -27.5t116 -80.5l-130 -110l-24 30q1 4 1.5 7t0.5 7q0 16 -9 31.5t-26 28.5t-41 21 t-55 8q-47 0 -88 -18t-71 -51.5t-47.5 -81t-17.5 -105.5q0 -77 22.5 -136.5t58 -100.5t80.5 -62t90 -21q60 0 101.5 15t71.5 38.5t51.5 50.5t42.5 51l33 -35q-34 -44 -69 -84t-76 -71t-90 -50t-111 -21v-6h9q34 0 54.5 -21t20.5 -50q0 -16 -8.5 -32.5t-21.5 -31t-28 -25 t-28 -14.5q-38 11 -50 40l35 28q19 -23 57 -25z" />
<glyph unicode="&#xc8;" horiz-adv-x="775" d="M731 213q-34 -45 -70 -86.5t-78.5 -72.5t-94 -49.5t-116.5 -18.5q-45 0 -89 15t-90 43q-39 23 -68.5 58.5t-49.5 78t-30 91t-10 98.5q0 81 28.5 148t73.5 112q35 35 67 58.5t66 38t72.5 21t85.5 6.5q81 0 143 -27t116 -81l-130 -110l-24 30q1 4 1.5 7t0.5 7 q0 16 -8.5 31.5t-25.5 28.5t-41.5 21t-55.5 8q-49 0 -90 -19t-71 -53.5t-46.5 -83.5t-16.5 -109l496 58l-95 -181h-18q-4 48 -63 50l-313 10q10 -62 35 -108.5t58.5 -77.5t73 -46.5t78.5 -15.5q55 0 96.5 15t73 38t55 50t41.5 52zM298 976l153 -114l-27 -25l-180 78z" />
<glyph unicode="&#xc9;" horiz-adv-x="775" d="M731 213q-34 -45 -70 -86.5t-78.5 -72.5t-94 -49.5t-116.5 -18.5q-45 0 -89 15t-90 43q-39 23 -68.5 58.5t-49.5 78t-30 91t-10 98.5q0 81 28.5 148t73.5 112q35 35 67 58.5t66 38t72.5 21t85.5 6.5q81 0 143 -27t116 -81l-130 -110l-24 30q1 4 1.5 7t0.5 7 q0 16 -8.5 31.5t-25.5 28.5t-41.5 21t-55.5 8q-49 0 -90 -19t-71 -53.5t-46.5 -83.5t-16.5 -109l496 58l-95 -181h-18q-4 48 -63 50l-313 10q10 -62 35 -108.5t58.5 -77.5t73 -46.5t78.5 -15.5q55 0 96.5 15t73 38t55 50t41.5 52zM531 915l-181 -78l-27 25l154 114z" />
<glyph unicode="&#xca;" horiz-adv-x="775" d="M731 213q-34 -45 -70 -86.5t-78.5 -72.5t-94 -49.5t-116.5 -18.5q-45 0 -89 15t-90 43q-39 23 -68.5 58.5t-49.5 78t-30 91t-10 98.5q0 81 28.5 148t73.5 112q35 35 67 58.5t66 38t72.5 21t85.5 6.5q81 0 143 -27t116 -81l-130 -110l-24 30q1 4 1.5 7t0.5 7 q0 16 -8.5 31.5t-25.5 28.5t-41.5 21t-55.5 8q-49 0 -90 -19t-71 -53.5t-46.5 -83.5t-16.5 -109l496 58l-95 -181h-18q-4 48 -63 50l-313 10q10 -62 35 -108.5t58.5 -77.5t73 -46.5t78.5 -15.5q55 0 96.5 15t73 38t55 50t41.5 52zM363 976h52l108 -139h-60l-73 109l-70 -109 h-68z" />
<glyph unicode="&#xcb;" horiz-adv-x="775" d="M731 213q-34 -45 -70 -86.5t-78.5 -72.5t-94 -49.5t-116.5 -18.5q-45 0 -89 15t-90 43q-39 23 -68.5 58.5t-49.5 78t-30 91t-10 98.5q0 81 28.5 148t73.5 112q35 35 67 58.5t66 38t72.5 21t85.5 6.5q81 0 143 -27t116 -81l-130 -110l-24 30q1 4 1.5 7t0.5 7 q0 16 -8.5 31.5t-25.5 28.5t-41.5 21t-55.5 8q-49 0 -90 -19t-71 -53.5t-46.5 -83.5t-16.5 -109l496 58l-95 -181h-18q-4 48 -63 50l-313 10q10 -62 35 -108.5t58.5 -77.5t73 -46.5t78.5 -15.5q55 0 96.5 15t73 38t55 50t41.5 52zM300 844l-64 68l72 76l63 -64zM468 844 l-64 68l72 76l63 -64z" />
<glyph unicode="&#xcc;" horiz-adv-x="535" d="M185 625q0 73 -132 91q-63 0 -63 45q0 39 60 39q57 0 72 -54h316v-42q-109 0 -109 -67v-516q0 -74 131 -91q63 0 63 -46q0 -38 -60 -38q-56 0 -72 54h-315v41q109 0 109 69v515zM179 976l153 -114l-27 -25l-180 78z" />
<glyph unicode="&#xcd;" horiz-adv-x="535" d="M185 625q0 73 -132 91q-63 0 -63 45q0 39 60 39q57 0 72 -54h316v-42q-109 0 -109 -67v-516q0 -74 131 -91q63 0 63 -46q0 -38 -60 -38q-56 0 -72 54h-315v41q109 0 109 69v515zM411 915l-181 -78l-27 25l154 114z" />
<glyph unicode="&#xce;" horiz-adv-x="535" d="M185 625q0 73 -132 91q-63 0 -63 45q0 39 60 39q57 0 72 -54h316v-42q-109 0 -109 -67v-516q0 -74 131 -91q63 0 63 -46q0 -38 -60 -38q-56 0 -72 54h-315v41q109 0 109 69v515zM243 976h52l108 -139h-60l-73 109l-70 -109h-68z" />
<glyph unicode="&#xcf;" horiz-adv-x="535" d="M185 625q0 73 -132 91q-63 0 -63 45q0 39 60 39q57 0 72 -54h316v-42q-109 0 -109 -67v-516q0 -74 131 -91q63 0 63 -46q0 -38 -60 -38q-56 0 -72 54h-315v41q109 0 109 69v515zM180 844l-64 68l72 76l63 -64zM348 844l-64 68l72 76l63 -64z" />
<glyph unicode="&#xd0;" horiz-adv-x="809" d="M86 398q9 -3 20 -4.5t22 -3.5v121q0 66 -75 134l19 34q66 0 141.5 21.5t169.5 69.5q151 -34 259 -162t122 -228q-45 -142 -140 -242.5t-254 -152.5q-20 6 -44.5 12t-50 10.5t-49.5 7.5t-42 3q-29 0 -52 -8.5t-46 -25.5l-29 38q71 66 71 154v134q-45 -3 -76 -28l-22 7z M274 386h15q44 0 85 22l25 -10l-57 -100q-38 12 -66 12h-2v-111q0 -123 92 -123q62 0 127 64q85 83 85 261q0 79 -21.5 134.5t-52 90.5t-63.5 51t-56 16q-48 0 -78 -27.5t-33 -81.5v-198z" />
<glyph unicode="&#xd1;" horiz-adv-x="776" d="M102 619q0 63 -67 75v30l176 38l387 -478v372q0 50 -68 50v40h210v-40q-35 -1 -50 -10.5t-15 -28.5v-667h-77v49l-415 520v-451q0 -143 -124 -304l-21 13q64 141 64 280v512zM229 908q36 81 98 84q20 -2 42 -10.5t43 -27.5q13 -11 22.5 -18t18.5 -6q30 0 42 65l52 -17 q-29 -87 -107 -87q-15 0 -34 10.5t-48 35.5q-20 15 -34 15q-32 0 -55 -59z" />
<glyph unicode="&#xd2;" horiz-adv-x="760" d="M188 569q-40 -65 -40 -125q0 -49 16.5 -93t44.5 -82t64.5 -68.5t76 -52.5t80 -33.5t75.5 -11.5q49 0 87 24q15 30 24 67.5t9 85.5q0 57 -17 107.5t-52 95.5q-21 26 -46 49.5t-54 41.5t-62.5 28.5t-70.5 10.5q-61 0 -135 -44zM407 764q87 -46 145.5 -96t94 -104t51 -112.5 t15.5 -120.5t-27.5 -119t-74.5 -102.5t-108.5 -77t-128.5 -43.5q-63 23 -121 58.5t-102.5 82t-71.5 102.5t-27 119q0 69 22 124t66 103t111 92.5t156 93.5zM291 976l153 -114l-27 -25l-180 78z" />
<glyph unicode="&#xd3;" horiz-adv-x="760" d="M188 569q-40 -65 -40 -125q0 -49 16.5 -93t44.5 -82t64.5 -68.5t76 -52.5t80 -33.5t75.5 -11.5q49 0 87 24q15 30 24 67.5t9 85.5q0 57 -17 107.5t-52 95.5q-21 26 -46 49.5t-54 41.5t-62.5 28.5t-70.5 10.5q-61 0 -135 -44zM407 764q87 -46 145.5 -96t94 -104t51 -112.5 t15.5 -120.5t-27.5 -119t-74.5 -102.5t-108.5 -77t-128.5 -43.5q-63 23 -121 58.5t-102.5 82t-71.5 102.5t-27 119q0 69 22 124t66 103t111 92.5t156 93.5zM524 915l-181 -78l-27 25l154 114z" />
<glyph unicode="&#xd4;" horiz-adv-x="760" d="M188 569q-40 -65 -40 -125q0 -49 16.5 -93t44.5 -82t64.5 -68.5t76 -52.5t80 -33.5t75.5 -11.5q49 0 87 24q15 30 24 67.5t9 85.5q0 57 -17 107.5t-52 95.5q-21 26 -46 49.5t-54 41.5t-62.5 28.5t-70.5 10.5q-61 0 -135 -44zM407 764q87 -46 145.5 -96t94 -104t51 -112.5 t15.5 -120.5t-27.5 -119t-74.5 -102.5t-108.5 -77t-128.5 -43.5q-63 23 -121 58.5t-102.5 82t-71.5 102.5t-27 119q0 69 22 124t66 103t111 92.5t156 93.5zM355 976h52l108 -139h-60l-73 109l-70 -109h-68z" />
<glyph unicode="&#xd5;" horiz-adv-x="760" d="M188 569q-40 -65 -40 -125q0 -49 16.5 -93t44.5 -82t64.5 -68.5t76 -52.5t80 -33.5t75.5 -11.5q49 0 87 24q15 30 24 67.5t9 85.5q0 57 -17 107.5t-52 95.5q-21 26 -46 49.5t-54 41.5t-62.5 28.5t-70.5 10.5q-61 0 -135 -44zM407 764q87 -46 145.5 -96t94 -104t51 -112.5 t15.5 -120.5t-27.5 -119t-74.5 -102.5t-108.5 -77t-128.5 -43.5q-63 23 -121 58.5t-102.5 82t-71.5 102.5t-27 119q0 69 22 124t66 103t111 92.5t156 93.5zM221 908q36 81 98 84q20 -2 42 -10.5t43 -27.5q13 -11 22.5 -18t18.5 -6q30 0 42 65l52 -17q-29 -87 -107 -87 q-15 0 -34 10.5t-48 35.5q-20 15 -34 15q-32 0 -55 -59z" />
<glyph unicode="&#xd6;" horiz-adv-x="760" d="M188 569q-40 -65 -40 -125q0 -49 16.5 -93t44.5 -82t64.5 -68.5t76 -52.5t80 -33.5t75.5 -11.5q49 0 87 24q15 30 24 67.5t9 85.5q0 57 -17 107.5t-52 95.5q-21 26 -46 49.5t-54 41.5t-62.5 28.5t-70.5 10.5q-61 0 -135 -44zM407 764q87 -46 145.5 -96t94 -104t51 -112.5 t15.5 -120.5t-27.5 -119t-74.5 -102.5t-108.5 -77t-128.5 -43.5q-63 23 -121 58.5t-102.5 82t-71.5 102.5t-27 119q0 69 22 124t66 103t111 92.5t156 93.5zM292 844l-64 68l72 76l63 -64zM460 844l-64 68l72 76l63 -64z" />
<glyph unicode="&#xd7;" horiz-adv-x="477" d="M171 453q8 -19 22 -39t35 -40l22 -21l81 81l96 -24l-118 -118l61 -60q11 -11 28.5 -20t41.5 -12l5 -23l-124 -57q-12 33 -29 50l-52 52l-120 -119l-61 60l121 119l-60 61q-28 25 -62 25h-6.5t-7.5 -1l-6 20z" />
<glyph unicode="&#xd8;" horiz-adv-x="763" d="M642 738l-61 -96q73 -72 102.5 -148t29.5 -163q0 -62 -27.5 -119t-74.5 -102.5t-108.5 -77t-128.5 -43.5q-38 14 -75 32.5t-71 42.5l-44 -74l-41 29l46 75q-63 51 -100 115t-37 142q0 69 22 124t66 103t111 92.5t156 93.5q39 -20 73 -42t61 -44l54 88zM629 278 q0 75 -28 137.5t-85 119.5l-220 -359q51 -38 105.5 -59.5t105.5 -21.5q24 0 46.5 6t41.5 19q34 61 34 158zM185 576q-41 -71 -41 -129q0 -75 31.5 -132.5t82.5 -105.5l217 360q-34 23 -71 37.5t-82 14.5q-61 0 -137 -45z" />
<glyph unicode="&#xd9;" horiz-adv-x="773" d="M524 647q0 33 -20.5 48t-48.5 15v36h274v-36q-63 -3 -63 -74v-464q0 -63 66 -78l-1 -28l-110 -81q-15 6 -31.5 16.5t-30 25.5t-22.5 33.5t-11 38.5q-24 -51 -69 -77.5t-120 -26.5q-39 0 -86.5 19t-89 59t-70 102t-28.5 148q0 104 35 194.5t94 179.5h-122v49h319v-41 q-52 -14 -86.5 -45.5t-55.5 -74.5t-29.5 -93.5t-8.5 -101.5q0 -59 15 -109.5t41 -87.5t62.5 -57.5t79.5 -20.5q28 0 50 10t37 27t22.5 40t7.5 50v405zM297 976l153 -114l-27 -25l-180 78z" />
<glyph unicode="&#xda;" horiz-adv-x="773" d="M524 647q0 33 -20.5 48t-48.5 15v36h274v-36q-63 -3 -63 -74v-464q0 -63 66 -78l-1 -28l-110 -81q-15 6 -31.5 16.5t-30 25.5t-22.5 33.5t-11 38.5q-24 -51 -69 -77.5t-120 -26.5q-39 0 -86.5 19t-89 59t-70 102t-28.5 148q0 104 35 194.5t94 179.5h-122v49h319v-41 q-52 -14 -86.5 -45.5t-55.5 -74.5t-29.5 -93.5t-8.5 -101.5q0 -59 15 -109.5t41 -87.5t62.5 -57.5t79.5 -20.5q28 0 50 10t37 27t22.5 40t7.5 50v405zM530 915l-181 -78l-27 25l154 114z" />
<glyph unicode="&#xdb;" horiz-adv-x="773" d="M524 647q0 33 -20.5 48t-48.5 15v36h274v-36q-63 -3 -63 -74v-464q0 -63 66 -78l-1 -28l-110 -81q-15 6 -31.5 16.5t-30 25.5t-22.5 33.5t-11 38.5q-24 -51 -69 -77.5t-120 -26.5q-39 0 -86.5 19t-89 59t-70 102t-28.5 148q0 104 35 194.5t94 179.5h-122v49h319v-41 q-52 -14 -86.5 -45.5t-55.5 -74.5t-29.5 -93.5t-8.5 -101.5q0 -59 15 -109.5t41 -87.5t62.5 -57.5t79.5 -20.5q28 0 50 10t37 27t22.5 40t7.5 50v405zM362 976h52l108 -139h-60l-73 109l-70 -109h-68z" />
<glyph unicode="&#xdc;" horiz-adv-x="773" d="M524 647q0 33 -20.5 48t-48.5 15v36h274v-36q-63 -3 -63 -74v-464q0 -63 66 -78l-1 -28l-110 -81q-15 6 -31.5 16.5t-30 25.5t-22.5 33.5t-11 38.5q-24 -51 -69 -77.5t-120 -26.5q-39 0 -86.5 19t-89 59t-70 102t-28.5 148q0 104 35 194.5t94 179.5h-122v49h319v-41 q-52 -14 -86.5 -45.5t-55.5 -74.5t-29.5 -93.5t-8.5 -101.5q0 -59 15 -109.5t41 -87.5t62.5 -57.5t79.5 -20.5q28 0 50 10t37 27t22.5 40t7.5 50v405zM299 844l-64 68l72 76l63 -64zM467 844l-64 68l72 76l63 -64z" />
<glyph unicode="&#xdd;" horiz-adv-x="758" d="M186 746q45 -40 69.5 -113t29.5 -176q10 -201 168 -347q80 68 116 136t36 145q0 43 -13 83.5t-37.5 72t-60 51t-80.5 19.5q-37 0 -70 -10l-4 20q85 50 119 119q5 0 11 0.5t11 0.5q47 0 89 -15t73.5 -45t50 -74.5t18.5 -103.5q0 -74 -17 -137.5t-52 -122.5t-89 -115.5 t-128 -115.5q-10 -13 -10 -32q0 -26 14.5 -38t48.5 -12q50 0 132 67l28 -17q-42 -75 -100 -118t-130 -43q-24 0 -43.5 9.5t-33 24.5t-21 33t-7.5 35q0 42 41 80q-206 215 -206 412q0 105 -28 180t-85 117v30h160zM522 915l-181 -78l-27 25l154 114z" />
<glyph unicode="&#xde;" horiz-adv-x="703" d="M459 633q58 -33 97.5 -68t64 -72t35 -77t10.5 -82t-18.5 -80t-49.5 -69t-72.5 -52t-87.5 -29q-79 29 -134 78v-61q0 -75 132 -91q63 0 63 -46q0 -38 -60 -38q-57 0 -73 54h-315v41q109 0 109 69v513q0 73 -131 91q-64 0 -64 46q0 38 61 38q55 0 72 -54h315v-42 q-109 0 -109 -67v-112q61 53 155 110zM321 490q-13 -29 -13 -64q0 -46 22.5 -86.5t56.5 -70.5t74.5 -47.5t75.5 -17.5q19 0 41 8q14 34 14 64q0 40 -19 80t-50 71t-71 50.5t-83 19.5q-11 0 -23.5 -1.5t-24.5 -5.5z" />
<glyph unicode="&#xdf;" horiz-adv-x="654" d="M415 579q-33 5 -63 22t-48 35q-4 0 -19 -1.5t-32 -4t-32.5 -5.5t-21.5 -7q8 -17 13.5 -38.5t5.5 -48.5v-531h-131v420h-61v18q55 31 55 64q0 44 -55 47v18q36 35 80.5 65t89.5 53.5t86.5 40.5t73.5 27q5 -14 25 -25.5t46 -20.5t52.5 -15.5t43.5 -10.5q22 -32 22 -71 q0 -26 -10.5 -51t-28.5 -46t-42 -37.5t-52 -26.5q41 -4 78 -20t64.5 -41.5t43.5 -60.5t16 -77q0 -53 -16 -96t-50.5 -75t-89.5 -52.5t-133 -27.5v48q69 5 107 45t38 106q0 64 -44 106t-149 54v67q35 12 61 32t43 42.5t25.5 44t8.5 35.5z" />
<glyph unicode="&#xe0;" horiz-adv-x="526" d="M247 238q-64 -43 -64 -98q0 -52 62 -60l62 26v159zM307 339q-8 45 -49 63q-66 -42 -165 -60l-25 36q124 49 189 137q45 -37 89.5 -67t92.5 -53v-259q0 -65 61 -65v-24l-91 -56l-101 75l-138 -87q-115 24 -115 136q0 73 66 121l186 71v32zM174 683l153 -114l-27 -25 l-180 78z" />
<glyph unicode="&#xe1;" horiz-adv-x="526" d="M247 238q-64 -43 -64 -98q0 -52 62 -60l62 26v159zM307 339q-8 45 -49 63q-66 -42 -165 -60l-25 36q124 49 189 137q45 -37 89.5 -67t92.5 -53v-259q0 -65 61 -65v-24l-91 -56l-101 75l-138 -87q-115 24 -115 136q0 73 66 121l186 71v32zM406 622l-181 -78l-27 25 l154 114z" />
<glyph unicode="&#xe2;" horiz-adv-x="526" d="M247 238q-64 -43 -64 -98q0 -52 62 -60l62 26v159zM307 339q-8 45 -49 63q-66 -42 -165 -60l-25 36q124 49 189 137q45 -37 89.5 -67t92.5 -53v-259q0 -65 61 -65v-24l-91 -56l-101 75l-138 -87q-115 24 -115 136q0 73 66 121l186 71v32zM239 683h52l108 -139h-60 l-73 109l-70 -109h-68z" />
<glyph unicode="&#xe3;" horiz-adv-x="526" d="M247 238q-64 -43 -64 -98q0 -52 62 -60l62 26v159zM307 339q-8 45 -49 63q-66 -42 -165 -60l-25 36q124 49 189 137q45 -37 89.5 -67t92.5 -53v-259q0 -65 61 -65v-24l-91 -56l-101 75l-138 -87q-115 24 -115 136q0 73 66 121l186 71v32zM104 615q36 81 98 84 q20 -2 42 -10.5t43 -27.5q13 -11 22.5 -18t18.5 -6q30 0 42 65l52 -17q-29 -87 -107 -87q-15 0 -34 10.5t-48 35.5q-20 15 -34 15q-32 0 -55 -59z" />
<glyph unicode="&#xe4;" horiz-adv-x="526" d="M247 238q-64 -43 -64 -98q0 -52 62 -60l62 26v159zM307 339q-8 45 -49 63q-66 -42 -165 -60l-25 36q124 49 189 137q45 -37 89.5 -67t92.5 -53v-259q0 -65 61 -65v-24l-91 -56l-101 75l-138 -87q-115 24 -115 136q0 73 66 121l186 71v32zM176 551l-64 68l72 76l63 -64z M344 551l-64 68l72 76l63 -64z" />
<glyph unicode="&#xe5;" horiz-adv-x="526" d="M247 238q-64 -43 -64 -98q0 -52 62 -60l62 26v159zM307 339q-8 45 -49 63q-66 -42 -165 -60l-25 36q124 49 189 137q45 -37 89.5 -67t92.5 -53v-259q0 -65 61 -65v-24l-91 -56l-101 75l-138 -87q-115 24 -115 136q0 73 66 121l186 71v32zM211 626q0 -21 14.5 -35.5 t36.5 -14.5q21 0 35.5 14.5t14.5 35.5q0 22 -14.5 36.5t-35.5 14.5q-22 0 -36.5 -14.5t-14.5 -36.5zM171 626q0 19 7 36t19 29.5t28.5 20t36.5 7.5q18 0 35 -7.5t30 -20t20.5 -29.5t7.5 -36t-7.5 -35.5t-20.5 -29t-30 -19.5t-35 -7q-39 0 -65 26.5t-26 64.5z" />
<glyph unicode="&#xe6;" horiz-adv-x="705" d="M430 164q29 -33 61 -47.5t69 -14.5q47 0 90 22l13 -6q-67 -114 -169 -131q-42 18 -78.5 46.5t-61.5 66.5l-184 -121q-115 24 -115 136q0 73 66 121l186 71v32q-8 45 -49 63q-66 -42 -165 -60l-25 36q124 49 189 137q33 -28 67.5 -52t68.5 -44q24 23 53.5 47t65.5 51 q80 -49 136 -135zM183 140q0 -52 62 -60l93 44q-28 49 -28 108q0 10 0.5 19.5t1.5 19.5l-65 -33q-64 -43 -64 -98zM417 399q-27 -68 -27 -122q0 -40 17 -80l115 115q-20 79 -105 87z" />
<glyph unicode="&#xe7;" horiz-adv-x="430" d="M269 -150q4 15 4 36q0 34 -18.5 49.5t-63.5 17.5q0 25 11 44q-33 17 -62.5 41t-52 54t-35.5 65.5t-13 74.5q0 48 13.5 85t39 69.5t63 63.5t85.5 67q84 -50 120 -108l-85 -77q-55 51 -134 70q-5 -27 -7.5 -50.5t-2.5 -45.5q0 -51 15 -88t37.5 -60t50 -34t52.5 -11 q41 0 86 24l19 -19q-22 -42 -61 -75.5t-102 -53.5v-8h9q35 0 55 -21t20 -50q0 -16 -8.5 -32.5t-21 -31t-28 -25t-28.5 -14.5q-36 10 -50 40l35 28q19 -23 58 -25z" />
<glyph unicode="&#xe8;" horiz-adv-x="441" d="M153 399q-27 -68 -27 -122q0 -40 17 -80l116 115q-21 80 -106 87zM166 164q30 -33 62 -47.5t68 -14.5q47 0 90 22l13 -6q-67 -114 -169 -131q-36 16 -69.5 40.5t-59 56t-40.5 69t-15 79.5q0 48 13.5 85t39 69t63.5 63.5t86 67.5q80 -49 136 -135zM131 683l153 -114 l-27 -25l-180 78z" />
<glyph unicode="&#xe9;" horiz-adv-x="441" d="M153 399q-27 -68 -27 -122q0 -40 17 -80l116 115q-21 80 -106 87zM166 164q30 -33 62 -47.5t68 -14.5q47 0 90 22l13 -6q-67 -114 -169 -131q-36 16 -69.5 40.5t-59 56t-40.5 69t-15 79.5q0 48 13.5 85t39 69t63.5 63.5t86 67.5q80 -49 136 -135zM364 622l-181 -78 l-27 25l154 114z" />
<glyph unicode="&#xea;" horiz-adv-x="441" d="M153 399q-27 -68 -27 -122q0 -40 17 -80l116 115q-21 80 -106 87zM166 164q30 -33 62 -47.5t68 -14.5q47 0 90 22l13 -6q-67 -114 -169 -131q-36 16 -69.5 40.5t-59 56t-40.5 69t-15 79.5q0 48 13.5 85t39 69t63.5 63.5t86 67.5q80 -49 136 -135zM196 683h52l108 -139 h-60l-73 109l-70 -109h-68z" />
<glyph unicode="&#xeb;" horiz-adv-x="441" d="M153 399q-27 -68 -27 -122q0 -40 17 -80l116 115q-21 80 -106 87zM166 164q30 -33 62 -47.5t68 -14.5q47 0 90 22l13 -6q-67 -114 -169 -131q-36 16 -69.5 40.5t-59 56t-40.5 69t-15 79.5q0 48 13.5 85t39 69t63.5 63.5t86 67.5q80 -49 136 -135zM133 551l-64 68l72 76 l63 -64zM301 551l-64 68l72 76l63 -64z" />
<glyph unicode="&#xec;" horiz-adv-x="300" d="M179 -9l-102 76v272q0 59 -49 63v18l96 95l84 -86v-293q0 -65 62 -65v-24zM62 683l153 -114l-27 -25l-180 78z" />
<glyph unicode="&#xed;" horiz-adv-x="300" d="M179 -9l-102 76v272q0 59 -49 63v18l96 95l84 -86v-293q0 -65 62 -65v-24zM293 622l-181 -78l-27 25l154 114z" />
<glyph unicode="&#xee;" horiz-adv-x="300" d="M179 -9l-102 76v272q0 59 -49 63v18l96 95l84 -86v-293q0 -65 62 -65v-24zM127 683h52l108 -139h-60l-73 109l-70 -109h-68z" />
<glyph unicode="&#xef;" horiz-adv-x="300" d="M179 -9l-102 76v272q0 59 -49 63v18l96 95l84 -86v-293q0 -65 62 -65v-24zM64 551l-64 68l72 76l63 -64zM232 551l-64 68l72 76l63 -64z" />
<glyph unicode="&#xf0;" horiz-adv-x="628" d="M146 115q45 -17 90 -17q42 0 80 13t67.5 37t46.5 57.5t17 74.5q0 42 -18 86q-32 11 -59.5 16t-51.5 5q-45 0 -78 -17t-54 -47.5t-31.5 -72.5t-10.5 -91q0 -11 0.5 -22.5t1.5 -21.5zM424 411q-9 110 -94 204l-102 -65l-22 34l95 60q-22 23 -49.5 44t-60.5 41l17 30 q88 -29 156 -75l84 57l22 -34l-70 -47q171 -137 171 -381q0 -40 -4.5 -81t-12.5 -86q-81 -3 -141.5 -37.5t-105.5 -94.5q-64 7 -112.5 35t-81.5 68.5t-50 89.5t-17 98q0 45 15 87.5t45.5 75t76.5 52.5t108 20q53 -79 133 -95z" />
<glyph unicode="&#xf1;" d="M74 335q0 59 -49 63v18l110 95q59 -16 70 -67q104 21 168 67q81 -20 113.5 -75.5t32.5 -152.5q0 -57 -8.5 -126t-26.5 -157h-170q84 195 84 289q0 61 -38 78q-42 19 -85 19q-39 0 -70 -19v-367h-131v335zM126 615q36 81 98 84q20 -2 42 -10.5t43 -27.5q13 -11 22.5 -18 t18.5 -6q30 0 42 65l52 -17q-29 -87 -107 -87q-15 0 -34 10.5t-48 35.5q-20 15 -34 15q-32 0 -55 -59z" />
<glyph unicode="&#xf2;" horiz-adv-x="516" d="M133 373q-13 -27 -13 -64q0 -46 22.5 -86t56.5 -70t74.5 -47.5t76.5 -17.5q18 0 40 8q14 33 14 63q0 41 -19 81t-50 71t-71 50t-82 19q-12 0 -24.5 -1.5t-24.5 -5.5zM272 517q57 -34 96.5 -69t63.5 -71.5t35 -76t11 -83.5q0 -41 -18.5 -79t-49.5 -69t-72.5 -52.5 t-87.5 -29.5q-45 16 -84.5 40.5t-69 56t-46.5 68.5t-17 78q0 48 14.5 85.5t44.5 70t75 64t105 67.5zM169 683l153 -114l-27 -25l-180 78z" />
<glyph unicode="&#xf3;" horiz-adv-x="516" d="M133 373q-13 -27 -13 -64q0 -46 22.5 -86t56.5 -70t74.5 -47.5t76.5 -17.5q18 0 40 8q14 33 14 63q0 41 -19 81t-50 71t-71 50t-82 19q-12 0 -24.5 -1.5t-24.5 -5.5zM272 517q57 -34 96.5 -69t63.5 -71.5t35 -76t11 -83.5q0 -41 -18.5 -79t-49.5 -69t-72.5 -52.5 t-87.5 -29.5q-45 16 -84.5 40.5t-69 56t-46.5 68.5t-17 78q0 48 14.5 85.5t44.5 70t75 64t105 67.5zM401 622l-181 -78l-27 25l154 114z" />
<glyph unicode="&#xf4;" horiz-adv-x="516" d="M133 373q-13 -27 -13 -64q0 -46 22.5 -86t56.5 -70t74.5 -47.5t76.5 -17.5q18 0 40 8q14 33 14 63q0 41 -19 81t-50 71t-71 50t-82 19q-12 0 -24.5 -1.5t-24.5 -5.5zM272 517q57 -34 96.5 -69t63.5 -71.5t35 -76t11 -83.5q0 -41 -18.5 -79t-49.5 -69t-72.5 -52.5 t-87.5 -29.5q-45 16 -84.5 40.5t-69 56t-46.5 68.5t-17 78q0 48 14.5 85.5t44.5 70t75 64t105 67.5zM233 683h52l108 -139h-60l-73 109l-70 -109h-68z" />
<glyph unicode="&#xf5;" horiz-adv-x="516" d="M133 373q-13 -27 -13 -64q0 -46 22.5 -86t56.5 -70t74.5 -47.5t76.5 -17.5q18 0 40 8q14 33 14 63q0 41 -19 81t-50 71t-71 50t-82 19q-12 0 -24.5 -1.5t-24.5 -5.5zM272 517q57 -34 96.5 -69t63.5 -71.5t35 -76t11 -83.5q0 -41 -18.5 -79t-49.5 -69t-72.5 -52.5 t-87.5 -29.5q-45 16 -84.5 40.5t-69 56t-46.5 68.5t-17 78q0 48 14.5 85.5t44.5 70t75 64t105 67.5zM99 615q36 81 98 84q20 -2 42 -10.5t43 -27.5q13 -11 22.5 -18t18.5 -6q30 0 42 65l52 -17q-29 -87 -107 -87q-15 0 -34 10.5t-48 35.5q-20 15 -34 15q-32 0 -55 -59z" />
<glyph unicode="&#xf6;" horiz-adv-x="516" d="M133 373q-13 -27 -13 -64q0 -46 22.5 -86t56.5 -70t74.5 -47.5t76.5 -17.5q18 0 40 8q14 33 14 63q0 41 -19 81t-50 71t-71 50t-82 19q-12 0 -24.5 -1.5t-24.5 -5.5zM272 517q57 -34 96.5 -69t63.5 -71.5t35 -76t11 -83.5q0 -41 -18.5 -79t-49.5 -69t-72.5 -52.5 t-87.5 -29.5q-45 16 -84.5 40.5t-69 56t-46.5 68.5t-17 78q0 48 14.5 85.5t44.5 70t75 64t105 67.5zM170 551l-64 68l72 76l63 -64zM338 551l-64 68l72 76l63 -64z" />
<glyph unicode="&#xf7;" horiz-adv-x="447" d="M79 333q33 -16 97 -16h133q36 0 71 28l21 -13l-48 -89q-32 15 -56 15h-176q-43 0 -71 -36l-18 9zM226 56l-54 64l62 67l52 -59zM226 388l-54 63l54 67l60 -59z" />
<glyph unicode="&#xf8;" horiz-adv-x="503" d="M447 479l-52 -70q38 -45 54 -91.5t16 -100.5q0 -41 -18 -79t-49.5 -69t-73 -52.5t-87.5 -29.5q-32 11 -60.5 26.5t-54.5 34.5l-44 -59l-37 33l45 58q-31 32 -48.5 70t-17.5 80q0 48 15 85.5t45 70t74.5 64t104.5 67.5q31 -19 57 -37.5t47 -38.5l49 64zM391 159 q0 42 -19 81.5t-51 70.5l-125 -166q32 -26 69.5 -41.5t71.5 -15.5q19 0 40 8q14 33 14 63zM120 373q-12 -29 -12 -64q0 -37 14 -70.5t39 -60.5l124 163q-25 18 -55 28.5t-61 10.5q-12 0 -24.5 -1.5t-24.5 -5.5z" />
<glyph unicode="&#xf9;" d="M502 170q0 -59 49 -63v-18l-111 -95q-60 17 -67 84q-89 -26 -171 -84q-86 22 -120.5 77.5t-34.5 146.5q0 27 4.5 54t10.5 53t10.5 50.5t4.5 45.5q0 46 -20 84h140q20 -26 20 -72q0 -26 -5.5 -59t-18.5 -71q-11 -32 -16.5 -55.5t-5.5 -44.5q0 -24 8.5 -41t23 -27 t34.5 -14.5t43 -4.5q51 0 90 30v359h132v-335zM197 683l153 -114l-27 -25l-180 78z" />
<glyph unicode="&#xfa;" d="M502 170q0 -59 49 -63v-18l-111 -95q-60 17 -67 84q-89 -26 -171 -84q-86 22 -120.5 77.5t-34.5 146.5q0 27 4.5 54t10.5 53t10.5 50.5t4.5 45.5q0 46 -20 84h140q20 -26 20 -72q0 -26 -5.5 -59t-18.5 -71q-11 -32 -16.5 -55.5t-5.5 -44.5q0 -24 8.5 -41t23 -27 t34.5 -14.5t43 -4.5q51 0 90 30v359h132v-335zM429 622l-181 -78l-27 25l154 114z" />
<glyph unicode="&#xfb;" d="M502 170q0 -59 49 -63v-18l-111 -95q-60 17 -67 84q-89 -26 -171 -84q-86 22 -120.5 77.5t-34.5 146.5q0 27 4.5 54t10.5 53t10.5 50.5t4.5 45.5q0 46 -20 84h140q20 -26 20 -72q0 -26 -5.5 -59t-18.5 -71q-11 -32 -16.5 -55.5t-5.5 -44.5q0 -24 8.5 -41t23 -27 t34.5 -14.5t43 -4.5q51 0 90 30v359h132v-335zM260 683h52l108 -139h-60l-73 109l-70 -109h-68z" />
<glyph unicode="&#xfc;" d="M502 170q0 -59 49 -63v-18l-111 -95q-60 17 -67 84q-89 -26 -171 -84q-86 22 -120.5 77.5t-34.5 146.5q0 27 4.5 54t10.5 53t10.5 50.5t4.5 45.5q0 46 -20 84h140q20 -26 20 -72q0 -26 -5.5 -59t-18.5 -71q-11 -32 -16.5 -55.5t-5.5 -44.5q0 -24 8.5 -41t23 -27 t34.5 -14.5t43 -4.5q51 0 90 30v359h132v-335zM198 551l-64 68l72 76l63 -64zM366 551l-64 68l72 76l63 -64z" />
<glyph unicode="&#xfd;" horiz-adv-x="548" d="M243 9q-137 143 -137 279q0 75 -19 117.5t-61 61.5v38h140q32 -28 47.5 -74.5t17.5 -121.5q3 -146 105 -220q82 76 82 178q0 27 -8.5 54.5t-24 49.5t-37 36t-48.5 14q-17 0 -47 -8l-8 22q58 31 84 82q5 0 8.5 0.5t8.5 0.5q33 0 62 -11t50.5 -32t34.5 -52.5t13 -72.5 q0 -102 -49 -183t-132 -146q-38 -30 -63.5 -56.5t-41.5 -51t-22.5 -49.5t-6.5 -52h-121q21 72 62.5 122.5t110.5 74.5zM417 622l-181 -78l-27 25l154 114z" />
<glyph unicode="&#xfe;" horiz-adv-x="548" d="M378 95q16 49 16 104q0 46 -11.5 80t-29 59.5t-38.5 44.5t-39 34q-32 -11 -65 -12v-172q10 -42 26.5 -69.5t36.5 -43t42.5 -21.5t43.5 -6q4 0 8.5 0.5t9.5 1.5zM211 452q66 17 121 61q37 -14 69.5 -36.5t56 -53t37 -68.5t13.5 -83q0 -59 -13 -99t-38.5 -71t-62.5 -58.5 t-84 -60.5q-52 16 -99 97v-268h-131v765q0 59 -49 63v18l180 95v-301z" />
<glyph unicode="&#xff;" horiz-adv-x="548" d="M243 9q-137 143 -137 279q0 75 -19 117.5t-61 61.5v38h140q32 -28 47.5 -74.5t17.5 -121.5q3 -146 105 -220q82 76 82 178q0 27 -8.5 54.5t-24 49.5t-37 36t-48.5 14q-17 0 -47 -8l-8 22q58 31 84 82q5 0 8.5 0.5t8.5 0.5q33 0 62 -11t50.5 -32t34.5 -52.5t13 -72.5 q0 -102 -49 -183t-132 -146q-38 -30 -63.5 -56.5t-41.5 -51t-22.5 -49.5t-6.5 -52h-121q21 72 62.5 122.5t110.5 74.5zM187 551l-64 68l72 76l63 -64zM355 551l-64 68l72 76l63 -64z" />
<glyph unicode="&#x100;" horiz-adv-x="750" d="M293 699q0 -182 -23 -268h204l-21 191q0 42 -19 59.5t-61 17.5h-80zM-17 120q10 -6 21 -6q23 0 59.5 34t72.5 105.5t65 182t37 263.5h-196l10 47h579v-44q-41 0 -42 -82l50 -464q12 -113 72 -113v-43h-388v41q181 1 181 95q0 3 -0.5 6t-0.5 7l-17 158h-238 q-51 -186 -162 -319q-28 26 -58.5 53.5t-64.5 57.5zM271 921h226l-20 -53h-225z" />
<glyph unicode="&#x101;" horiz-adv-x="526" d="M247 238q-64 -43 -64 -98q0 -52 62 -60l62 26v159zM307 339q-8 45 -49 63q-66 -42 -165 -60l-25 36q124 49 189 137q45 -37 89.5 -67t92.5 -53v-259q0 -65 61 -65v-24l-91 -56l-101 75l-138 -87q-115 24 -115 136q0 73 66 121l186 71v32zM160 628h226l-20 -53h-225z" />
<glyph unicode="&#x102;" horiz-adv-x="750" d="M293 699q0 -182 -23 -268h204l-21 191q0 42 -19 59.5t-61 17.5h-80zM-17 120q10 -6 21 -6q23 0 59.5 34t72.5 105.5t65 182t37 263.5h-196l10 47h579v-44q-41 0 -42 -82l50 -464q12 -113 72 -113v-43h-388v41q181 1 181 95q0 3 -0.5 6t-0.5 7l-17 158h-238 q-51 -186 -162 -319q-28 26 -58.5 53.5t-64.5 57.5zM510 956q-33 -120 -140 -120t-131 120h88q12 -86 67 -86q56 0 71 86h45z" />
<glyph unicode="&#x103;" horiz-adv-x="526" d="M247 238q-64 -43 -64 -98q0 -52 62 -60l62 26v159zM307 339q-8 45 -49 63q-66 -42 -165 -60l-25 36q124 49 189 137q45 -37 89.5 -67t92.5 -53v-259q0 -65 61 -65v-24l-91 -56l-101 75l-138 -87q-115 24 -115 136q0 73 66 121l186 71v32zM399 663q-33 -120 -140 -120 t-131 120h88q12 -86 67 -86q56 0 71 86h45z" />
<glyph unicode="&#x104;" horiz-adv-x="750" d="M541 -112q18 -3 40 -3q34 0 70.5 6t59.5 17v-66q-11 -7 -32.5 -13t-45.5 -11t-46.5 -8t-34.5 -3q-27 8 -51 34t-24 61q24 35 52.5 59.5t54.5 38.5h-261v41q181 1 181 95q0 3 -0.5 6t-0.5 7l-17 158h-238q-51 -186 -162 -319q-28 26 -58.5 53.5t-64.5 57.5l20 21 q10 -6 21 -6q23 0 59.5 34t72.5 105.5t65 182t37 263.5h-196l10 47h579v-44q-41 0 -42 -82l50 -464q12 -113 72 -113v-43h-96q-36 -27 -53.5 -53t-20.5 -59zM293 699q0 -182 -23 -268h204l-21 191q0 42 -19 59.5t-61 17.5h-80z" />
<glyph unicode="&#x105;" horiz-adv-x="526" d="M346 -112q16 -3 39 -3q35 0 71.5 6t59.5 17v-66q-11 -7 -33 -13t-46 -11t-46 -8t-34 -3q-14 4 -27.5 13t-24.5 21t-17.5 27.5t-6.5 33.5q26 37 56 62t56 39l-85 63l-138 -87q-115 24 -115 136q0 73 66 121l186 71v32q-8 45 -49 63q-66 -42 -165 -60l-25 36 q124 49 189 137q45 -37 89.5 -67t92.5 -53v-259q0 -65 61 -65v-24q-50 -32 -79.5 -55.5t-46 -41.5t-22 -33t-6.5 -29zM247 238q-64 -43 -64 -98q0 -52 62 -60l62 26v159z" />
<glyph unicode="&#x106;" horiz-adv-x="795" d="M752 213q-34 -45 -70 -86.5t-78.5 -72.5t-94 -49.5t-116.5 -18.5q-45 0 -89 15.5t-91 42.5q-38 24 -67 59t-49.5 77.5t-31 91t-10.5 98.5q0 80 30.5 150t83.5 122t124.5 82t154.5 30t144 -27.5t116 -80.5l-130 -110l-24 30q1 4 1.5 7t0.5 7q0 16 -9 31.5t-26 28.5t-41 21 t-55 8q-47 0 -88 -18t-71 -51.5t-47.5 -81t-17.5 -105.5q0 -77 22.5 -136.5t58 -100.5t80.5 -62t90 -21q60 0 101.5 15t71.5 38.5t51.5 50.5t42.5 51zM540 915l-181 -78l-27 25l154 114z" />
<glyph unicode="&#x107;" horiz-adv-x="430" d="M141 402q-5 -27 -7.5 -50.5t-2.5 -45.5q0 -51 15 -88t37.5 -60t50 -34t52.5 -11q41 0 86 24l19 -19q-22 -43 -62.5 -77t-106.5 -54q-36 16 -69 40.5t-58.5 56t-40.5 69t-15 79.5q0 48 13.5 85t39 69.5t63 63.5t85.5 67q84 -50 120 -108l-85 -77q-55 51 -134 70zM358 622 l-181 -78l-27 25l154 114z" />
<glyph unicode="&#x108;" horiz-adv-x="795" d="M752 213q-34 -45 -70 -86.5t-78.5 -72.5t-94 -49.5t-116.5 -18.5q-45 0 -89 15.5t-91 42.5q-38 24 -67 59t-49.5 77.5t-31 91t-10.5 98.5q0 80 30.5 150t83.5 122t124.5 82t154.5 30t144 -27.5t116 -80.5l-130 -110l-24 30q1 4 1.5 7t0.5 7q0 16 -9 31.5t-26 28.5t-41 21 t-55 8q-47 0 -88 -18t-71 -51.5t-47.5 -81t-17.5 -105.5q0 -77 22.5 -136.5t58 -100.5t80.5 -62t90 -21q60 0 101.5 15t71.5 38.5t51.5 50.5t42.5 51zM373 976h52l108 -139h-60l-73 109l-70 -109h-68z" />
<glyph unicode="&#x109;" horiz-adv-x="430" d="M141 402q-5 -27 -7.5 -50.5t-2.5 -45.5q0 -51 15 -88t37.5 -60t50 -34t52.5 -11q41 0 86 24l19 -19q-22 -43 -62.5 -77t-106.5 -54q-36 16 -69 40.5t-58.5 56t-40.5 69t-15 79.5q0 48 13.5 85t39 69.5t63 63.5t85.5 67q84 -50 120 -108l-85 -77q-55 51 -134 70zM190 683 h52l108 -139h-60l-73 109l-70 -109h-68z" />
<glyph unicode="&#x10a;" horiz-adv-x="795" d="M752 213q-34 -45 -70 -86.5t-78.5 -72.5t-94 -49.5t-116.5 -18.5q-45 0 -89 15.5t-91 42.5q-38 24 -67 59t-49.5 77.5t-31 91t-10.5 98.5q0 80 30.5 150t83.5 122t124.5 82t154.5 30t144 -27.5t116 -80.5l-130 -110l-24 30q1 4 1.5 7t0.5 7q0 16 -9 31.5t-26 28.5t-41 21 t-55 8q-47 0 -88 -18t-71 -51.5t-47.5 -81t-17.5 -105.5q0 -77 22.5 -136.5t58 -100.5t80.5 -62t90 -21q60 0 101.5 15t71.5 38.5t51.5 50.5t42.5 51zM394 844l-64 68l72 76l63 -64z" />
<glyph unicode="&#x10b;" horiz-adv-x="430" d="M141 402q-5 -27 -7.5 -50.5t-2.5 -45.5q0 -51 15 -88t37.5 -60t50 -34t52.5 -11q41 0 86 24l19 -19q-22 -43 -62.5 -77t-106.5 -54q-36 16 -69 40.5t-58.5 56t-40.5 69t-15 79.5q0 48 13.5 85t39 69.5t63 63.5t85.5 67q84 -50 120 -108l-85 -77q-55 51 -134 70zM211 551 l-64 68l72 76l63 -64z" />
<glyph unicode="&#x10c;" horiz-adv-x="795" d="M752 213q-34 -45 -70 -86.5t-78.5 -72.5t-94 -49.5t-116.5 -18.5q-45 0 -89 15.5t-91 42.5q-38 24 -67 59t-49.5 77.5t-31 91t-10.5 98.5q0 80 30.5 150t83.5 122t124.5 82t154.5 30t144 -27.5t116 -80.5l-130 -110l-24 30q1 4 1.5 7t0.5 7q0 16 -9 31.5t-26 28.5t-41 21 t-55 8q-47 0 -88 -18t-71 -51.5t-47.5 -81t-17.5 -105.5q0 -77 22.5 -136.5t58 -100.5t80.5 -62t90 -21q60 0 101.5 15t71.5 38.5t51.5 50.5t42.5 51zM422 836h-52l-108 139h65l72 -105l77 105h57z" />
<glyph unicode="&#x10d;" horiz-adv-x="430" d="M141 402q-5 -27 -7.5 -50.5t-2.5 -45.5q0 -51 15 -88t37.5 -60t50 -34t52.5 -11q41 0 86 24l19 -19q-22 -43 -62.5 -77t-106.5 -54q-36 16 -69 40.5t-58.5 56t-40.5 69t-15 79.5q0 48 13.5 85t39 69.5t63 63.5t85.5 67q84 -50 120 -108l-85 -77q-55 51 -134 70zM239 543 h-52l-108 139h65l72 -105l77 105h57z" />
<glyph unicode="&#x10e;" horiz-adv-x="792" d="M257 199q0 -123 93 -123q61 0 126 64q85 84 85 261q0 79 -21.5 134.5t-51.5 90.5t-63 51t-57 16q-48 0 -78 -27.5t-32 -81.5zM748 380q-45 -141 -140.5 -242t-253.5 -153q-20 6 -44.5 12t-50 10.5t-49.5 7.5t-43 3q-29 0 -52 -8.5t-46 -25.5l-29 38q72 66 72 154v335 q0 66 -75 134l18 34q66 0 142 21.5t169 69.5q151 -34 259 -162q109 -129 123 -228zM420 836h-52l-108 139h65l72 -105l77 105h57z" />
<glyph unicode="&#x10f;" horiz-adv-x="617" d="M167 405q-8 -29 -12.5 -54.5t-4.5 -51.5q0 -46 11.5 -80t29 -59t38.5 -43.5t41 -33.5q30 11 64 12v171q-2 24 -11 49.5t-26 46t-41 33.5t-56 13q-17 0 -33 -3zM354 51q-79 -14 -141 -64q-39 15 -71 38t-55.5 53.5t-36.5 68t-13 82.5q0 59 14 99t39.5 71t62 58t82.5 60 q27 -10 56 -34t43 -63v157q0 58 -50 63v18l181 95v-617q2 -65 61 -65v-24l-90 -56zM517 617l-18 9l47 58l-51 47l76 67l66 -60z" />
<glyph unicode="&#x110;" horiz-adv-x="809" d="M86 398q9 -3 20 -4.5t22 -3.5v121q0 66 -75 134l19 34q66 0 141.5 21.5t169.5 69.5q151 -34 259 -162t122 -228q-45 -142 -140 -242.5t-254 -152.5q-20 6 -44.5 12t-50 10.5t-49.5 7.5t-42 3q-29 0 -52 -8.5t-46 -25.5l-29 38q71 66 71 154v134q-45 -3 -76 -28l-22 7z M274 386h15q44 0 85 22l25 -10l-57 -100q-38 12 -66 12h-2v-111q0 -123 92 -123q62 0 127 64q85 83 85 261q0 79 -21.5 134.5t-52 90.5t-63.5 51t-56 16q-48 0 -78 -27.5t-33 -81.5v-198z" />
<glyph unicode="&#x111;" horiz-adv-x="553" d="M153 593h180q-6 43 -49 47v18l181 95v-160h44l-20 -54h-24v-403q0 -65 61 -65v-24l-90 -56l-82 60q-79 -14 -141 -64q-39 15 -71 38t-55.5 53.5t-36.5 68t-13 82.5q0 59 12 99t37 71t62 58t87 60q27 -10 56 -34t43 -63v119h-201zM167 405q-8 -29 -12.5 -54.5t-4.5 -51.5 q0 -46 11.5 -80t29 -59t38.5 -43.5t41 -33.5q30 11 64 12v171q-2 24 -11 49.5t-26 46t-41 33.5t-56 13q-17 0 -33 -3z" />
<glyph unicode="&#x112;" horiz-adv-x="775" d="M731 213q-34 -45 -70 -86.5t-78.5 -72.5t-94 -49.5t-116.5 -18.5q-45 0 -89 15t-90 43q-39 23 -68.5 58.5t-49.5 78t-30 91t-10 98.5q0 81 28.5 148t73.5 112q35 35 67 58.5t66 38t72.5 21t85.5 6.5q81 0 143 -27t116 -81l-130 -110l-24 30q1 4 1.5 7t0.5 7 q0 16 -8.5 31.5t-25.5 28.5t-41.5 21t-55.5 8q-49 0 -90 -19t-71 -53.5t-46.5 -83.5t-16.5 -109l496 58l-95 -181h-18q-4 48 -63 50l-313 10q10 -62 35 -108.5t58.5 -77.5t73 -46.5t78.5 -15.5q55 0 96.5 15t73 38t55 50t41.5 52zM284 921h226l-20 -53h-225z" />
<glyph unicode="&#x113;" horiz-adv-x="441" d="M153 399q-27 -68 -27 -122q0 -40 17 -80l116 115q-21 80 -106 87zM166 164q30 -33 62 -47.5t68 -14.5q47 0 90 22l13 -6q-67 -114 -169 -131q-36 16 -69.5 40.5t-59 56t-40.5 69t-15 79.5q0 48 13.5 85t39 69t63.5 63.5t86 67.5q80 -49 136 -135zM117 628h226l-20 -53 h-225z" />
<glyph unicode="&#x114;" horiz-adv-x="775" d="M731 213q-34 -45 -70 -86.5t-78.5 -72.5t-94 -49.5t-116.5 -18.5q-45 0 -89 15t-90 43q-39 23 -68.5 58.5t-49.5 78t-30 91t-10 98.5q0 81 28.5 148t73.5 112q35 35 67 58.5t66 38t72.5 21t85.5 6.5q81 0 143 -27t116 -81l-130 -110l-24 30q1 4 1.5 7t0.5 7 q0 16 -8.5 31.5t-25.5 28.5t-41.5 21t-55.5 8q-49 0 -90 -19t-71 -53.5t-46.5 -83.5t-16.5 -109l496 58l-95 -181h-18q-4 48 -63 50l-313 10q10 -62 35 -108.5t58.5 -77.5t73 -46.5t78.5 -15.5q55 0 96.5 15t73 38t55 50t41.5 52zM523 956q-33 -120 -140 -120t-131 120h88 q12 -86 67 -86q56 0 71 86h45z" />
<glyph unicode="&#x115;" horiz-adv-x="441" d="M153 399q-27 -68 -27 -122q0 -40 17 -80l116 115q-21 80 -106 87zM166 164q30 -33 62 -47.5t68 -14.5q47 0 90 22l13 -6q-67 -114 -169 -131q-36 16 -69.5 40.5t-59 56t-40.5 69t-15 79.5q0 48 13.5 85t39 69t63.5 63.5t86 67.5q80 -49 136 -135zM356 663 q-33 -120 -140 -120t-131 120h88q12 -86 67 -86q56 0 71 86h45z" />
<glyph unicode="&#x116;" horiz-adv-x="775" d="M731 213q-34 -45 -70 -86.5t-78.5 -72.5t-94 -49.5t-116.5 -18.5q-45 0 -89 15t-90 43q-39 23 -68.5 58.5t-49.5 78t-30 91t-10 98.5q0 81 28.5 148t73.5 112q35 35 67 58.5t66 38t72.5 21t85.5 6.5q81 0 143 -27t116 -81l-130 -110l-24 30q1 4 1.5 7t0.5 7 q0 16 -8.5 31.5t-25.5 28.5t-41.5 21t-55.5 8q-49 0 -90 -19t-71 -53.5t-46.5 -83.5t-16.5 -109l496 58l-95 -181h-18q-4 48 -63 50l-313 10q10 -62 35 -108.5t58.5 -77.5t73 -46.5t78.5 -15.5q55 0 96.5 15t73 38t55 50t41.5 52zM384 844l-64 68l72 76l63 -64z" />
<glyph unicode="&#x117;" horiz-adv-x="441" d="M153 399q-27 -68 -27 -122q0 -40 17 -80l116 115q-21 80 -106 87zM166 164q30 -33 62 -47.5t68 -14.5q47 0 90 22l13 -6q-67 -114 -169 -131q-36 16 -69.5 40.5t-59 56t-40.5 69t-15 79.5q0 48 13.5 85t39 69t63.5 63.5t86 67.5q80 -49 136 -135zM217 551l-64 68l72 76 l63 -64z" />
<glyph unicode="&#x118;" horiz-adv-x="775" d="M402 -112q18 -3 39 -3q35 0 71.5 6t59.5 17v-66q-11 -7 -32.5 -13t-45.5 -11t-46.5 -8t-34.5 -3q-14 4 -27.5 13t-24 21t-17 27.5t-6.5 33.5q20 29 43.5 51t46.5 37q-12 -2 -26.5 -3t-29.5 -1q-45 0 -88.5 14.5t-90.5 43.5q-39 24 -68.5 59t-49.5 77.5t-30 91t-10 98.5 q0 81 28.5 148t73.5 112q35 35 67 58.5t66 38t72.5 21t85.5 6.5q81 0 143 -27t116 -81l-130 -110l-24 30q1 4 1.5 7t0.5 7q0 16 -8.5 31.5t-25.5 28.5t-41.5 21t-55.5 8q-49 0 -90 -19t-71 -53.5t-46.5 -83.5t-16.5 -109l496 58l-95 -181h-18q-4 48 -63 50l-313 10 q10 -62 35 -108.5t58.5 -77.5t73 -46.5t78.5 -15.5q55 0 96.5 15t73 38t55 50t41.5 52l33 -35q-27 -35 -54 -67.5t-57.5 -60.5t-65 -49.5t-76.5 -34.5q-38 -27 -55.5 -53t-20.5 -60z" />
<glyph unicode="&#x119;" horiz-adv-x="441" d="M195 -112q16 -3 39 -3q35 0 71.5 6t58.5 17v-66q-10 -7 -31.5 -13.5t-46 -11t-47 -7.5t-34.5 -3q-13 4 -26.5 13t-24 21t-17.5 27.5t-7 33.5q21 30 45 52t46 37q-34 17 -65.5 41.5t-56 55t-39 67t-14.5 77.5q0 48 13.5 85t39 69t63.5 63.5t86 67.5q80 -49 136 -135 l-218 -218q30 -33 62 -47.5t68 -14.5q47 0 90 22l13 -6q-57 -96 -136 -123q-34 -26 -49.5 -50.5t-18.5 -56.5zM153 399q-27 -68 -27 -122q0 -40 17 -80l116 115q-21 80 -106 87z" />
<glyph unicode="&#x11a;" horiz-adv-x="775" d="M731 213q-34 -45 -70 -86.5t-78.5 -72.5t-94 -49.5t-116.5 -18.5q-45 0 -89 15t-90 43q-39 23 -68.5 58.5t-49.5 78t-30 91t-10 98.5q0 81 28.5 148t73.5 112q35 35 67 58.5t66 38t72.5 21t85.5 6.5q81 0 143 -27t116 -81l-130 -110l-24 30q1 4 1.5 7t0.5 7 q0 16 -8.5 31.5t-25.5 28.5t-41.5 21t-55.5 8q-49 0 -90 -19t-71 -53.5t-46.5 -83.5t-16.5 -109l496 58l-95 -181h-18q-4 48 -63 50l-313 10q10 -62 35 -108.5t58.5 -77.5t73 -46.5t78.5 -15.5q55 0 96.5 15t73 38t55 50t41.5 52zM412 836h-52l-108 139h65l72 -105l77 105 h57z" />
<glyph unicode="&#x11b;" horiz-adv-x="441" d="M153 399q-27 -68 -27 -122q0 -40 17 -80l116 115q-21 80 -106 87zM166 164q30 -33 62 -47.5t68 -14.5q47 0 90 22l13 -6q-67 -114 -169 -131q-36 16 -69.5 40.5t-59 56t-40.5 69t-15 79.5q0 48 13.5 85t39 69t63.5 63.5t86 67.5q80 -49 136 -135zM245 543h-52l-108 139 h65l72 -105l77 105h57z" />
<glyph unicode="&#x11c;" horiz-adv-x="823" d="M539 564q5 5 5 15q0 15 -8.5 31t-25 29t-40.5 21.5t-56 8.5q-47 0 -88 -18t-71 -51.5t-47 -81t-17 -105.5q0 -77 22 -136.5t57.5 -100.5t80.5 -62t90 -21q44 0 86.5 15t76 43.5t54 70.5t20.5 96h-280q-68 0 -103 -35l-14 21zM767 395q-12 -104 -50.5 -180.5t-92 -127 t-116 -75.5t-122.5 -26q-75 0 -137.5 31.5t-108 85t-71 123t-25.5 144.5q0 80 30.5 150t83.5 122t125 82t155 30q81 0 143 -27t116 -81l-224 -211h238q41 0 71 30l21 -25q-14 -35 -36 -45zM387 976h52l108 -139h-60l-73 109l-70 -109h-68z" />
<glyph unicode="&#x11d;" horiz-adv-x="538" d="M144 371q-17 -39 -17 -76q0 -35 13.5 -67t36.5 -56t54.5 -38.5t67.5 -14.5q27 0 57 8q0 14 2 35t2 43q0 29 -6.5 58.5t-26 53.5t-56.5 39.5t-97 15.5h-15t-15 -1zM40 -167q77 98 149 98q48 0 101 -50q30 37 46 80.5t16 97.5v24q-23 -9 -39 -18t-29.5 -20.5t-26 -25 t-28.5 -31.5q-48 0 -83 15.5t-58 42.5t-34 63t-11 77q0 52 17 106.5t48.5 101t76.5 79.5t101 42q19 -27 38.5 -49t42.5 -38.5t51.5 -28t64.5 -17.5v-295q0 -224 -241 -285q-35 65 -84 65q-43 0 -105 -53zM245 683h52l108 -139h-60l-73 109l-70 -109h-68z" />
<glyph unicode="&#x11e;" horiz-adv-x="823" d="M539 564q5 5 5 15q0 15 -8.5 31t-25 29t-40.5 21.5t-56 8.5q-47 0 -88 -18t-71 -51.5t-47 -81t-17 -105.5q0 -77 22 -136.5t57.5 -100.5t80.5 -62t90 -21q44 0 86.5 15t76 43.5t54 70.5t20.5 96h-280q-68 0 -103 -35l-14 21zM767 395q-12 -104 -50.5 -180.5t-92 -127 t-116 -75.5t-122.5 -26q-75 0 -137.5 31.5t-108 85t-71 123t-25.5 144.5q0 80 30.5 150t83.5 122t125 82t155 30q81 0 143 -27t116 -81l-224 -211h238q41 0 71 30l21 -25q-14 -35 -36 -45zM547 956q-33 -120 -140 -120t-131 120h88q12 -86 67 -86q56 0 71 86h45z" />
<glyph unicode="&#x11f;" horiz-adv-x="538" d="M144 371q-17 -39 -17 -76q0 -35 13.5 -67t36.5 -56t54.5 -38.5t67.5 -14.5q27 0 57 8q0 14 2 35t2 43q0 29 -6.5 58.5t-26 53.5t-56.5 39.5t-97 15.5h-15t-15 -1zM40 -167q77 98 149 98q48 0 101 -50q30 37 46 80.5t16 97.5v24q-23 -9 -39 -18t-29.5 -20.5t-26 -25 t-28.5 -31.5q-48 0 -83 15.5t-58 42.5t-34 63t-11 77q0 52 17 106.5t48.5 101t76.5 79.5t101 42q19 -27 38.5 -49t42.5 -38.5t51.5 -28t64.5 -17.5v-295q0 -224 -241 -285q-35 65 -84 65q-43 0 -105 -53zM405 663q-33 -120 -140 -120t-131 120h88q12 -86 67 -86q56 0 71 86 h45z" />
<glyph unicode="&#x120;" horiz-adv-x="823" d="M539 564q5 5 5 15q0 15 -8.5 31t-25 29t-40.5 21.5t-56 8.5q-47 0 -88 -18t-71 -51.5t-47 -81t-17 -105.5q0 -77 22 -136.5t57.5 -100.5t80.5 -62t90 -21q44 0 86.5 15t76 43.5t54 70.5t20.5 96h-280q-68 0 -103 -35l-14 21zM767 395q-12 -104 -50.5 -180.5t-92 -127 t-116 -75.5t-122.5 -26q-75 0 -137.5 31.5t-108 85t-71 123t-25.5 144.5q0 80 30.5 150t83.5 122t125 82t155 30q81 0 143 -27t116 -81l-224 -211h238q41 0 71 30l21 -25q-14 -35 -36 -45zM408 844l-64 68l72 76l63 -64z" />
<glyph unicode="&#x121;" horiz-adv-x="538" d="M144 371q-17 -39 -17 -76q0 -35 13.5 -67t36.5 -56t54.5 -38.5t67.5 -14.5q27 0 57 8q0 14 2 35t2 43q0 29 -6.5 58.5t-26 53.5t-56.5 39.5t-97 15.5h-15t-15 -1zM40 -167q77 98 149 98q48 0 101 -50q30 37 46 80.5t16 97.5v24q-23 -9 -39 -18t-29.5 -20.5t-26 -25 t-28.5 -31.5q-48 0 -83 15.5t-58 42.5t-34 63t-11 77q0 52 17 106.5t48.5 101t76.5 79.5t101 42q19 -27 38.5 -49t42.5 -38.5t51.5 -28t64.5 -17.5v-295q0 -224 -241 -285q-35 65 -84 65q-43 0 -105 -53zM266 551l-64 68l72 76l63 -64z" />
<glyph unicode="&#x122;" horiz-adv-x="823" d="M540.415 555.933q5.0127 4.81348 5.0127 14.4395q0 14.4404 -8.52246 29.8428t-25.0654 27.916q-16.543 12.5146 -40.6064 20.6973q-24.0625 8.18262 -56.1465 8.18262q-47.124 0 -88.2314 -17.3281q-41.1074 -17.3271 -71.1865 -49.5762 q-30.0781 -32.249 -47.123 -77.9746t-17.0449 -101.559q0 -74.124 22.0576 -131.401q22.0586 -57.2773 57.6514 -96.7461t80.7109 -59.6836q45.1182 -20.2158 90.2363 -20.2158q44.1152 0 86.7275 14.4395q42.6113 14.4395 76.1992 41.875t54.1416 67.8662 q20.5537 40.4316 20.5537 92.4141h-280.734q-68.1787 0 -103.271 -33.6924l-14.0371 20.2158zM769.013 393.245q-12.0312 -100.115 -50.6318 -173.758q-38.6016 -73.6416 -92.2422 -122.256q-53.6396 -48.6133 -116.304 -72.6797t-122.822 -25.0283 q-75.1963 0 -137.86 30.3232t-108.283 81.8242q-45.6201 51.502 -71.1865 118.406q-25.5674 66.9033 -25.5674 139.103q0 77.0117 30.5801 144.396t83.7197 117.443q53.1387 50.0566 125.328 78.9365q72.1885 28.8799 155.406 28.8799q81.2129 0 143.375 -25.9922 q62.1631 -25.9912 116.305 -77.9746l-224.588 -203.118h238.625q41.1074 0 71.1865 28.8799l21.0547 -24.0664q-14.0371 -33.6924 -36.0947 -43.3193zM362 -192l-18 9l47 58l-51 47l76 67l66 -60z" />
<glyph unicode="&#x123;" horiz-adv-x="538" d="M144 371q-17 -39 -17 -76q0 -35 13.5 -67t36.5 -56t54.5 -38.5t67.5 -14.5q27 0 57 8q0 14 2 35t2 43q0 29 -6.5 58.5t-26 53.5t-56.5 39.5t-97 15.5h-15t-15 -1zM40 -167q77 98 149 98q48 0 101 -50q30 37 46 80.5t16 97.5v24q-23 -9 -39 -18t-29.5 -20.5t-26 -25 t-28.5 -31.5q-48 0 -83 15.5t-58 42.5t-34 63t-11 77q0 52 17 106.5t48.5 101t76.5 79.5t101 42q19 -27 38.5 -49t42.5 -38.5t51.5 -28t64.5 -17.5v-295q0 -224 -241 -285q-35 65 -84 65q-43 0 -105 -53zM298.004 737.988l17.999 -8.99902l-46.9971 -57.9971 l50.9971 -46.9971l-75.9951 -66.9961l-65.9961 59.9971z" />
<glyph unicode="&#x124;" horiz-adv-x="711" d="M40 33q58 36 58 97v486q0 22 -46 55l16 21q12 -3 28 -3q75 0 137 57h350v-44h-163q-178 0 -178 -86v-54q116 18 191 81q53 -8 94.5 -33t70 -63.5t43.5 -87t15 -102.5q0 -62 -26.5 -121t-71 -110.5t-101.5 -94t-118 -71.5l-26 24q42 25 79 59.5t65 75.5t44.5 87t16.5 94 q0 49 -11.5 89.5t-32 68.5t-48 43.5t-58.5 15.5q-56 0 -126 -45v-308q0 -103 33 -131v-33h-235v33zM331 976h52l108 -139h-60l-73 109l-70 -109h-68z" />
<glyph unicode="&#x125;" horiz-adv-x="551" d="M75 577q0 59 -49 63v18l180 95v-309q49 23 83 67q114 -11 167 -70.5t53 -160.5q0 -50 -18.5 -97t-50 -88.5t-72.5 -75.5t-85 -56l-18 19q63 45 98.5 102t35.5 132q0 81 -32 127.5t-89 46.5q-34 0 -72 -23v-367h-131v577zM140 976h52l108 -139h-60l-73 109l-70 -109h-68z " />
<glyph unicode="&#x126;" horiz-adv-x="711" d="M59 394h39v222q0 22 -46 55l16 21q12 -3 28 -3q75 0 137 57h350v-44h-163q-178 0 -178 -86v-54q116 18 191 81q48 -7 86.5 -29t66.5 -55t45.5 -75t22.5 -90h34l-19 -53h-14q-3 -60 -31 -116.5t-71.5 -106t-99.5 -90.5t-114 -68l-26 24q42 25 79 59.5t65 75.5t44.5 87 t16.5 94q0 11 -0.5 21t-1.5 20h-274v-177q0 -103 33 -131v-33h-235v33q58 36 58 97v211h-58zM242 394h263q-17 60 -53 91.5t-84 31.5q-56 0 -126 -45v-78z" />
<glyph unicode="&#x127;" horiz-adv-x="551" d="M41 593h33q-6 42 -48 47v18l180 95v-160h191l-20 -54h-171v-95q49 23 83 67q114 -11 167 -70.5t53 -160.5q0 -50 -18.5 -97t-50 -88.5t-72.5 -75.5t-85 -56l-18 19q63 45 98.5 102t35.5 132q0 81 -32 127.5t-89 46.5q-34 0 -72 -23v-367h-131v539h-53z" />
<glyph unicode="&#x128;" horiz-adv-x="535" d="M185 625q0 73 -132 91q-63 0 -63 45q0 39 60 39q57 0 72 -54h316v-42q-109 0 -109 -67v-516q0 -74 131 -91q63 0 63 -46q0 -38 -60 -38q-56 0 -72 54h-315v41q109 0 109 69v515zM109 908q36 81 98 84q20 -2 42 -10.5t43 -27.5q13 -11 22.5 -18t18.5 -6q30 0 42 65l52 -17 q-29 -87 -107 -87q-15 0 -34 10.5t-48 35.5q-20 15 -34 15q-32 0 -55 -59z" />
<glyph unicode="&#x129;" horiz-adv-x="300" d="M179 -9l-102 76v272q0 59 -49 63v18l96 95l84 -86v-293q0 -65 62 -65v-24zM-8 615q36 81 98 84q20 -2 42 -10.5t43 -27.5q13 -11 22.5 -18t18.5 -6q30 0 42 65l52 -17q-29 -87 -107 -87q-15 0 -34 10.5t-48 35.5q-20 15 -34 15q-32 0 -55 -59z" />
<glyph unicode="&#x12a;" horiz-adv-x="535" d="M185 625q0 73 -132 91q-63 0 -63 45q0 39 60 39q57 0 72 -54h316v-42q-109 0 -109 -67v-516q0 -74 131 -91q63 0 63 -46q0 -38 -60 -38q-56 0 -72 54h-315v41q109 0 109 69v515zM165 921h226l-20 -53h-225z" />
<glyph unicode="&#x12b;" horiz-adv-x="300" d="M179 -9l-102 76v272q0 59 -49 63v18l96 95l84 -86v-293q0 -65 62 -65v-24zM48 628h226l-20 -53h-225z" />
<glyph unicode="&#x12c;" horiz-adv-x="535" d="M185 625q0 73 -132 91q-63 0 -63 45q0 39 60 39q57 0 72 -54h316v-42q-109 0 -109 -67v-516q0 -74 131 -91q63 0 63 -46q0 -38 -60 -38q-56 0 -72 54h-315v41q109 0 109 69v515zM403 956q-33 -120 -140 -120t-131 120h88q12 -86 67 -86q56 0 71 86h45z" />
<glyph unicode="&#x12d;" horiz-adv-x="300" d="M179 -9l-102 76v272q0 59 -49 63v18l96 95l84 -86v-293q0 -65 62 -65v-24zM287 663q-33 -120 -140 -120t-131 120h88q12 -86 67 -86q56 0 71 86h45z" />
<glyph unicode="&#x12e;" horiz-adv-x="535" d="M173 -112q18 -3 39 -3q35 0 71.5 6t59.5 17v-66q-11 -7 -32.5 -13t-45.5 -11t-46.5 -8t-34.5 -3q-29 8 -52 34t-23 61q23 35 52 59.5t54 38.5h-139v41q109 0 109 69v515q0 73 -132 91q-63 0 -63 45q0 39 60 39q57 0 72 -54h316v-42q-109 0 -109 -67v-516q0 -74 131 -91 q63 0 63 -46q0 -38 -60 -38q-56 0 -72 54h-144q-37 -27 -54 -53t-20 -59z" />
<glyph unicode="&#x12f;" horiz-adv-x="300" d="M117 -112q16 -3 39 -3q35 0 71.5 6t58.5 17v-66q-10 -7 -31.5 -13.5t-46 -11t-47 -7.5t-34.5 -3q-13 4 -26.5 13t-24 21t-17.5 27.5t-7 33.5q26 36 55.5 61t55.5 39l-86 65v272q0 59 -49 63v18l96 95l84 -86v-293q0 -65 62 -65v-24q-50 -32 -79.5 -55t-45.5 -41.5 t-21.5 -33t-6.5 -29.5zM208 634l-145 -75v103l145 73v-101z" />
<glyph unicode="&#x130;" horiz-adv-x="535" d="M185 625q0 73 -132 91q-63 0 -63 45q0 39 60 39q57 0 72 -54h316v-42q-109 0 -109 -67v-516q0 -74 131 -91q63 0 63 -46q0 -38 -60 -38q-56 0 -72 54h-315v41q109 0 109 69v515zM258 790l-77 91l87 96l77 -84z" />
<glyph unicode="&#x131;" horiz-adv-x="300" d="M179 -9l-102 76v272q0 59 -49 63v18l96 95l84 -86v-293q0 -65 62 -65v-24z" />
<glyph unicode="&#x132;" horiz-adv-x="1012" d="M185 625q0 73 -132 91q-63 0 -63 45q0 39 60 39q57 0 72 -54h316v-42q-109 0 -109 -67v-516q0 -74 131 -91q63 0 63 -46q0 -38 -60 -38q-56 0 -72 54h-315v41q109 0 109 69v515zM845 640q-42 -22 -75.5 -32t-72.5 -10q-36 0 -68 8.5t-66 8.5q-35 0 -64.5 -7.5 t-52.5 -24.5l-24 17q24 39 46 66.5t43.5 45.5t43.5 29t46 18q77 -58 194 -58q90 0 140 45l21 -18q-39 -68 -39 -153v-409q-44 -247 -309 -350v40q28 11 58.5 40.5t55.5 72t41 95t16 109.5q0 50 -11 100.5t-27.5 95t-37 81t-39.5 59.5q113 21 181 131z" />
<glyph unicode="&#x133;" horiz-adv-x="539" d="M208 634l-145 -75v103l145 73v-101zM179 -9l-102 76v272q0 59 -49 63v18l96 95l84 -86v-293q0 -65 62 -65v-24zM280 -156q69 31 69 178v317q0 59 -49 63v18l180 95v-333q0 -349 -200 -366v28zM480 634l-145 -75v103l145 73v-101z" />
<glyph unicode="&#x134;" horiz-adv-x="547" d="M392 640q-42 -22 -75.5 -32t-72.5 -10q-36 0 -68 8.5t-66 8.5q-35 0 -64.5 -7.5t-52.5 -24.5l-24 17q24 39 46 66.5t43.5 45.5t43.5 29t46 18q77 -58 194 -58q90 0 140 45l21 -18q-39 -68 -39 -153v-409q-44 -247 -309 -350v40q28 11 58.5 40.5t55.5 72t41 95t16 109.5 q0 50 -11 100.5t-27.5 95t-37 81t-39.5 59.5q113 21 181 131zM249 976h52l108 -139h-60l-73 109l-70 -109h-68z" />
<glyph unicode="&#x135;" horiz-adv-x="279" d="M19 -156q69 31 69 178v317q0 59 -49 63v18l180 95v-333q0 -349 -200 -366v28zM115 683h52l108 -139h-60l-73 109l-70 -109h-68z" />
<glyph unicode="&#x136;" horiz-adv-x="735" d="M299 746v-40q-56 -11 -56 -82v-188q123 68 312 323l115 -91l-84 -89q-23 26 -49 26q-51 0 -121 -97q49 -45 96 -98.5t85 -117t63.5 -136.5t31.5 -156h-216v32q14 12 20 27.5t6 33.5q0 25 -7.5 55t-21 60t-32.5 59t-43 53q-41 42 -66.5 57t-42.5 15q-29 0 -47 -25v-255 q0 -66 53 -80v-32h-253v32q54 15 54 82v526q0 65 -46 66v40h249zM318 -192l-18 9l47 58l-51 47l76 67l66 -60z" />
<glyph unicode="&#x137;" horiz-adv-x="536" d="M267 413q-32 -35 -63 -60v-61q25 5 42 5q18 0 39.5 -2.5t46.5 -7.5q3 15 3 30q0 69 -68 96zM73 577q0 59 -49 63v18l180 95v-350q26 26 50.5 55t47.5 61q5 1 10.5 1h10.5q33 0 61 -13t48.5 -36t32.5 -53.5t12 -66.5q0 -21 -3 -46q-44 -20 -111 -30q63 -29 97 -95t39 -180 h-136q0 70 -13.5 116t-36 72.5t-51 37t-58.5 10.5v-236h-131v577zM219 -192l-18 9l47 58l-51 47l76 67l66 -60z" />
<glyph unicode="&#x138;" horiz-adv-x="536" d="M73 335q0 59 -49 63v18l110 95q59 -16 70 -67v-41q26 26 50.5 55t47.5 61q5 1 10.5 1h10.5q33 0 61 -13t48.5 -36t32.5 -53.5t12 -66.5q0 -21 -3 -46q-44 -20 -111 -30q63 -29 97 -95t39 -180h-136q0 70 -13.5 116t-36 72.5t-51 37t-58.5 10.5v-236h-131v335zM267 413 q-32 -35 -63 -60v-61q25 5 42 5q18 0 39.5 -2.5t46.5 -7.5q3 15 3 30q0 69 -68 96z" />
<glyph unicode="&#x139;" horiz-adv-x="667" d="M632 185q-17 -37 -35.5 -72t-43.5 -62t-58.5 -43t-80.5 -16q-45 0 -95.5 6t-101.5 6q-41 0 -75 -3.5t-79 -13.5l-23 38q33 31 48.5 66.5t15.5 80.5v301q0 78 -50 104l4 28q44 11 83.5 30t78.5 45q24 16 48 29.5t46.5 23.5t43.5 16t39 6q31 0 61.5 -16.5t56.5 -41.5 t45.5 -55t27.5 -58q-37 -7 -72.5 -21t-70.5 -34q0 38 -17 63t-44 39.5t-59.5 20.5t-63.5 6q-5 -32 -8 -65.5t-3 -68.5v-297q0 -44 -55 -117q61 35 117 35q15 0 32.5 -4t36.5 -8.5t39 -8.5t38 -4q62 0 145 87zM476 915l-181 -78l-27 25l154 114z" />
<glyph unicode="&#x13a;" horiz-adv-x="295" d="M176 -9l-102 76v510q0 59 -49 63v18l180 95v-617q0 -65 62 -65v-24zM289 915l-181 -78l-27 25l154 114z" />
<glyph unicode="&#x13b;" horiz-adv-x="667" d="M632 185q-17 -37 -35.5 -72t-43.5 -62t-58.5 -43t-80.5 -16q-45 0 -95.5 6t-101.5 6q-41 0 -75 -3.5t-79 -13.5l-23 38q33 31 48.5 66.5t15.5 80.5v301q0 78 -50 104l4 28q44 11 83.5 30t78.5 45q24 16 48 29.5t46.5 23.5t43.5 16t39 6q31 0 61.5 -16.5t56.5 -41.5 t45.5 -55t27.5 -58q-37 -7 -72.5 -21t-70.5 -34q0 38 -17 63t-44 39.5t-59.5 20.5t-63.5 6q-5 -32 -8 -65.5t-3 -68.5v-297q0 -44 -55 -117q61 35 117 35q15 0 32.5 -4t36.5 -8.5t39 -8.5t38 -4q62 0 145 87zM284 -192l-18 9l47 58l-51 47l76 67l66 -60z" />
<glyph unicode="&#x13c;" horiz-adv-x="295" d="M176 -9l-102 76v510q0 59 -49 63v18l180 95v-617q0 -65 62 -65v-24zM99 -192l-18 9l47 58l-51 47l76 67l66 -60z" />
<glyph unicode="&#x13d;" horiz-adv-x="667" d="M632 185q-17 -37 -35.5 -72t-43.5 -62t-58.5 -43t-80.5 -16q-45 0 -95.5 6t-101.5 6q-41 0 -75 -3.5t-79 -13.5l-23 38q33 31 48.5 66.5t15.5 80.5v301q0 78 -50 104l4 28q44 11 83.5 30t78.5 45q24 16 48 29.5t46.5 23.5t43.5 16t39 6q31 0 61.5 -16.5t56.5 -41.5 t45.5 -55t27.5 -58q-37 -7 -72.5 -21t-70.5 -34q0 38 -17 63t-44 39.5t-59.5 20.5t-63.5 6q-5 -32 -8 -65.5t-3 -68.5v-297q0 -44 -55 -117q61 35 117 35q15 0 32.5 -4t36.5 -8.5t39 -8.5t38 -4q62 0 145 87zM591 666l-18 9l47 58l-51 47l76 67l66 -60z" />
<glyph unicode="&#x13e;" horiz-adv-x="360" d="M176 -9l-102 76v510q0 59 -49 63v18l180 95v-617q0 -65 62 -65v-24zM260 617l-18 9l47 58l-51 47l76 67l66 -60z" />
<glyph unicode="&#x13f;" horiz-adv-x="667" d="M632 185q-17 -37 -35.5 -72t-43.5 -62t-58.5 -43t-80.5 -16q-45 0 -95.5 6t-101.5 6q-41 0 -75 -3.5t-79 -13.5l-23 38q33 31 48.5 66.5t15.5 80.5v301q0 78 -50 104l4 28q44 11 83.5 30t78.5 45q24 16 48 29.5t46.5 23.5t43.5 16t39 6q31 0 61.5 -16.5t56.5 -41.5 t45.5 -55t27.5 -58q-37 -7 -72.5 -21t-70.5 -34q0 38 -17 63t-44 39.5t-59.5 20.5t-63.5 6q-5 -32 -8 -65.5t-3 -68.5v-297q0 -44 -55 -117q61 35 117 35q15 0 32.5 -4t36.5 -8.5t39 -8.5t38 -4q62 0 145 87zM360 266l-77 91l87 96l77 -84z" />
<glyph unicode="&#x140;" horiz-adv-x="385" d="M176 -9l-102 76v510q0 59 -49 63v18l180 95v-617q0 -65 62 -65v-24zM307 279l-77 91l87 96l77 -84z" />
<glyph unicode="&#x141;" horiz-adv-x="682" d="M640 185q-26 -61 -49.5 -97t-43.5 -53q-30 -25 -60 -34t-65 -9q-43 0 -93 6t-87 6h-31q-29 0 -59.5 -4.5t-80.5 -12.5l-23 38q33 31 48.5 66.5t15.5 80.5v123l-61 -25l-15 35l76 33v135q0 78 -50 104l4 28q44 11 83.5 30t78.5 45q24 16 48 29.5t46.5 23.5t43.5 16t39 6 q31 0 61.5 -16.5t56.5 -41.5t45.5 -55t27.5 -58q-37 -7 -72.5 -21t-70.5 -34v13q0 30 -15 52t-39 36.5t-55 21t-63 6.5h-12q-5 -32 -8 -65.5t-3 -68.5v-123l75 33l16 -36l-91 -39v-132q0 -43 -56 -117l2 1q58 34 116 34q51 0 122 -21q9 -4 24 -4q61 0 145 87z" />
<glyph unicode="&#x142;" horiz-adv-x="323" d="M15 350l73 19v208q0 59 -49 63v18l180 95v-348l63 17l10 -38l-73 -20v-228q2 -65 61 -65v-24l-90 -56l-102 76v262l-63 -17z" />
<glyph unicode="&#x143;" horiz-adv-x="776" d="M102 619q0 63 -67 75v30l176 38l387 -478v372q0 50 -68 50v40h210v-40q-35 -1 -50 -10.5t-15 -28.5v-667h-77v49l-415 520v-451q0 -143 -124 -304l-21 13q64 141 64 280v512zM531 915l-181 -78l-27 25l154 114z" />
<glyph unicode="&#x144;" d="M74 335q0 59 -49 63v18l110 95q59 -16 70 -67q104 21 168 67q81 -20 113.5 -75.5t32.5 -152.5q0 -57 -8.5 -126t-26.5 -157h-170q84 195 84 289q0 61 -38 78q-42 19 -85 19q-39 0 -70 -19v-367h-131v335zM429 622l-181 -78l-27 25l154 114z" />
<glyph unicode="&#x145;" horiz-adv-x="776" d="M102 619q0 63 -67 75v30l176 38l387 -478v372q0 50 -68 50v40h210v-40q-35 -1 -50 -10.5t-15 -28.5v-667h-77v49l-415 520v-451q0 -143 -124 -304l-21 13q64 141 64 280v512zM339 -192l-18 9l47 58l-51 47l76 67l66 -60z" />
<glyph unicode="&#x146;" d="M74 335q0 59 -49 63v18l110 95q59 -16 70 -67q104 21 168 67q81 -20 113.5 -75.5t32.5 -152.5q0 -57 -8.5 -126t-26.5 -157h-170q84 195 84 289q0 61 -38 78q-42 19 -85 19q-39 0 -70 -19v-367h-131v335zM197 -192l-18 9l47 58l-51 47l76 67l66 -60z" />
<glyph unicode="&#x147;" horiz-adv-x="776" d="M102 619q0 63 -67 75v30l176 38l387 -478v372q0 50 -68 50v40h210v-40q-35 -1 -50 -10.5t-15 -28.5v-667h-77v49l-415 520v-451q0 -143 -124 -304l-21 13q64 141 64 280v512zM412 836h-52l-108 139h65l72 -105l77 105h57z" />
<glyph unicode="&#x148;" d="M74 335q0 59 -49 63v18l110 95q59 -16 70 -67q104 21 168 67q81 -20 113.5 -75.5t32.5 -152.5q0 -57 -8.5 -126t-26.5 -157h-170q84 195 84 289q0 61 -38 78q-42 19 -85 19q-39 0 -70 -19v-367h-131v335zM309 543h-52l-108 139h65l72 -105l77 105h57z" />
<glyph unicode="&#x149;" d="M74 335q0 59 -49 63v18l110 95q59 -16 70 -67q104 21 168 67q81 -20 113.5 -75.5t32.5 -152.5q0 -57 -8.5 -126t-26.5 -157h-170q84 195 84 289q0 61 -38 78q-42 19 -85 19q-39 0 -70 -19v-367h-131v335zM77 617l-18 9l47 58l-51 47l76 67l66 -60z" />
<glyph unicode="&#x14a;" horiz-adv-x="776" d="M365 -156q35 10 67 25.5t57 37t39.5 50t14.5 65.5v96l-360 451v-451q0 -143 -124 -304l-21 13q64 141 64 280v512q0 63 -67 75v30l176 38l387 -478v372q0 50 -68 50v40h210v-40q-35 -1 -50 -10.5t-15 -28.5v-485q0 -177 -77 -265t-233 -101v28z" />
<glyph unicode="&#x14b;" d="M74 335q0 59 -49 63v18l110 95q59 -16 70 -67q104 21 168 67q81 -20 113.5 -75.5t32.5 -152.5q0 -78 -15 -145t-50 -121t-93 -92.5t-143 -59.5l-17 42q53 18 90.5 59t61 94t34.5 113t11 116q0 28 -9 46.5t-25.5 29.5t-39 16t-49.5 5q-39 0 -70 -19v-367h-131v335z" />
<glyph unicode="&#x14c;" horiz-adv-x="760" d="M188 569q-40 -65 -40 -125q0 -49 16.5 -93t44.5 -82t64.5 -68.5t76 -52.5t80 -33.5t75.5 -11.5q49 0 87 24q15 30 24 67.5t9 85.5q0 57 -17 107.5t-52 95.5q-21 26 -46 49.5t-54 41.5t-62.5 28.5t-70.5 10.5q-61 0 -135 -44zM407 764q87 -46 145.5 -96t94 -104t51 -112.5 t15.5 -120.5t-27.5 -119t-74.5 -102.5t-108.5 -77t-128.5 -43.5q-63 23 -121 58.5t-102.5 82t-71.5 102.5t-27 119q0 69 22 124t66 103t111 92.5t156 93.5zM277 921h226l-20 -53h-225z" />
<glyph unicode="&#x14d;" horiz-adv-x="516" d="M133 373q-13 -27 -13 -64q0 -46 22.5 -86t56.5 -70t74.5 -47.5t76.5 -17.5q18 0 40 8q14 33 14 63q0 41 -19 81t-50 71t-71 50t-82 19q-12 0 -24.5 -1.5t-24.5 -5.5zM272 517q57 -34 96.5 -69t63.5 -71.5t35 -76t11 -83.5q0 -41 -18.5 -79t-49.5 -69t-72.5 -52.5 t-87.5 -29.5q-45 16 -84.5 40.5t-69 56t-46.5 68.5t-17 78q0 48 14.5 85.5t44.5 70t75 64t105 67.5zM155 628h226l-20 -53h-225z" />
<glyph unicode="&#x14e;" horiz-adv-x="760" d="M188 569q-40 -65 -40 -125q0 -49 16.5 -93t44.5 -82t64.5 -68.5t76 -52.5t80 -33.5t75.5 -11.5q49 0 87 24q15 30 24 67.5t9 85.5q0 57 -17 107.5t-52 95.5q-21 26 -46 49.5t-54 41.5t-62.5 28.5t-70.5 10.5q-61 0 -135 -44zM407 764q87 -46 145.5 -96t94 -104t51 -112.5 t15.5 -120.5t-27.5 -119t-74.5 -102.5t-108.5 -77t-128.5 -43.5q-63 23 -121 58.5t-102.5 82t-71.5 102.5t-27 119q0 69 22 124t66 103t111 92.5t156 93.5zM515 956q-33 -120 -140 -120t-131 120h88q12 -86 67 -86q56 0 71 86h45z" />
<glyph unicode="&#x14f;" horiz-adv-x="516" d="M133 373q-13 -27 -13 -64q0 -46 22.5 -86t56.5 -70t74.5 -47.5t76.5 -17.5q18 0 40 8q14 33 14 63q0 41 -19 81t-50 71t-71 50t-82 19q-12 0 -24.5 -1.5t-24.5 -5.5zM272 517q57 -34 96.5 -69t63.5 -71.5t35 -76t11 -83.5q0 -41 -18.5 -79t-49.5 -69t-72.5 -52.5 t-87.5 -29.5q-45 16 -84.5 40.5t-69 56t-46.5 68.5t-17 78q0 48 14.5 85.5t44.5 70t75 64t105 67.5zM393 663q-33 -120 -140 -120t-131 120h88q12 -86 67 -86q56 0 71 86h45z" />
<glyph unicode="&#x150;" horiz-adv-x="760" d="M188 569q-40 -65 -40 -125q0 -49 16.5 -93t44.5 -82t64.5 -68.5t76 -52.5t80 -33.5t75.5 -11.5q49 0 87 24q15 30 24 67.5t9 85.5q0 57 -17 107.5t-52 95.5q-21 26 -46 49.5t-54 41.5t-62.5 28.5t-70.5 10.5q-61 0 -135 -44zM407 764q87 -46 145.5 -96t94 -104t51 -112.5 t15.5 -120.5t-27.5 -119t-74.5 -102.5t-108.5 -77t-128.5 -43.5q-63 23 -121 58.5t-102.5 82t-71.5 102.5t-27 119q0 69 22 124t66 103t111 92.5t156 93.5zM572 923l-146 -107l-31 20l138 115zM443 923l-145 -107l-32 20l139 115z" />
<glyph unicode="&#x151;" horiz-adv-x="516" d="M133 373q-13 -27 -13 -64q0 -46 22.5 -86t56.5 -70t74.5 -47.5t76.5 -17.5q18 0 40 8q14 33 14 63q0 41 -19 81t-50 71t-71 50t-82 19q-12 0 -24.5 -1.5t-24.5 -5.5zM272 517q57 -34 96.5 -69t63.5 -71.5t35 -76t11 -83.5q0 -41 -18.5 -79t-49.5 -69t-72.5 -52.5 t-87.5 -29.5q-45 16 -84.5 40.5t-69 56t-46.5 68.5t-17 78q0 48 14.5 85.5t44.5 70t75 64t105 67.5zM450 630l-146 -107l-31 20l138 115zM321 630l-145 -107l-32 20l139 115z" />
<glyph unicode="&#x152;" horiz-adv-x="1308" d="M185 576q-41 -71 -41 -129q0 -50 17 -95.5t45.5 -85t65.5 -71t77.5 -54t81 -34.5t76.5 -12q24 0 46.5 6t41.5 19q34 61 34 158q0 118 -70 209q-21 27 -46.5 51.5t-55 42.5t-63.5 29t-72 11q-61 0 -137 -45zM1263 213q-33 -45 -68.5 -85.5t-77.5 -71.5t-93 -50t-115 -20 q-82 0 -154.5 39.5t-120.5 108.5q-48 -57 -115 -94t-145 -51q-63 23 -121 58.5t-102.5 82t-71.5 102.5t-27 119q0 69 22 124t66 103t111 92.5t156 93.5q81 -42 135 -86.5t90 -92.5q67 90 144.5 129.5t183.5 39.5q83 0 144 -27.5t116 -80.5l-131 -110l-23 30q1 4 1.5 7t0.5 7 q0 16 -9 31.5t-26 28.5t-41.5 21t-55.5 8q-49 0 -90 -19t-71 -53.5t-46.5 -83.5t-16.5 -109l496 58l-95 -181h-18q-4 48 -63 50l-313 10q10 -62 35 -108.5t58.5 -77.5t73 -46.5t78.5 -15.5q54 0 96 15t74 38t55.5 50t41.5 52z" />
<glyph unicode="&#x153;" horiz-adv-x="784" d="M272 517q60 -35 98.5 -70t63.5 -73q25 37 64 70.5t93 72.5q80 -49 136 -135l-218 -218q29 -33 61 -47.5t69 -14.5q47 0 90 22l13 -6q-67 -114 -169 -131q-42 18 -77.5 45.5t-60.5 64.5q-32 -42 -80 -71t-105 -39q-45 16 -84.5 40.5t-69 56t-46.5 68.5t-17 78 q0 48 14.5 85.5t44.5 70t75 64t105 67.5zM496 399q-27 -68 -27 -122q0 -40 17 -80l115 115q-20 79 -105 87zM133 373q-13 -27 -13 -64q0 -46 22.5 -86t56.5 -70t74.5 -47.5t76.5 -17.5q18 0 40 8q14 33 14 63q0 41 -19 81t-50 71t-71 50t-82 19q-12 0 -24.5 -1.5t-24.5 -5.5 z" />
<glyph unicode="&#x154;" horiz-adv-x="745" d="M408 451q56 39 77 76.5t21 76.5q0 54 -28.5 78.5t-66.5 24.5q-20 0 -44 -6t-46 -22.5t-38.5 -46t-21.5 -75.5v-208zM48 651q51 0 132 31q34 16 62.5 29.5t57 23t58.5 14.5t68 5q108 0 161 -37t53 -106q-1 -46 -37.5 -83.5t-96.5 -78.5l-86 -59q34 -69 77 -123t91 -99 q16 -17 32.5 -26.5t36.5 -9.5q33 0 74 33l21 -24q-31 -25 -74.5 -67t-100.5 -100q-72 106 -137.5 190t-125.5 153l-52 -36v-82q0 -43 20.5 -76t66.5 -56v-61q-35 10 -72 17t-69 7q-48 0 -83.5 -14.5t-54.5 -28.5l-28 41q36 22 52.5 48t16.5 56v397q0 81 -63 84v38zM516 915 l-181 -78l-27 25l154 114z" />
<glyph unicode="&#x155;" horiz-adv-x="415" d="M74 335q0 59 -49 63v18l110 95q59 -16 70 -67q29 51 96 67q24 -55 88 -67l-96 -79l-5 2q-9 28 -31 28q-21 0 -52 -28v-367h-131v335zM351 622l-181 -78l-27 25l154 114z" />
<glyph unicode="&#x156;" horiz-adv-x="745" d="M408 451q56 39 77 76.5t21 76.5q0 54 -28.5 78.5t-66.5 24.5q-20 0 -44 -6t-46 -22.5t-38.5 -46t-21.5 -75.5v-208zM48 651q51 0 132 31q34 16 62.5 29.5t57 23t58.5 14.5t68 5q108 0 161 -37t53 -106q-1 -46 -37.5 -83.5t-96.5 -78.5l-86 -59q34 -69 77 -123t91 -99 q16 -17 32.5 -26.5t36.5 -9.5q33 0 74 33l21 -24q-31 -25 -74.5 -67t-100.5 -100q-72 106 -137.5 190t-125.5 153l-52 -36v-82q0 -43 20.5 -76t66.5 -56v-61q-35 10 -72 17t-69 7q-48 0 -83.5 -14.5t-54.5 -28.5l-28 41q36 22 52.5 48t16.5 56v397q0 81 -63 84v38zM323 -192 l-18 9l47 58l-51 47l76 67l66 -60z" />
<glyph unicode="&#x157;" horiz-adv-x="415" d="M74 335q0 59 -49 63v18l110 95q59 -16 70 -67q29 51 96 67q24 -55 88 -67l-96 -79l-5 2q-9 28 -31 28q-21 0 -52 -28v-367h-131v335zM83 -192l-18 9l47 58l-51 47l76 67l66 -60z" />
<glyph unicode="&#x158;" horiz-adv-x="745" d="M408 451q56 39 77 76.5t21 76.5q0 54 -28.5 78.5t-66.5 24.5q-20 0 -44 -6t-46 -22.5t-38.5 -46t-21.5 -75.5v-208zM48 651q51 0 132 31q34 16 62.5 29.5t57 23t58.5 14.5t68 5q108 0 161 -37t53 -106q-1 -46 -37.5 -83.5t-96.5 -78.5l-86 -59q34 -69 77 -123t91 -99 q16 -17 32.5 -26.5t36.5 -9.5q33 0 74 33l21 -24q-31 -25 -74.5 -67t-100.5 -100q-72 106 -137.5 190t-125.5 153l-52 -36v-82q0 -43 20.5 -76t66.5 -56v-61q-35 10 -72 17t-69 7q-48 0 -83.5 -14.5t-54.5 -28.5l-28 41q36 22 52.5 48t16.5 56v397q0 81 -63 84v38zM396 836 h-52l-108 139h65l72 -105l77 105h57z" />
<glyph unicode="&#x159;" horiz-adv-x="415" d="M74 335q0 59 -49 63v18l110 95q59 -16 70 -67q29 51 96 67q24 -55 88 -67l-96 -79l-5 2q-9 28 -31 28q-21 0 -52 -28v-367h-131v335zM231 543h-52l-108 139h65l72 -105l77 105h57z" />
<glyph unicode="&#x15a;" horiz-adv-x="709" d="M221 628q-27 -56 -27 -105q0 -72 50 -110.5t138 -38.5q66 0 123 10t111 33q22 -49 36 -100.5t14 -109.5q0 -88 -114 -154q-113 -65 -228 -84q-36 10 -76.5 25.5t-80 35.5t-73.5 43.5t-56 48.5q90 32 156 76q48 -82 100.5 -114t116.5 -32q50 0 108 23q10 41 10 72 q0 46 -21 79t-56 53t-80.5 29.5t-94.5 9.5q-104 0 -164 -22q-70 98 -70 179q0 96 107 161q51 31 113 64t134 67q75 -33 135.5 -72.5t111.5 -85.5q-71 -19 -139 -75q-9 20 -27 40.5t-42.5 37t-54.5 26.5t-63 10q-45 0 -97 -20zM498 915l-181 -78l-27 25l154 114z" />
<glyph unicode="&#x15b;" horiz-adv-x="540" d="M177 412q-19 -34 -19 -62q0 -21 10.5 -38t28.5 -29t43 -18.5t55 -6.5q46 0 87 6.5t79 21.5q17 -34 27.5 -70.5t10.5 -74.5q0 -26 -22 -50.5t-57.5 -45t-80 -35.5t-89.5 -21q-26 7 -55 17t-57.5 22.5t-53 27.5t-41.5 32q65 19 121 61q37 -55 78 -76t95 -21q14 0 27.5 1 t27.5 4q2 6 2 15q0 55 -39.5 91.5t-120.5 36.5q-45 0 -77 -3t-55 -12q-54 70 -54 127q0 31 19.5 56.5t53.5 48t80.5 43t101.5 41.5q54 -22 99 -47t80 -54q-51 -13 -113 -64q-6 17 -21.5 31.5t-37 25t-47 16.5t-50.5 6q-18 0 -36 -3zM413 622l-181 -78l-27 25l154 114z" />
<glyph unicode="&#x15c;" horiz-adv-x="709" d="M221 628q-27 -56 -27 -105q0 -72 50 -110.5t138 -38.5q66 0 123 10t111 33q22 -49 36 -100.5t14 -109.5q0 -88 -114 -154q-113 -65 -228 -84q-36 10 -76.5 25.5t-80 35.5t-73.5 43.5t-56 48.5q90 32 156 76q48 -82 100.5 -114t116.5 -32q50 0 108 23q10 41 10 72 q0 46 -21 79t-56 53t-80.5 29.5t-94.5 9.5q-104 0 -164 -22q-70 98 -70 179q0 96 107 161q51 31 113 64t134 67q75 -33 135.5 -72.5t111.5 -85.5q-71 -19 -139 -75q-9 20 -27 40.5t-42.5 37t-54.5 26.5t-63 10q-45 0 -97 -20zM330 976h52l108 -139h-60l-73 109l-70 -109h-68 z" />
<glyph unicode="&#x15d;" horiz-adv-x="540" d="M177 412q-19 -34 -19 -62q0 -21 10.5 -38t28.5 -29t43 -18.5t55 -6.5q46 0 87 6.5t79 21.5q17 -34 27.5 -70.5t10.5 -74.5q0 -26 -22 -50.5t-57.5 -45t-80 -35.5t-89.5 -21q-26 7 -55 17t-57.5 22.5t-53 27.5t-41.5 32q65 19 121 61q37 -55 78 -76t95 -21q14 0 27.5 1 t27.5 4q2 6 2 15q0 55 -39.5 91.5t-120.5 36.5q-45 0 -77 -3t-55 -12q-54 70 -54 127q0 31 19.5 56.5t53.5 48t80.5 43t101.5 41.5q54 -22 99 -47t80 -54q-51 -13 -113 -64q-6 17 -21.5 31.5t-37 25t-47 16.5t-50.5 6q-18 0 -36 -3zM246 683h52l108 -139h-60l-73 109 l-70 -109h-68z" />
<glyph unicode="&#x15e;" horiz-adv-x="709" d="M392 -150q4 15 4 36q0 24 -8.5 38t-21 23t-26.5 14t-25 11q-35 10 -74.5 25t-77.5 34.5t-71 42.5t-54 48q90 32 156 76q48 -82 100.5 -114t116.5 -32q50 0 108 23q10 41 10 72q0 46 -21 79t-56 53t-80.5 29.5t-94.5 9.5q-104 0 -164 -22q-70 98 -70 179q0 96 107 161 q51 31 113 64t134 67q75 -33 135.5 -72.5t111.5 -85.5q-71 -19 -139 -75q-9 20 -27 40.5t-42.5 37t-54.5 26.5t-63 10q-45 0 -97 -20q-27 -56 -27 -105q0 -72 50 -110.5t138 -38.5q66 0 123 10t111 33q22 -49 36 -100.5t14 -109.5q0 -90 -114 -154q-45 -26 -88 -44t-89 -29 q28 -5 44.5 -24.5t16.5 -45.5q0 -17 -8.5 -33.5t-21.5 -30.5t-28 -24.5t-28 -14.5q-37 10 -51 40l36 28q19 -23 57 -25z" />
<glyph unicode="&#x15f;" horiz-adv-x="540" d="M313 -150q4 15 4 36q0 34 -18.5 49.5t-63.5 17.5q0 20 8 38q-24 7 -52.5 16.5t-56 22t-51.5 27t-40 31.5q65 19 121 61q37 -55 78 -76t95 -21q14 0 27.5 1t27.5 4q2 6 2 15q0 55 -39.5 91.5t-120.5 36.5q-45 0 -77 -3t-55 -12q-54 70 -54 127q0 31 19.5 56.5t53.5 48 t80.5 43t101.5 41.5q54 -22 99 -47t80 -54q-51 -13 -113 -64q-6 17 -21.5 31.5t-37 25t-47 16.5t-50.5 6q-18 0 -36 -3q-19 -34 -19 -62q0 -21 10.5 -38t28.5 -29t43 -18.5t55 -6.5q46 0 87 6.5t79 21.5q17 -34 27.5 -70.5t10.5 -74.5q0 -24 -19.5 -47.5t-51.5 -43 t-72.5 -34.5t-82.5 -23v-12h8q35 0 55.5 -21t20.5 -50q0 -17 -8.5 -33.5t-21.5 -30.5t-28 -24.5t-28 -14.5q-37 10 -51 40l36 28q19 -23 57 -25z" />
<glyph unicode="&#x160;" horiz-adv-x="709" d="M221 628q-27 -56 -27 -105q0 -72 50 -110.5t138 -38.5q66 0 123 10t111 33q22 -49 36 -100.5t14 -109.5q0 -88 -114 -154q-113 -65 -228 -84q-36 10 -76.5 25.5t-80 35.5t-73.5 43.5t-56 48.5q90 32 156 76q48 -82 100.5 -114t116.5 -32q50 0 108 23q10 41 10 72 q0 46 -21 79t-56 53t-80.5 29.5t-94.5 9.5q-104 0 -164 -22q-70 98 -70 179q0 96 107 161q51 31 113 64t134 67q75 -33 135.5 -72.5t111.5 -85.5q-71 -19 -139 -75q-9 20 -27 40.5t-42.5 37t-54.5 26.5t-63 10q-45 0 -97 -20zM379 836h-52l-108 139h65l72 -105l77 105h57z " />
<glyph unicode="&#x161;" horiz-adv-x="540" d="M177 412q-19 -34 -19 -62q0 -21 10.5 -38t28.5 -29t43 -18.5t55 -6.5q46 0 87 6.5t79 21.5q17 -34 27.5 -70.5t10.5 -74.5q0 -26 -22 -50.5t-57.5 -45t-80 -35.5t-89.5 -21q-26 7 -55 17t-57.5 22.5t-53 27.5t-41.5 32q65 19 121 61q37 -55 78 -76t95 -21q14 0 27.5 1 t27.5 4q2 6 2 15q0 55 -39.5 91.5t-120.5 36.5q-45 0 -77 -3t-55 -12q-54 70 -54 127q0 31 19.5 56.5t53.5 48t80.5 43t101.5 41.5q54 -22 99 -47t80 -54q-51 -13 -113 -64q-6 17 -21.5 31.5t-37 25t-47 16.5t-50.5 6q-18 0 -36 -3zM295 543h-52l-108 139h65l72 -105l77 105 h57z" />
<glyph unicode="&#x162;" horiz-adv-x="786" d="M745 189q-24 -38 -51.5 -74t-63.5 -65t-81.5 -46.5t-104.5 -17.5q-55 0 -111.5 28t-102 79.5t-74 123t-28.5 158.5q0 85 30.5 149.5t84.5 109.5q-35 0 -61.5 -0.5t-48 -6.5t-41 -20t-41.5 -41l-28 18q26 48 60.5 79.5t78.5 50.5t100 27t125 8q116 0 284 -18l-76 -156 q-152 49 -269 56q-81 -72 -81 -208q0 -89 39 -161q26 -49 56.5 -81t63.5 -51t67 -27t66 -8q30 0 52.5 5.5t42 19t38.5 35.5t42 56zM344 -192l-18 9l47 58l-51 47l76 67l66 -60z" />
<glyph unicode="&#x163;" horiz-adv-x="331" d="M69 67v289q0 59 -49 63v18l180 176v-119h100v-79h-100v-279q0 -65 62 -65v-24l-91 -56zM116 -192l-18 9l47 58l-51 47l76 67l66 -60z" />
<glyph unicode="&#x164;" horiz-adv-x="786" d="M745 189q-24 -38 -51.5 -74t-63.5 -65t-81.5 -46.5t-104.5 -17.5q-55 0 -111.5 28t-102 79.5t-74 123t-28.5 158.5q0 85 30.5 149.5t84.5 109.5q-35 0 -61.5 -0.5t-48 -6.5t-41 -20t-41.5 -41l-28 18q26 48 60.5 79.5t78.5 50.5t100 27t125 8q116 0 284 -18l-76 -156 q-152 49 -269 56q-81 -72 -81 -208q0 -89 39 -161q26 -49 56.5 -81t63.5 -51t67 -27t66 -8q30 0 52.5 5.5t42 19t38.5 35.5t42 56zM417 836h-52l-108 139h65l72 -105l77 105h57z" />
<glyph unicode="&#x165;" horiz-adv-x="373" d="M69 67v289q0 59 -49 63v18l180 176v-119h100v-79h-100v-279q0 -65 62 -65v-24l-91 -56zM267 617l-18 9l47 58l-51 47l76 67l66 -60z" />
<glyph unicode="&#x166;" horiz-adv-x="786" d="M91 484h52q14 48 39.5 84.5t60.5 65.5q-35 0 -61.5 -0.5t-48 -6.5t-41 -20t-41.5 -41l-28 18q21 63 130 127q65 38 234 38q116 0 284 -18l-76 -156q-152 49 -269 56q-62 -56 -77 -147h279l-19 -53h-264v-8q0 -89 39 -161q26 -49 56.5 -81t63.5 -51t67 -27t66 -8 q30 0 52.5 5.5t42 19t38.5 35.5t42 56l33 -22q-24 -38 -51.5 -74t-63.5 -65t-81.5 -46.5t-104.5 -17.5q-55 0 -111.5 28t-102 79.5t-74 123t-28.5 158.5q0 14 1 28t3 28h-61z" />
<glyph unicode="&#x167;" horiz-adv-x="331" d="M45 332h24v24q0 59 -49 63v18l180 176v-119h100v-79h-100v-83h100l-20 -53h-80v-143q0 -65 62 -65v-24l-91 -56l-102 76v212h-43z" />
<glyph unicode="&#x168;" horiz-adv-x="773" d="M524 647q0 33 -20.5 48t-48.5 15v36h274v-36q-63 -3 -63 -74v-464q0 -63 66 -78l-1 -28l-110 -81q-15 6 -31.5 16.5t-30 25.5t-22.5 33.5t-11 38.5q-24 -51 -69 -77.5t-120 -26.5q-39 0 -86.5 19t-89 59t-70 102t-28.5 148q0 104 35 194.5t94 179.5h-122v49h319v-41 q-52 -14 -86.5 -45.5t-55.5 -74.5t-29.5 -93.5t-8.5 -101.5q0 -59 15 -109.5t41 -87.5t62.5 -57.5t79.5 -20.5q28 0 50 10t37 27t22.5 40t7.5 50v405zM227 908q36 81 98 84q20 -2 42 -10.5t43 -27.5q13 -11 22.5 -18t18.5 -6q30 0 42 65l52 -17q-29 -87 -107 -87 q-15 0 -34 10.5t-48 35.5q-20 15 -34 15q-32 0 -55 -59z" />
<glyph unicode="&#x169;" d="M502 170q0 -59 49 -63v-18l-111 -95q-60 17 -67 84q-89 -26 -171 -84q-86 22 -120.5 77.5t-34.5 146.5q0 27 4.5 54t10.5 53t10.5 50.5t4.5 45.5q0 46 -20 84h140q20 -26 20 -72q0 -26 -5.5 -59t-18.5 -71q-11 -32 -16.5 -55.5t-5.5 -44.5q0 -24 8.5 -41t23 -27 t34.5 -14.5t43 -4.5q51 0 90 30v359h132v-335zM126 615q36 81 98 84q20 -2 42 -10.5t43 -27.5q13 -11 22.5 -18t18.5 -6q30 0 42 65l52 -17q-29 -87 -107 -87q-15 0 -34 10.5t-48 35.5q-20 15 -34 15q-32 0 -55 -59z" />
<glyph unicode="&#x16a;" horiz-adv-x="773" d="M524 647q0 33 -20.5 48t-48.5 15v36h274v-36q-63 -3 -63 -74v-464q0 -63 66 -78l-1 -28l-110 -81q-15 6 -31.5 16.5t-30 25.5t-22.5 33.5t-11 38.5q-24 -51 -69 -77.5t-120 -26.5q-39 0 -86.5 19t-89 59t-70 102t-28.5 148q0 104 35 194.5t94 179.5h-122v49h319v-41 q-52 -14 -86.5 -45.5t-55.5 -74.5t-29.5 -93.5t-8.5 -101.5q0 -59 15 -109.5t41 -87.5t62.5 -57.5t79.5 -20.5q28 0 50 10t37 27t22.5 40t7.5 50v405zM283 921h226l-20 -53h-225z" />
<glyph unicode="&#x16b;" d="M502 170q0 -59 49 -63v-18l-111 -95q-60 17 -67 84q-89 -26 -171 -84q-86 22 -120.5 77.5t-34.5 146.5q0 27 4.5 54t10.5 53t10.5 50.5t4.5 45.5q0 46 -20 84h140q20 -26 20 -72q0 -26 -5.5 -59t-18.5 -71q-11 -32 -16.5 -55.5t-5.5 -44.5q0 -24 8.5 -41t23 -27 t34.5 -14.5t43 -4.5q51 0 90 30v359h132v-335zM182 628h226l-20 -53h-225z" />
<glyph unicode="&#x16c;" horiz-adv-x="773" d="M524 647q0 33 -20.5 48t-48.5 15v36h274v-36q-63 -3 -63 -74v-464q0 -63 66 -78l-1 -28l-110 -81q-15 6 -31.5 16.5t-30 25.5t-22.5 33.5t-11 38.5q-24 -51 -69 -77.5t-120 -26.5q-39 0 -86.5 19t-89 59t-70 102t-28.5 148q0 104 35 194.5t94 179.5h-122v49h319v-41 q-52 -14 -86.5 -45.5t-55.5 -74.5t-29.5 -93.5t-8.5 -101.5q0 -59 15 -109.5t41 -87.5t62.5 -57.5t79.5 -20.5q28 0 50 10t37 27t22.5 40t7.5 50v405zM522 956q-33 -120 -140 -120t-131 120h88q12 -86 67 -86q56 0 71 86h45z" />
<glyph unicode="&#x16d;" d="M502 170q0 -59 49 -63v-18l-111 -95q-60 17 -67 84q-89 -26 -171 -84q-86 22 -120.5 77.5t-34.5 146.5q0 27 4.5 54t10.5 53t10.5 50.5t4.5 45.5q0 46 -20 84h140q20 -26 20 -72q0 -26 -5.5 -59t-18.5 -71q-11 -32 -16.5 -55.5t-5.5 -44.5q0 -24 8.5 -41t23 -27 t34.5 -14.5t43 -4.5q51 0 90 30v359h132v-335zM420 663q-33 -120 -140 -120t-131 120h88q12 -86 67 -86q56 0 71 86h45z" />
<glyph unicode="&#x16e;" horiz-adv-x="773" d="M524 647q0 33 -20.5 48t-48.5 15v36h274v-36q-63 -3 -63 -74v-464q0 -63 66 -78l-1 -28l-110 -81q-15 6 -31.5 16.5t-30 25.5t-22.5 33.5t-11 38.5q-24 -51 -69 -77.5t-120 -26.5q-39 0 -86.5 19t-89 59t-70 102t-28.5 148q0 104 35 194.5t94 179.5h-122v49h319v-41 q-52 -14 -86.5 -45.5t-55.5 -74.5t-29.5 -93.5t-8.5 -101.5q0 -59 15 -109.5t41 -87.5t62.5 -57.5t79.5 -20.5q28 0 50 10t37 27t22.5 40t7.5 50v405zM334 909q0 -21 14.5 -35.5t36.5 -14.5q21 0 35.5 14.5t14.5 35.5q0 22 -14.5 36.5t-35.5 14.5q-22 0 -36.5 -14.5 t-14.5 -36.5zM294 909q0 19 7 36t19 29.5t28.5 20t36.5 7.5q18 0 35 -7.5t30 -20t20.5 -29.5t7.5 -36t-7.5 -35.5t-20.5 -29t-30 -19.5t-35 -7q-39 0 -65 26.5t-26 64.5z" />
<glyph unicode="&#x16f;" d="M502 170q0 -59 49 -63v-18l-111 -95q-60 17 -67 84q-89 -26 -171 -84q-86 22 -120.5 77.5t-34.5 146.5q0 27 4.5 54t10.5 53t10.5 50.5t4.5 45.5q0 46 -20 84h140q20 -26 20 -72q0 -26 -5.5 -59t-18.5 -71q-11 -32 -16.5 -55.5t-5.5 -44.5q0 -24 8.5 -41t23 -27 t34.5 -14.5t43 -4.5q51 0 90 30v359h132v-335zM234 616q0 -21 14.5 -35.5t36.5 -14.5q21 0 35.5 14.5t14.5 35.5q0 22 -14.5 36.5t-35.5 14.5q-22 0 -36.5 -14.5t-14.5 -36.5zM194 616q0 19 7 36t19 29.5t28.5 20t36.5 7.5q18 0 35 -7.5t30 -20t20.5 -29.5t7.5 -36 t-7.5 -35.5t-20.5 -29t-30 -19.5t-35 -7q-39 0 -65 26.5t-26 64.5z" />
<glyph unicode="&#x170;" horiz-adv-x="773" d="M524 647q0 33 -20.5 48t-48.5 15v36h274v-36q-63 -3 -63 -74v-464q0 -63 66 -78l-1 -28l-110 -81q-15 6 -31.5 16.5t-30 25.5t-22.5 33.5t-11 38.5q-24 -51 -69 -77.5t-120 -26.5q-39 0 -86.5 19t-89 59t-70 102t-28.5 148q0 104 35 194.5t94 179.5h-122v49h319v-41 q-52 -14 -86.5 -45.5t-55.5 -74.5t-29.5 -93.5t-8.5 -101.5q0 -59 15 -109.5t41 -87.5t62.5 -57.5t79.5 -20.5q28 0 50 10t37 27t22.5 40t7.5 50v405zM579 923l-146 -107l-31 20l138 115zM450 923l-145 -107l-32 20l139 115z" />
<glyph unicode="&#x171;" d="M502 170q0 -59 49 -63v-18l-111 -95q-60 17 -67 84q-89 -26 -171 -84q-86 22 -120.5 77.5t-34.5 146.5q0 27 4.5 54t10.5 53t10.5 50.5t4.5 45.5q0 46 -20 84h140q20 -26 20 -72q0 -26 -5.5 -59t-18.5 -71q-11 -32 -16.5 -55.5t-5.5 -44.5q0 -24 8.5 -41t23 -27 t34.5 -14.5t43 -4.5q51 0 90 30v359h132v-335zM477 630l-146 -107l-31 20l138 115zM348 630l-145 -107l-32 20l139 115z" />
<glyph unicode="&#x172;" horiz-adv-x="773" d="M567 -112q18 -3 39 -3q35 0 71.5 6t59.5 17v-66q-11 -7 -32.5 -13t-45.5 -11t-46.5 -8t-34.5 -3q-14 4 -27.5 13t-24 21t-17 27.5t-6.5 33.5q22 32 47.5 55t49.5 38q-26 15 -48 42.5t-26 61.5q-24 -51 -69 -77.5t-120 -26.5q-39 0 -86.5 19t-89 59t-70 102t-28.5 148 q0 104 35 194.5t94 179.5h-122v49h319v-41q-52 -14 -86.5 -45.5t-55.5 -74.5t-29.5 -93.5t-8.5 -101.5q0 -59 15 -107t41 -82.5t62.5 -53.5t79.5 -19q57 0 87 37t30 91v391q0 33 -20.5 48t-48.5 15v36h274v-36q-63 -3 -63 -74v-464q0 -63 66 -78l-1 -28q-51 -35 -82 -60.5 t-48.5 -46t-24.5 -37.5t-9 -34z" />
<glyph unicode="&#x173;" d="M373 -112q18 -3 40 -3q34 0 70.5 6t59.5 17v-66q-11 -7 -32.5 -13t-45.5 -11t-46.5 -8t-34.5 -3q-27 8 -51 34t-24 61q26 36 55 61t55 39q-40 21 -46 76q-89 -26 -171 -84q-86 22 -120.5 77.5t-34.5 146.5q0 27 4.5 54t10.5 53t10.5 50.5t4.5 45.5q0 46 -20 84h140 q20 -26 20 -72q0 -26 -5.5 -59t-18.5 -71q-11 -32 -16.5 -55.5t-5.5 -44.5q0 -24 8.5 -41t23 -27t34.5 -14.5t43 -4.5q51 0 90 30v359h132v-335q0 -59 49 -63v-18q-58 -48 -92.5 -79.5t-53.5 -53.5t-25 -37t-7 -31z" />
<glyph unicode="&#x174;" horiz-adv-x="1133" d="M192 746q45 -40 73 -113t33 -176q10 -201 168 -347q131 110 131 240q0 55 -15 103.5t-42.5 85t-67.5 57.5t-89 21q-40 0 -76 -10l-4 20q85 50 120 119q5 0 11 0.5t10 0.5q52 0 96 -18.5t76.5 -49.5t52.5 -71.5t25 -83.5q4 -33 5.5 -60t1.5 -47q0 -11 -0.5 -19t-1.5 -15 q31 -155 159 -273q131 110 131 240q0 55 -15 103.5t-42.5 85t-67.5 57.5t-89 21q-40 0 -76 -10l-4 20q85 50 120 119q6 0 12 0.5t12 0.5q55 0 101.5 -20.5t80.5 -61t53.5 -100t19.5 -138.5q0 -114 -58 -197q-37 -54 -97.5 -116t-151.5 -131h-14q-117 119 -156 211 q-73 -96 -222 -211h-14q-229 226 -229 436q0 105 -31.5 180t-88.5 117v30h160zM542 976h52l108 -139h-60l-73 109l-70 -109h-68z" />
<glyph unicode="&#x175;" horiz-adv-x="825" d="M536 -17q-78 76 -112 137q-26 -32 -63.5 -66t-85.5 -71h-9q-160 157 -160 305q0 75 -19 117.5t-61 61.5v38h140q30 -28 46.5 -74.5t18.5 -121.5q3 -146 105 -220q82 76 82 178q0 27 -8.5 54.5t-24 49.5t-37 36t-48.5 14q-17 0 -47 -8l-8 22q58 34 83 82h15q28 0 57.5 -12 t53.5 -34t39.5 -53t15.5 -69t-10 -69q29 -135 107 -191q82 76 82 178q0 27 -8 54.5t-23.5 49.5t-37 36t-48.5 14q-18 0 -48 -8l-7 22q28 16 49.5 36.5t34.5 45.5q4 0 7.5 0.5t8.5 0.5q33 0 62 -11t51 -32t34.5 -52.5t12.5 -72.5q0 -54 -11.5 -99t-38.5 -87.5t-71 -86 t-110 -94.5h-9zM388 683h52l108 -139h-60l-73 109l-70 -109h-68z" />
<glyph unicode="&#x176;" horiz-adv-x="758" d="M186 746q45 -40 69.5 -113t29.5 -176q10 -201 168 -347q80 68 116 136t36 145q0 43 -13 83.5t-37.5 72t-60 51t-80.5 19.5q-37 0 -70 -10l-4 20q85 50 119 119q5 0 11 0.5t11 0.5q47 0 89 -15t73.5 -45t50 -74.5t18.5 -103.5q0 -74 -17 -137.5t-52 -122.5t-89 -115.5 t-128 -115.5q-10 -13 -10 -32q0 -26 14.5 -38t48.5 -12q50 0 132 67l28 -17q-42 -75 -100 -118t-130 -43q-24 0 -43.5 9.5t-33 24.5t-21 33t-7.5 35q0 42 41 80q-206 215 -206 412q0 105 -28 180t-85 117v30h160zM354 976h52l108 -139h-60l-73 109l-70 -109h-68z" />
<glyph unicode="&#x177;" horiz-adv-x="548" d="M243 9q-137 143 -137 279q0 75 -19 117.5t-61 61.5v38h140q32 -28 47.5 -74.5t17.5 -121.5q3 -146 105 -220q82 76 82 178q0 27 -8.5 54.5t-24 49.5t-37 36t-48.5 14q-17 0 -47 -8l-8 22q58 31 84 82q5 0 8.5 0.5t8.5 0.5q33 0 62 -11t50.5 -32t34.5 -52.5t13 -72.5 q0 -102 -49 -183t-132 -146q-38 -30 -63.5 -56.5t-41.5 -51t-22.5 -49.5t-6.5 -52h-121q21 72 62.5 122.5t110.5 74.5zM250 683h52l108 -139h-60l-73 109l-70 -109h-68z" />
<glyph unicode="&#x178;" horiz-adv-x="758" d="M186 746q45 -40 69.5 -113t29.5 -176q10 -201 168 -347q80 68 116 136t36 145q0 43 -13 83.5t-37.5 72t-60 51t-80.5 19.5q-37 0 -70 -10l-4 20q85 50 119 119q5 0 11 0.5t11 0.5q47 0 89 -15t73.5 -45t50 -74.5t18.5 -103.5q0 -74 -17 -137.5t-52 -122.5t-89 -115.5 t-128 -115.5q-10 -13 -10 -32q0 -26 14.5 -38t48.5 -12q50 0 132 67l28 -17q-42 -75 -100 -118t-130 -43q-24 0 -43.5 9.5t-33 24.5t-21 33t-7.5 35q0 42 41 80q-206 215 -206 412q0 105 -28 180t-85 117v30h160zM291 844l-64 68l72 76l63 -64zM459 844l-64 68l72 76l63 -64 z" />
<glyph unicode="&#x179;" horiz-adv-x="739" d="M700 249q-9 -71 -30 -120.5t-50 -80t-63.5 -44.5t-69.5 -14q-38 0 -74.5 4.5t-73 10t-73.5 10t-75 4.5q-64 0 -110 -32l-35 32q52 85 92 149.5t73.5 115t62.5 90t59 73.5t63 65.5t74 66.5q-36 -10 -77 -10q-21 0 -41.5 4.5t-41.5 10t-42.5 10t-43.5 4.5q-20 0 -35.5 -2 t-31 -12t-34 -29.5t-43.5 -53.5l-31 21q16 40 35 79t45.5 69.5t62 49t84.5 18.5q28 0 55 -5.5t55 -11.5t56 -11.5t58 -5.5q62 0 112 44l41 -36q-288 -294 -406 -540l2 1q22 6 49 6q22 0 49.5 -6t58 -13t62.5 -13t62 -6t54 12.5t42 30t29 37.5t14 35zM513 915l-181 -78 l-27 25l154 114z" />
<glyph unicode="&#x17a;" horiz-adv-x="514" d="M466 474l-260 -354h112q91 0 150 55l16 -20l-65 -156h-379v43l281 353h-118q-61 0 -141 -44l-13 13l31 145h386v-35zM400 622l-181 -78l-27 25l154 114z" />
<glyph unicode="&#x17b;" horiz-adv-x="739" d="M700 249q-9 -71 -30 -120.5t-50 -80t-63.5 -44.5t-69.5 -14q-38 0 -74.5 4.5t-73 10t-73.5 10t-75 4.5q-64 0 -110 -32l-35 32q52 85 92 149.5t73.5 115t62.5 90t59 73.5t63 65.5t74 66.5q-36 -10 -77 -10q-21 0 -41.5 4.5t-41.5 10t-42.5 10t-43.5 4.5q-20 0 -35.5 -2 t-31 -12t-34 -29.5t-43.5 -53.5l-31 21q16 40 35 79t45.5 69.5t62 49t84.5 18.5q28 0 55 -5.5t55 -11.5t56 -11.5t58 -5.5q62 0 112 44l41 -36q-288 -294 -406 -540l2 1q22 6 49 6q22 0 49.5 -6t58 -13t62.5 -13t62 -6t54 12.5t42 30t29 37.5t14 35zM366 844l-64 68l72 76 l63 -64z" />
<glyph unicode="&#x17c;" horiz-adv-x="514" d="M466 474l-260 -354h112q91 0 150 55l16 -20l-65 -156h-379v43l281 353h-118q-61 0 -141 -44l-13 13l31 145h386v-35zM253 551l-64 68l72 76l63 -64z" />
<glyph unicode="&#x17d;" horiz-adv-x="739" d="M700 249q-9 -71 -30 -120.5t-50 -80t-63.5 -44.5t-69.5 -14q-38 0 -74.5 4.5t-73 10t-73.5 10t-75 4.5q-64 0 -110 -32l-35 32q52 85 92 149.5t73.5 115t62.5 90t59 73.5t63 65.5t74 66.5q-36 -10 -77 -10q-21 0 -41.5 4.5t-41.5 10t-42.5 10t-43.5 4.5q-20 0 -35.5 -2 t-31 -12t-34 -29.5t-43.5 -53.5l-31 21q16 40 35 79t45.5 69.5t62 49t84.5 18.5q28 0 55 -5.5t55 -11.5t56 -11.5t58 -5.5q62 0 112 44l41 -36q-288 -294 -406 -540l2 1q22 6 49 6q22 0 49.5 -6t58 -13t62.5 -13t62 -6t54 12.5t42 30t29 37.5t14 35zM393 836h-52l-108 139 h65l72 -105l77 105h57z" />
<glyph unicode="&#x17e;" horiz-adv-x="514" d="M466 474l-260 -354h112q91 0 150 55l16 -20l-65 -156h-379v43l281 353h-118q-61 0 -141 -44l-13 13l31 145h386v-35zM281 543h-52l-108 139h65l72 -105l77 105h57z" />
<glyph unicode="&#x17f;" horiz-adv-x="394" d="M307 749q24 -55 88 -67l-96 -79l-5 2q-12 27 -38 27q-19 0 -50 -14q9 -17 14.5 -38.5t5.5 -48.5v-531h-131v495q0 22 -17.5 37t-43.5 17v18q149 142 273 182z" />
<glyph unicode="&#x192;" horiz-adv-x="518" d="M75 442h28q27 0 44 17t17 52t-42 38l5 18q187 142 322 182q10 -55 71 -67l-87 -89q-33 45 -85 45q-22 0 -35 -4q4 -15 4 -44q0 -34 -7 -59l-24 -89h122v-29h-129l-63 -235q-48 -177 -122.5 -265.5t-177.5 -96.5l7 28q78 31 118 178l106 391h-72v29z" />
<glyph unicode="&#x1fa;" horiz-adv-x="750" d="M293 699q0 -182 -23 -268h204l-21 191q0 42 -19 59.5t-61 17.5h-80zM-17 120q10 -6 21 -6q23 0 59.5 34t72.5 105.5t65 182t37 263.5h-196l10 47h579v-44q-41 0 -42 -82l50 -464q12 -113 72 -113v-43h-388v41q181 1 181 95q0 3 -0.5 6t-0.5 7l-17 158h-238 q-51 -186 -162 -319q-28 26 -58.5 53.5t-64.5 57.5zM323 909q0 -21 14.5 -35.5t36.5 -14.5q21 0 35.5 14.5t14.5 35.5q0 22 -14.5 36.5t-35.5 14.5q-22 0 -36.5 -14.5t-14.5 -36.5zM283 909q0 19 7 36t19 29.5t28.5 20t36.5 7.5q18 0 35 -7.5t30 -20t20.5 -29.5t7.5 -36 t-7.5 -35.5t-20.5 -29t-30 -19.5t-35 -7q-39 0 -65 26.5t-26 64.5zM640.363 949.851l-116.361 -60.2998l-17.3584 19.3271l99.0049 88.1299z" />
<glyph unicode="&#x1fb;" horiz-adv-x="526" d="M247 238q-64 -43 -64 -98q0 -52 62 -60l62 26v159zM307 339q-8 45 -49 63q-66 -42 -165 -60l-25 36q124 49 189 137q45 -37 89.5 -67t92.5 -53v-259q0 -65 61 -65v-24l-91 -56l-101 75l-138 -87q-115 24 -115 136q0 73 66 121l186 71v32zM211 636q0 -21 14.5 -35.5 t36.5 -14.5q21 0 35.5 14.5t14.5 35.5q0 22 -14.5 36.5t-35.5 14.5q-22 0 -36.5 -14.5t-14.5 -36.5zM171 636q0 19 7 36t19 29.5t28.5 20t36.5 7.5q18 0 35 -7.5t30 -20t20.5 -29.5t7.5 -36t-7.5 -35.5t-20.5 -29t-30 -19.5t-35 -7q-39 0 -65 26.5t-26 64.5z M524.363 679.851l-116.361 -60.2998l-17.3584 19.3271l99.0049 88.1299z" />
<glyph unicode="&#x1fc;" horiz-adv-x="1225" d="M1180 213q-33 -45 -68.5 -85.5t-77.5 -71.5t-93 -50t-115 -20q-67 0 -124 24.5t-101 67t-73 100.5t-40 125l-2 4h-238q-51 -186 -162 -319q-28 26 -58.5 53.5t-64.5 57.5l20 21q10 -6 21 -6q23 0 59.5 34t72.5 105.5t65 182t37 263.5h-196l10 47h579v-44q-38 0 -42 -70 q34 34 65.5 57.5t65.5 37.5t72 20.5t85 6.5q83 0 144 -27.5t116 -80.5l-131 -110l-23 30q1 4 1.5 7t0.5 7q0 16 -9 31.5t-26 28.5t-41.5 21t-55.5 8q-49 0 -90 -19t-71 -53.5t-46.5 -83.5t-16.5 -109l496 58l-95 -181h-18q-4 48 -63 50l-313 10q10 -62 35 -108.5t58.5 -77.5 t73 -46.5t78.5 -15.5q54 0 96 15t74 38t55.5 50t41.5 52zM293 699q0 -182 -23 -268h204l-21 191q0 42 -19 59.5t-61 17.5h-80zM756 915l-181 -78l-27 25l154 114z" />
<glyph unicode="&#x1fd;" horiz-adv-x="705" d="M430 164q29 -33 61 -47.5t69 -14.5q47 0 90 22l13 -6q-67 -114 -169 -131q-42 18 -78.5 46.5t-61.5 66.5l-184 -121q-115 24 -115 136q0 73 66 121l186 71v32q-8 45 -49 63q-66 -42 -165 -60l-25 36q124 49 189 137q33 -28 67.5 -52t68.5 -44q24 23 53.5 47t65.5 51 q80 -49 136 -135zM183 140q0 -52 62 -60l93 44q-28 49 -28 108q0 10 0.5 19.5t1.5 19.5l-65 -33q-64 -43 -64 -98zM417 399q-27 -68 -27 -122q0 -40 17 -80l115 115q-20 79 -105 87zM496 622l-181 -78l-27 25l154 114z" />
<glyph unicode="&#x1fe;" horiz-adv-x="763" d="M642 738l-61 -96q73 -72 102.5 -148t29.5 -163q0 -62 -27.5 -119t-74.5 -102.5t-108.5 -77t-128.5 -43.5q-38 14 -75 32.5t-71 42.5l-44 -74l-41 29l46 75q-63 51 -100 115t-37 142q0 69 22 124t66 103t111 92.5t156 93.5q39 -20 73 -42t61 -44l54 88zM629 278 q0 75 -28 137.5t-85 119.5l-220 -359q51 -38 105.5 -59.5t105.5 -21.5q24 0 46.5 6t41.5 19q34 61 34 158zM185 576q-41 -71 -41 -129q0 -75 31.5 -132.5t82.5 -105.5l217 360q-34 23 -71 37.5t-82 14.5q-61 0 -137 -45zM525 915l-181 -78l-27 25l154 114z" />
<glyph unicode="&#x1ff;" horiz-adv-x="503" d="M447 479l-52 -70q38 -45 54 -91.5t16 -100.5q0 -41 -18 -79t-49.5 -69t-73 -52.5t-87.5 -29.5q-32 11 -60.5 26.5t-54.5 34.5l-44 -59l-37 33l45 58q-31 32 -48.5 70t-17.5 80q0 48 15 85.5t45 70t74.5 64t104.5 67.5q31 -19 57 -37.5t47 -38.5l49 64zM391 159 q0 42 -19 81.5t-51 70.5l-125 -166q32 -26 69.5 -41.5t71.5 -15.5q19 0 40 8q14 33 14 63zM120 373q-12 -29 -12 -64q0 -37 14 -70.5t39 -60.5l124 163q-25 18 -55 28.5t-61 10.5q-12 0 -24.5 -1.5t-24.5 -5.5zM394 622l-181 -78l-27 25l154 114z" />
<glyph unicode="&#x218;" horiz-adv-x="709" d="M221.649 633.891q-26.957 -53.8506 -26.957 -100.969q0 -69.2363 49.9209 -106.258q49.9199 -37.0225 137.78 -37.0225q65.8955 0 122.805 9.61621q56.9102 9.61621 110.824 31.7334q21.9648 -47.1191 35.9424 -96.6416q13.9785 -49.5234 13.9785 -105.297 q0 -84.6211 -113.819 -148.088q-112.82 -62.5039 -227.638 -80.7744q-35.9434 9.61621 -76.3789 24.5205q-40.4355 14.9053 -79.873 34.1377q-39.4375 19.2314 -73.3838 41.8301q-33.9463 22.5977 -55.9111 46.6377q89.8574 30.7715 155.753 73.082 q47.9238 -78.8516 100.34 -109.623q52.417 -30.7715 116.315 -30.7715q49.9209 0 107.829 22.1172q9.9834 39.4258 9.9834 69.2354q0 44.2344 -20.9668 75.9668q-20.9658 31.7334 -55.9102 50.9658q-34.9453 19.2324 -80.373 28.3672q-45.4277 9.13574 -94.3496 9.13574 q-103.835 0 -163.74 -21.1553q-69.8887 94.2373 -69.8887 172.128q0 92.3145 106.83 154.818q50.9189 29.8105 112.821 61.543q61.9014 31.7334 133.787 64.4277q74.8809 -31.7324 135.285 -69.7158q60.4033 -37.9844 111.323 -82.2178q-70.8877 -18.2705 -138.78 -72.1211 q-8.98535 19.2324 -26.957 38.9453t-42.4326 35.5791q-24.4609 15.8672 -54.4131 25.4834t-62.9004 9.61621q-44.9287 0 -96.8457 -19.2324zM305 -192l-18 9l47 58l-51 47l76 67l66 -60z" />
<glyph unicode="&#x219;" horiz-adv-x="540" d="M177 412q-19 -34 -19 -62q0 -21 10.5 -38t28.5 -29t43 -18.5t55 -6.5q46 0 87 6.5t79 21.5q17 -34 27.5 -70.5t10.5 -74.5q0 -26 -22 -50.5t-57.5 -45t-80 -35.5t-89.5 -21q-26 7 -55 17t-57.5 22.5t-53 27.5t-41.5 32q65 19 121 61q37 -55 78 -76t95 -21q14 0 27.5 1 t27.5 4q2 6 2 15q0 55 -39.5 91.5t-120.5 36.5q-45 0 -77 -3t-55 -12q-54 70 -54 127q0 31 19.5 56.5t53.5 48t80.5 43t101.5 41.5q54 -22 99 -47t80 -54q-51 -13 -113 -64q-6 17 -21.5 31.5t-37 25t-47 16.5t-50.5 6q-18 0 -36 -3zM221 -192l-18 9l47 58l-51 47l76 67 l66 -60z" />
<glyph unicode="&#x21a;" horiz-adv-x="786" d="M745 189q-24 -38 -51.5 -74t-63.5 -65t-81.5 -46.5t-104.5 -17.5q-55 0 -111.5 28t-102 79.5t-74 123t-28.5 158.5q0 85 30.5 149.5t84.5 109.5q-35 0 -61.5 -0.5t-48 -6.5t-41 -20t-41.5 -41l-28 18q26 48 60.5 79.5t78.5 50.5t100 27t125 8q116 0 284 -18l-76 -156 q-152 49 -269 56q-81 -72 -81 -208q0 -89 39 -161q26 -49 56.5 -81t63.5 -51t67 -27t66 -8q30 0 52.5 5.5t42 19t38.5 35.5t42 56zM344 -192l-18 9l47 58l-51 47l76 67l66 -60z" />
<glyph unicode="&#x21b;" horiz-adv-x="331" d="M69 67v289q0 59 -49 63v18l180 176v-119h100v-79h-100v-279q0 -65 62 -65v-24l-91 -56zM116 -192l-18 9l47 58l-51 47l76 67l66 -60z" />
<glyph unicode="&#x2c6;" horiz-adv-x="314" d="M131 683h52l108 -139h-60l-73 109l-70 -109h-68z" />
<glyph unicode="&#x2c7;" horiz-adv-x="314" d="M179 543h-52l-108 139h65l72 -105l77 105h57z" />
<glyph unicode="&#x2d8;" horiz-adv-x="314" d="M290 663q-33 -120 -140 -120t-131 120h88q12 -86 67 -86q56 0 71 86h45z" />
<glyph unicode="&#x2d9;" horiz-adv-x="188" d="M91 551l-64 68l72 76l63 -64z" />
<glyph unicode="&#x2da;" horiz-adv-x="204" d="M53 616q0 -21 14.5 -35.5t36.5 -14.5q21 0 35.5 14.5t14.5 35.5q0 22 -14.5 36.5t-35.5 14.5q-22 0 -36.5 -14.5t-14.5 -36.5zM13 616q0 19 7 36t19 29.5t28.5 20t36.5 7.5q18 0 35 -7.5t30 -20t20.5 -29.5t7.5 -36t-7.5 -35.5t-20.5 -29t-30 -19.5t-35 -7 q-39 0 -65 26.5t-26 64.5z" />
<glyph unicode="&#x2db;" horiz-adv-x="267" d="M91 -112q18 -3 39 -3q35 0 71.5 6t59.5 17v-66q-11 -7 -32.5 -13t-45.5 -11t-46.5 -8t-34.5 -3q-14 4 -27.5 13t-24 21t-17 27.5t-6.5 33.5q28 42 62.5 68.5t62.5 39.5h28q-45 -30 -65 -58t-24 -64z" />
<glyph unicode="&#x2dc;" horiz-adv-x="305" d="M-1 615q36 81 98 84q20 -2 42 -10.5t43 -27.5q13 -11 22.5 -18t18.5 -6q30 0 42 65l52 -17q-29 -87 -107 -87q-15 0 -34 10.5t-48 35.5q-20 15 -34 15q-32 0 -55 -59z" />
<glyph unicode="&#x2dd;" horiz-adv-x="379" d="M350 630l-146 -107l-31 20l138 115zM221 630l-145 -107l-32 20l139 115z" />
<glyph unicode="&#x326;" horiz-adv-x="220" d="M68 -192l-18 9l47 58l-51 47l76 67l66 -60z" />
<glyph unicode="&#x3bc;" horiz-adv-x="573" d="M105 -123v162q-22 32 -33.5 56.5t-16.5 44.5t-5.5 38.5t-0.5 39.5q0 27 4.5 54t10.5 53t10.5 50.5t4.5 45.5q0 46 -20 84h140q20 -26 20 -72q0 -26 -5.5 -59t-18.5 -71q-11 -32 -16.5 -55.5t-5.5 -44.5q0 -49 31.5 -68t76.5 -19q52 0 91 30v359h132v-335q0 -59 49 -63 v-18l-111 -95q-60 17 -67 84q-138 -19 -191 -78v-77q0 -50 47 -50v-19l-70 -44z" />
<glyph unicode="&#x1e80;" horiz-adv-x="1133" d="M192 746q45 -40 73 -113t33 -176q10 -201 168 -347q131 110 131 240q0 55 -15 103.5t-42.5 85t-67.5 57.5t-89 21q-40 0 -76 -10l-4 20q85 50 120 119q5 0 11 0.5t10 0.5q52 0 96 -18.5t76.5 -49.5t52.5 -71.5t25 -83.5q4 -33 5.5 -60t1.5 -47q0 -11 -0.5 -19t-1.5 -15 q31 -155 159 -273q131 110 131 240q0 55 -15 103.5t-42.5 85t-67.5 57.5t-89 21q-40 0 -76 -10l-4 20q85 50 120 119q6 0 12 0.5t12 0.5q55 0 101.5 -20.5t80.5 -61t53.5 -100t19.5 -138.5q0 -114 -58 -197q-37 -54 -97.5 -116t-151.5 -131h-14q-117 119 -156 211 q-73 -96 -222 -211h-14q-229 226 -229 436q0 105 -31.5 180t-88.5 117v30h160zM477 976l153 -114l-27 -25l-180 78z" />
<glyph unicode="&#x1e81;" horiz-adv-x="825" d="M536 -17q-78 76 -112 137q-26 -32 -63.5 -66t-85.5 -71h-9q-160 157 -160 305q0 75 -19 117.5t-61 61.5v38h140q30 -28 46.5 -74.5t18.5 -121.5q3 -146 105 -220q82 76 82 178q0 27 -8.5 54.5t-24 49.5t-37 36t-48.5 14q-17 0 -47 -8l-8 22q58 34 83 82h15q28 0 57.5 -12 t53.5 -34t39.5 -53t15.5 -69t-10 -69q29 -135 107 -191q82 76 82 178q0 27 -8 54.5t-23.5 49.5t-37 36t-48.5 14q-18 0 -48 -8l-7 22q28 16 49.5 36.5t34.5 45.5q4 0 7.5 0.5t8.5 0.5q33 0 62 -11t51 -32t34.5 -52.5t12.5 -72.5q0 -54 -11.5 -99t-38.5 -87.5t-71 -86 t-110 -94.5h-9zM323 683l153 -114l-27 -25l-180 78z" />
<glyph unicode="&#x1e82;" horiz-adv-x="1133" d="M192 746q45 -40 73 -113t33 -176q10 -201 168 -347q131 110 131 240q0 55 -15 103.5t-42.5 85t-67.5 57.5t-89 21q-40 0 -76 -10l-4 20q85 50 120 119q5 0 11 0.5t10 0.5q52 0 96 -18.5t76.5 -49.5t52.5 -71.5t25 -83.5q4 -33 5.5 -60t1.5 -47q0 -11 -0.5 -19t-1.5 -15 q31 -155 159 -273q131 110 131 240q0 55 -15 103.5t-42.5 85t-67.5 57.5t-89 21q-40 0 -76 -10l-4 20q85 50 120 119q6 0 12 0.5t12 0.5q55 0 101.5 -20.5t80.5 -61t53.5 -100t19.5 -138.5q0 -114 -58 -197q-37 -54 -97.5 -116t-151.5 -131h-14q-117 119 -156 211 q-73 -96 -222 -211h-14q-229 226 -229 436q0 105 -31.5 180t-88.5 117v30h160zM709 915l-181 -78l-27 25l154 114z" />
<glyph unicode="&#x1e83;" horiz-adv-x="825" d="M536 -17q-78 76 -112 137q-26 -32 -63.5 -66t-85.5 -71h-9q-160 157 -160 305q0 75 -19 117.5t-61 61.5v38h140q30 -28 46.5 -74.5t18.5 -121.5q3 -146 105 -220q82 76 82 178q0 27 -8.5 54.5t-24 49.5t-37 36t-48.5 14q-17 0 -47 -8l-8 22q58 34 83 82h15q28 0 57.5 -12 t53.5 -34t39.5 -53t15.5 -69t-10 -69q29 -135 107 -191q82 76 82 178q0 27 -8 54.5t-23.5 49.5t-37 36t-48.5 14q-18 0 -48 -8l-7 22q28 16 49.5 36.5t34.5 45.5q4 0 7.5 0.5t8.5 0.5q33 0 62 -11t51 -32t34.5 -52.5t12.5 -72.5q0 -54 -11.5 -99t-38.5 -87.5t-71 -86 t-110 -94.5h-9zM555 622l-181 -78l-27 25l154 114z" />
<glyph unicode="&#x1e84;" horiz-adv-x="1133" d="M192 746q45 -40 73 -113t33 -176q10 -201 168 -347q131 110 131 240q0 55 -15 103.5t-42.5 85t-67.5 57.5t-89 21q-40 0 -76 -10l-4 20q85 50 120 119q5 0 11 0.5t10 0.5q52 0 96 -18.5t76.5 -49.5t52.5 -71.5t25 -83.5q4 -33 5.5 -60t1.5 -47q0 -11 -0.5 -19t-1.5 -15 q31 -155 159 -273q131 110 131 240q0 55 -15 103.5t-42.5 85t-67.5 57.5t-89 21q-40 0 -76 -10l-4 20q85 50 120 119q6 0 12 0.5t12 0.5q55 0 101.5 -20.5t80.5 -61t53.5 -100t19.5 -138.5q0 -114 -58 -197q-37 -54 -97.5 -116t-151.5 -131h-14q-117 119 -156 211 q-73 -96 -222 -211h-14q-229 226 -229 436q0 105 -31.5 180t-88.5 117v30h160zM479 844l-64 68l72 76l63 -64zM647 844l-64 68l72 76l63 -64z" />
<glyph unicode="&#x1e85;" horiz-adv-x="825" d="M536 -17q-78 76 -112 137q-26 -32 -63.5 -66t-85.5 -71h-9q-160 157 -160 305q0 75 -19 117.5t-61 61.5v38h140q30 -28 46.5 -74.5t18.5 -121.5q3 -146 105 -220q82 76 82 178q0 27 -8.5 54.5t-24 49.5t-37 36t-48.5 14q-17 0 -47 -8l-8 22q58 34 83 82h15q28 0 57.5 -12 t53.5 -34t39.5 -53t15.5 -69t-10 -69q29 -135 107 -191q82 76 82 178q0 27 -8 54.5t-23.5 49.5t-37 36t-48.5 14q-18 0 -48 -8l-7 22q28 16 49.5 36.5t34.5 45.5q4 0 7.5 0.5t8.5 0.5q33 0 62 -11t51 -32t34.5 -52.5t12.5 -72.5q0 -54 -11.5 -99t-38.5 -87.5t-71 -86 t-110 -94.5h-9zM325 551l-64 68l72 76l63 -64zM493 551l-64 68l72 76l63 -64z" />
<glyph unicode="&#x1ef2;" horiz-adv-x="758" d="M186 746q45 -40 69.5 -113t29.5 -176q10 -201 168 -347q80 68 116 136t36 145q0 43 -13 83.5t-37.5 72t-60 51t-80.5 19.5q-37 0 -70 -10l-4 20q85 50 119 119q5 0 11 0.5t11 0.5q47 0 89 -15t73.5 -45t50 -74.5t18.5 -103.5q0 -74 -17 -137.5t-52 -122.5t-89 -115.5 t-128 -115.5q-10 -13 -10 -32q0 -26 14.5 -38t48.5 -12q50 0 132 67l28 -17q-42 -75 -100 -118t-130 -43q-24 0 -43.5 9.5t-33 24.5t-21 33t-7.5 35q0 42 41 80q-206 215 -206 412q0 105 -28 180t-85 117v30h160zM289 976l153 -114l-27 -25l-180 78z" />
<glyph unicode="&#x1ef3;" horiz-adv-x="548" d="M243 9q-137 143 -137 279q0 75 -19 117.5t-61 61.5v38h140q32 -28 47.5 -74.5t17.5 -121.5q3 -146 105 -220q82 76 82 178q0 27 -8.5 54.5t-24 49.5t-37 36t-48.5 14q-17 0 -47 -8l-8 22q58 31 84 82q5 0 8.5 0.5t8.5 0.5q33 0 62 -11t50.5 -32t34.5 -52.5t13 -72.5 q0 -102 -49 -183t-132 -146q-38 -30 -63.5 -56.5t-41.5 -51t-22.5 -49.5t-6.5 -52h-121q21 72 62.5 122.5t110.5 74.5zM185 683l153 -114l-27 -25l-180 78z" />
<glyph unicode="&#x2013;" horiz-adv-x="489" d="M76 353q33 -16 97 -16h180q33 0 71 27l20 -12l-48 -129q-32 15 -55 15h-222q-44 0 -72 -36l-18 9z" />
<glyph unicode="&#x2014;" horiz-adv-x="688" d="M76 353q33 -16 97 -16h394q33 0 71 27l21 -12l-49 -129q-32 15 -55 15h-436q-44 0 -72 -36l-18 9z" />
<glyph unicode="&#x2018;" horiz-adv-x="202" d="M147 781l15 -13l-42 -82l46 -67l-67 -97l-57 86z" />
<glyph unicode="&#x2019;" horiz-adv-x="198" d="M61 513l-14 12l39 82l-44 68l67 96l57 -86z" />
<glyph unicode="&#x201a;" horiz-adv-x="205" d="M61 -95l-14 13l39 82l-44 67l67 97l57 -86z" />
<glyph unicode="&#x201c;" horiz-adv-x="353" d="M147 781l15 -13l-42 -82l46 -67l-67 -97l-57 86zM290 781l14 -13l-38 -82l43 -67l-66 -97l-57 86z" />
<glyph unicode="&#x201d;" horiz-adv-x="353" d="M204 513l-14 12l41 82l-45 68l67 96l56 -86zM61 513l-14 12l39 82l-44 68l67 96l57 -86z" />
<glyph unicode="&#x201e;" horiz-adv-x="353" d="M204 -95l-14 13l41 82l-45 67l67 97l56 -86zM61 -95l-14 13l39 82l-44 67l67 97l57 -86z" />
<glyph unicode="&#x2020;" horiz-adv-x="442" d="M80 617q33 -16 99 -16l-7 115l107 51l-10 -166q89 0 124 28l21 -13l-49 -79q-32 15 -99 15l-40 -696l-45 696q-101 0 -130 -35l-18 8z" />
<glyph unicode="&#x2021;" horiz-adv-x="442" d="M366 5q-33 16 -98 16l7 -115l-107 -51l10 166q-88 0 -125 -28l-20 13l48 79q31 -15 100 -15l27 238l-27 244q-101 0 -130 -35l-18 8l47 92q33 -16 99 -16l-7 115l107 51l-10 -166q89 0 124 28l21 -13l-49 -79q-32 15 -99 15l-29 -246l29 -236q100 0 129 36l19 -9z" />
<glyph unicode="&#x2022;" horiz-adv-x="390" d="M37 354q0 32 12 60.5t33 50t49.5 34t61.5 12.5q32 0 60.5 -12.5t50 -34t34 -50t12.5 -60.5q0 -33 -12.5 -61.5t-34 -49.5t-50 -33t-60.5 -12q-33 0 -61.5 12t-49.5 33t-33 49.5t-12 61.5z" />
<glyph unicode="&#x2026;" horiz-adv-x="1160" d="M204 -8l-77 91l87 96l77 -84zM587 -8l-77 91l87 96l77 -84zM941 -8l-77 91l87 96l77 -84z" />
<glyph unicode="&#x2030;" horiz-adv-x="963" d="M185 746q70 -49 97 -102t27 -116q0 -31 -11.5 -59t-30.5 -50t-43.5 -37t-51.5 -20q-26 11 -49.5 28.5t-41.5 40t-29 49t-11 55.5q0 35 9 62.5t27 51.5t45 47t63 50zM103 642q-9 -26 -9 -48q0 -34 13.5 -63t34.5 -50t45 -33t45 -12q14 0 25 4q7 18 7 46q0 30 -11 59 t-30 51.5t-43 36.5t-49 14q-8 0 -14 -1.5zM487 378q69 -48 96 -101t27 -116q0 -31 -11.5 -59t-30 -50t-43.5 -37t-52 -20q-26 11 -49.5 28.5t-41.5 40.5t-28.5 50t-10.5 57q0 35 9 62t27 50.5t45 46t63 48.5zM404 275q-9 -26 -9 -48q0 -33 14 -62.5t35 -51t45 -34t44 -12.5 q12 0 18.5 4.5t9.5 11.5t3.5 16.5t0.5 19.5q0 30 -11 58.5t-29 51.5t-42 37t-50 14q-8 0 -14.5 -1.5t-14.5 -3.5zM570 768l-399 -768h-58l404 768h53zM774 378q69 -48 96.5 -101t27.5 -116q0 -31 -11.5 -59t-30.5 -50t-44 -37t-52 -20q-26 11 -49.5 29t-41.5 40.5 t-28.5 49.5t-10.5 57q0 35 9 62t27 50.5t45 46t63 48.5zM691 275q-9 -26 -9 -48q0 -33 14 -62.5t35 -51t45 -34t45 -12.5q12 0 18.5 4.5t9 12t3 16.5t0.5 19q0 30 -11 58.5t-29 51.5t-42 37t-50 14q-8 0 -14.5 -1.5t-14.5 -3.5z" />
<glyph unicode="&#x2039;" horiz-adv-x="317" d="M273 533v-42l-180 -180l180 -180v-84l-243 244z" />
<glyph unicode="&#x203a;" horiz-adv-x="317" d="M40 47v43l179 180l-179 179v84l242 -244z" />
<glyph unicode="&#x2044;" horiz-adv-x="207" d="M385 768l-480 -768h-71l487 768h64z" />
<glyph unicode="&#x20ac;" horiz-adv-x="846" d="M121 485q27 87 85 145q35 35 67 58.5t66 38t72.5 21t85.5 6.5q82 0 143.5 -27.5t116.5 -80.5l-131 -110l-24 30q1 4 1.5 7t0.5 7q0 16 -8.5 31.5t-25.5 28.5t-41.5 21t-55.5 8q-38 0 -73 -12.5t-64 -36t-50 -58t-30 -77.5h239q41 0 85 18l24 -9l-57 -82q-29 10 -66 10 h-231q0 -22 1.5 -43.5t6.5 -46.5h129q35 0 84 17l25 -8l-57 -82q-30 10 -67 10h-96q1 -8 4 -11q36 -85 94 -125t127 -40q58 0 100.5 13.5t73 35.5t52.5 50t40 56l33 -35q-27 -47 -61.5 -88t-78.5 -71.5t-97.5 -48.5t-117.5 -19q-92 0 -183 58q-113 72 -147 225h-82l19 63h53 q-1 8 -1.5 17t-0.5 17q0 14 1 27.5t3 28.5h-74l19 63h69z" />
<glyph unicode="&#x2122;" horiz-adv-x="988" d="M63 746h317v-101h-54v59q-55 -6 -55 -24v-271q0 -31 45 -31h14v-41h-210v39q56 5 56 28v269q0 25 -55 31v-59h-58v101zM508 406q0 -99 -76 -175l-27 19q40 61 40 149v259q0 35 -24 43v45h128l90 -194l62 123q6 12 6 18q0 5 -4.5 6.5t-10.5 1.5h-12v45h175v-42 q-29 0 -29 -27v-254q0 -52 35 -52v-38h-166v41q33 0 33 45v179l-109 -232l-111 227v-187z" />
<glyph unicode="&#x2260;" horiz-adv-x="444" d="M341 586l-59 -160h51q33 0 71 27l21 -13l-49 -128q-32 15 -55 15h-74l-29 -79h85q36 0 71 28l21 -13l-48 -129q-32 15 -56 15h-108l-61 -167h-32l61 167h-41q-44 0 -71 -35l-19 8l47 142q33 -16 97 -16h24l28 79h-77q-43 0 -71 -36l-19 9l48 141q34 -15 97 -15h59l59 160 h29z" />
<glyph unicode="&#x25fc;" horiz-adv-x="515" d="M0 515h515v-515h-515v515z" />
<glyph unicode="&#xfb01;" horiz-adv-x="589" d="M368 67v272q-11 101 -49 101h-95v-440h-131v440h-61v17q55 13 55 46q0 43 -55 46v18q149 142 273 182q21 -49 86 -67l109 53v-101l-113 -56v85l-90 -60l-5 2q-12 27 -38 27q-19 0 -50 -14q9 -17 14.5 -38.5t5.5 -48.5v-16h193l83 -86v-293q0 -65 61 -65v-24l-91 -56z" />
<glyph unicode="&#xfb02;" horiz-adv-x="593" d="M367 63v510q0 28 -20 48t-60 20q-31 0 -82 -23q9 -17 14.5 -38.5t5.5 -48.5v-22h93v-89h-93v-420h-131v420h-61v18q55 31 55 64q0 44 -55 47v18q149 142 273 182q36 -53 84 -53q47 0 109 53v-617q0 -65 61 -65v-24l-91 -56z" />
</font>
</defs>
</svg>
